<svg width="461" height="282" viewBox="0 0 461 282" fill="none" xmlns="http://www.w3.org/2000/svg">
<rect width="461" height="282" fill="#FAFAFA"/>
<path d="M29.2 235.518L27.762 243.694C27.6537 244.319 27.5404 244.955 27.4173 245.586C26.2155 245.303 24.9694 245.382 23.8027 245.814C24.7283 247.313 25.5578 248.886 26.2847 250.519C25.3786 253.684 24.049 256.608 21.8231 258.723C20.3364 260.104 18.5608 261.028 16.6675 261.405C14.7742 261.783 12.827 261.601 11.0137 260.877L11.0778 260.554C8.68444 255.291 9.98452 248.655 12.9589 243.794C14.476 241.396 16.2735 239.243 18.302 237.393C20.3112 235.495 22.483 233.793 24.635 232.113C25.1183 231.737 25.6898 231.532 26.2763 231.525C26.8629 231.518 27.4379 231.71 27.928 232.075C28.418 232.441 28.8007 232.963 29.0273 233.577C29.2539 234.19 29.314 234.866 29.2 235.518Z" fill="#E4E4E4"/>
<path d="M11.5258 280.55C10.9206 275.553 10.2981 270.493 10.7226 265.443C11.0999 260.958 12.3069 256.578 14.7652 252.986C16.07 251.083 17.6576 249.452 19.4568 248.168C19.9261 247.833 20.3575 248.675 19.8906 249.009C16.7777 251.238 14.37 254.531 13.0145 258.411C11.5175 262.726 11.2771 267.43 11.5372 272.014C11.6933 274.786 12.0237 277.539 12.3571 280.29C12.3839 280.415 12.3678 280.546 12.3119 280.657C12.2561 280.769 12.1648 280.852 12.0567 280.89C11.9468 280.923 11.8295 280.906 11.7305 280.843C11.6315 280.779 11.5586 280.673 11.5278 280.549L11.5258 280.55Z" fill="#F2F2F2"/>
<path d="M16.7199 29.9324C37.8152 29.5167 58.9128 29.457 80.0126 29.7533C101.109 30.0513 122.199 30.7069 143.282 31.7201C155.112 32.2887 166.938 32.9698 178.758 33.7635C179.708 33.8272 179.705 32.1527 178.758 32.0893C157.697 30.6769 136.62 29.62 115.527 28.9187C94.438 28.2193 73.3425 27.8775 52.2409 27.8933C40.3999 27.9023 28.5596 28.0239 16.7199 28.2582C15.7703 28.2769 15.7673 29.9512 16.7199 29.9325V29.9324Z" fill="#E6E6E6"/>
<path d="M163.734 19.4345L172.959 18.6564C173.901 18.5769 173.909 16.902 172.959 16.9822L163.734 17.7602C162.792 17.8397 162.784 19.5146 163.734 19.4345Z" fill="#E6E6E6"/>
<path d="M163.734 29.48L172.959 28.702C173.901 28.6225 173.909 26.9476 172.959 27.0277L163.734 27.8057C162.792 27.8852 162.784 29.5601 163.734 29.48Z" fill="#E6E6E6"/>
<path d="M163.04 24.8925L176.155 26.2428C177.102 26.3402 177.096 24.6653 176.155 24.5685L163.04 23.2182C162.094 23.1208 162.1 24.7956 163.04 24.8925Z" fill="#E6E6E6"/>
<path d="M22.179 17.1828C21.5375 17.1783 20.9091 17.3879 20.372 17.7854C19.8349 18.1829 19.413 18.7508 19.1587 19.4183C18.8743 20.0715 18.7865 20.8123 18.9088 21.5275C19.031 22.2426 19.3566 22.8927 19.8357 23.3783C20.286 23.8126 20.8262 24.1103 21.4057 24.2438C21.9852 24.3772 22.5851 24.3419 23.1493 24.1412C23.7263 23.9129 24.2266 23.4874 24.5814 22.9235C24.9362 22.3595 25.1281 21.6848 25.1306 20.9921C25.1563 20.2237 24.9727 19.4649 24.6045 18.819C24.2363 18.173 23.7015 17.6712 23.0728 17.3819C22.8839 17.3237 22.6824 17.3526 22.5122 17.4621C22.342 17.5716 22.2169 17.7529 22.1642 17.9666C22.1176 18.1804 22.1451 18.4064 22.2411 18.5979C22.3371 18.7895 22.4942 18.9321 22.6801 18.9963C22.8088 19.0527 22.5625 18.9246 22.6827 18.9988C22.7321 19.0293 22.7825 19.0569 22.831 19.0895C22.8723 19.1172 22.9118 19.1475 22.9519 19.1772C23.0898 19.2792 22.8846 19.1023 22.9727 19.194C23.0492 19.2735 23.1249 19.3511 23.1944 19.4388C23.2206 19.472 23.3235 19.5642 23.2436 19.4998C23.1824 19.4505 23.22 19.4621 23.2435 19.5017C23.2614 19.5317 23.2804 19.561 23.298 19.5912C23.3556 19.69 23.408 19.7925 23.4548 19.8983C23.4657 19.9228 23.4756 19.9479 23.4866 19.9723C23.5073 20.0179 23.5373 20.0299 23.4887 19.9727C23.4422 19.918 23.4718 19.9218 23.4884 19.9744C23.4993 20.0089 23.5113 20.043 23.5219 20.0777C23.5566 20.1907 23.5856 20.3057 23.609 20.4222C23.6198 20.4761 23.6285 20.5303 23.6378 20.5845C23.6708 20.7768 23.633 20.465 23.641 20.6078C23.6477 20.7271 23.6554 20.845 23.6536 20.9647C23.6528 21.0195 23.6507 21.0742 23.6473 21.1289C23.6456 21.1561 23.6429 21.1833 23.6413 21.2106C23.6337 21.3419 23.6334 21.1626 23.6496 21.1503C23.6159 21.2618 23.5935 21.3773 23.5829 21.4946C23.5697 21.5467 23.5539 21.5976 23.5392 21.6491C23.4878 21.8287 23.5875 21.5511 23.5327 21.6739C23.4876 21.7794 23.4372 21.8818 23.3818 21.9807C23.3577 22.0221 23.267 22.1157 23.3412 22.0506C23.4217 21.9799 23.299 22.1016 23.2728 22.1329C23.2391 22.1731 23.2042 22.2119 23.168 22.2493C23.1448 22.275 23.1204 22.2991 23.0947 22.3215C23.09 22.3188 23.2182 22.2245 23.1491 22.2744C23.0613 22.3379 22.9782 22.4058 22.8857 22.461C22.875 22.4674 22.7567 22.5295 22.7572 22.5317C22.7521 22.5091 22.9092 22.469 22.8014 22.5085C22.7787 22.5168 22.7565 22.5268 22.7339 22.5354C22.6357 22.5729 22.5355 22.6032 22.4339 22.626C22.4106 22.6313 22.386 22.6339 22.3631 22.6407C22.2867 22.663 22.436 22.6275 22.4405 22.6305C22.3841 22.6277 22.3276 22.6334 22.2724 22.6473C22.1676 22.6541 22.0625 22.6541 21.9577 22.6473C21.9335 22.6457 21.9093 22.643 21.885 22.6414C21.8288 22.6377 21.7875 22.5917 21.8624 22.6416C21.9201 22.6801 21.9153 22.652 21.8641 22.6413C21.8402 22.6363 21.8161 22.6321 21.7922 22.627C21.6885 22.605 21.5859 22.5765 21.4849 22.5417C21.4306 22.5229 21.3774 22.5011 21.3238 22.4799C21.3004 22.4722 21.2777 22.4623 21.2558 22.4502C21.2555 22.4433 21.3939 22.5252 21.3208 22.4805C21.2286 22.4242 21.1331 22.3769 21.043 22.3154C20.995 22.2825 20.9488 22.2467 20.902 22.2116C20.8815 22.1975 20.8619 22.1816 20.8436 22.1641C20.8451 22.157 20.9581 22.2757 20.8988 22.2116C20.8238 22.1306 20.7436 22.0581 20.6725 21.9719C20.6563 21.9521 20.6409 21.9315 20.6247 21.9117L20.609 21.8914C20.569 21.8359 20.5683 21.8362 20.6068 21.8922C20.646 21.9053 20.6442 21.954 20.607 21.8907C20.5938 21.8682 20.5797 21.8463 20.5665 21.8237C20.5065 21.7269 20.4554 21.6233 20.4138 21.5148C20.4174 21.5116 20.4778 21.7162 20.4316 21.5618C20.4229 21.5326 20.4131 21.5039 20.4046 21.4747C20.3876 21.4167 20.3726 21.358 20.3597 21.2987C20.347 21.24 20.3404 21.1794 20.3275 21.1209C20.3058 21.0223 20.3402 21.1987 20.3363 21.1943C20.324 21.1805 20.3292 21.095 20.3283 21.0746C20.3224 20.9432 20.3356 20.8157 20.3377 20.6851C20.3393 20.584 20.3303 20.764 20.3284 20.7587C20.3289 20.7284 20.3336 20.6984 20.3424 20.6698C20.3558 20.6009 20.3683 20.5321 20.3846 20.464C20.4034 20.3861 20.4249 20.309 20.4494 20.233C20.4585 20.2045 20.4696 20.1765 20.4781 20.1478C20.5092 20.0427 20.4165 20.2747 20.4676 20.1799C20.5379 20.0495 20.5902 19.9084 20.6649 19.7796C20.6825 19.7491 20.79 19.579 20.733 19.6649C20.6762 19.7504 20.7914 19.5883 20.8132 19.5608C20.9038 19.4464 21.0103 19.3525 21.1042 19.2431C21.1597 19.1782 21.0654 19.275 21.0598 19.2795C21.0889 19.256 21.1173 19.2315 21.1468 19.2086C21.198 19.1685 21.2506 19.1306 21.3044 19.0949C21.365 19.0547 21.4335 19.0247 21.4922 18.9821C21.5616 18.9318 21.4392 19.0042 21.437 19.0057C21.4687 18.9879 21.5018 18.9736 21.5359 18.963C21.5931 18.94 21.8419 18.8183 21.8941 18.8564C21.8917 18.8546 21.7052 18.8734 21.856 18.8624C21.8916 18.8598 21.9271 18.8559 21.9628 18.8542C22.035 18.8508 22.1069 18.8529 22.179 18.8571C22.3745 18.8556 22.5617 18.767 22.6999 18.6103C22.8382 18.4536 22.9164 18.2415 22.9177 18.02C22.9135 17.7994 22.8343 17.5892 22.6967 17.4333C22.5591 17.2773 22.3736 17.1876 22.179 17.1828L22.179 17.1828Z" fill="#E6E6E6"/>
<path d="M32.5205 17.1828C31.879 17.1783 31.2506 17.3879 30.7135 17.7854C30.1764 18.1829 29.7545 18.7508 29.5002 19.4183C29.2158 20.0715 29.128 20.8123 29.2503 21.5275C29.3725 22.2426 29.6981 22.8927 30.1772 23.3783C30.6275 23.8126 31.1677 24.1103 31.7472 24.2438C32.3267 24.3772 32.9266 24.3419 33.4908 24.1412C34.0678 23.9129 34.5681 23.4874 34.9229 22.9235C35.2777 22.3595 35.4696 21.6848 35.4721 20.9921C35.4978 20.2237 35.3142 19.4649 34.946 18.819C34.5778 18.173 34.043 17.6712 33.4143 17.3819C33.2255 17.3237 33.0239 17.3526 32.8537 17.4621C32.6835 17.5716 32.5584 17.7529 32.5057 17.9666C32.4591 18.1804 32.4866 18.4064 32.5826 18.5979C32.6786 18.7895 32.8357 18.9321 33.0216 18.9963C33.1503 19.0527 32.904 18.9246 33.0242 18.9988C33.0736 19.0293 33.124 19.0569 33.1725 19.0895C33.2138 19.1172 33.2533 19.1475 33.2934 19.1772C33.4313 19.2792 33.2261 19.1023 33.3142 19.194C33.3907 19.2735 33.4664 19.3511 33.5359 19.4388C33.5621 19.472 33.6651 19.5642 33.5851 19.4998C33.5239 19.4505 33.5615 19.4621 33.585 19.5017C33.6029 19.5317 33.6219 19.561 33.6395 19.5912C33.6971 19.69 33.7495 19.7925 33.7963 19.8983C33.8072 19.9228 33.8171 19.9479 33.8281 19.9723C33.8488 20.0179 33.8788 20.0299 33.8302 19.9727C33.7837 19.918 33.8133 19.9218 33.8299 19.9744C33.8409 20.0089 33.8528 20.043 33.8634 20.0777C33.8981 20.1907 33.9271 20.3057 33.9505 20.4222C33.9613 20.4761 33.97 20.5303 33.9793 20.5845C34.0123 20.7768 33.9745 20.465 33.9825 20.6078C33.9892 20.7271 33.9969 20.845 33.9951 20.9647C33.9943 21.0195 33.9922 21.0742 33.9888 21.1289C33.9871 21.1561 33.9844 21.1833 33.9828 21.2106C33.9752 21.3419 33.9749 21.1626 33.9911 21.1503C33.9574 21.2618 33.935 21.3773 33.9244 21.4946C33.9112 21.5467 33.8954 21.5976 33.8807 21.6491C33.8293 21.8287 33.929 21.5511 33.8742 21.6739C33.8291 21.7794 33.7787 21.8818 33.7233 21.9807C33.6992 22.0221 33.6085 22.1157 33.6827 22.0506C33.7632 21.9799 33.6405 22.1016 33.6143 22.1329C33.5806 22.1731 33.5457 22.2119 33.5095 22.2493C33.4863 22.275 33.4619 22.2991 33.4362 22.3215C33.4315 22.3188 33.5597 22.2245 33.4906 22.2744C33.4028 22.3379 33.3197 22.4058 33.2272 22.461C33.2165 22.4674 33.0982 22.5295 33.0987 22.5317C33.0936 22.5091 33.2507 22.469 33.1429 22.5085C33.1202 22.5168 33.098 22.5268 33.0754 22.5354C32.9772 22.5729 32.877 22.6032 32.7754 22.626C32.7521 22.6313 32.7275 22.6339 32.7046 22.6407C32.6282 22.663 32.7775 22.6275 32.782 22.6305C32.7256 22.6277 32.6691 22.6334 32.6139 22.6473C32.5091 22.6541 32.404 22.6541 32.2992 22.6473C32.275 22.6457 32.2508 22.643 32.2266 22.6414C32.1703 22.6377 32.129 22.5917 32.2039 22.6416C32.2616 22.6801 32.2568 22.652 32.2056 22.6413C32.1817 22.6363 32.1576 22.6321 32.1337 22.627C32.03 22.605 31.9274 22.5765 31.8264 22.5417C31.7721 22.5229 31.7189 22.5011 31.6653 22.4799C31.6419 22.4722 31.6192 22.4623 31.5973 22.4502C31.597 22.4433 31.7354 22.5252 31.6623 22.4805C31.5701 22.4242 31.4746 22.3769 31.3845 22.3154C31.3365 22.2825 31.2903 22.2467 31.2435 22.2116C31.223 22.1975 31.2034 22.1816 31.1851 22.1641C31.1866 22.157 31.2996 22.2757 31.2403 22.2116C31.1653 22.1306 31.0851 22.0581 31.014 21.9719C30.9978 21.9521 30.9824 21.9315 30.9662 21.9117L30.9505 21.8914C30.9105 21.8359 30.9098 21.8362 30.9483 21.8922C30.9875 21.9053 30.9857 21.954 30.9485 21.8907C30.9353 21.8682 30.9212 21.8463 30.908 21.8237C30.848 21.7269 30.7969 21.6233 30.7553 21.5148C30.7589 21.5116 30.8193 21.7162 30.7731 21.5618C30.7644 21.5326 30.7546 21.5039 30.7461 21.4747C30.7291 21.4167 30.7141 21.358 30.7012 21.2987C30.6885 21.24 30.6819 21.1794 30.669 21.1209C30.6473 21.0223 30.6817 21.1987 30.6778 21.1943C30.6655 21.1805 30.6707 21.095 30.6698 21.0746C30.6639 20.9432 30.6771 20.8157 30.6792 20.6851C30.6808 20.584 30.6718 20.764 30.6699 20.7587C30.6704 20.7284 30.6751 20.6984 30.6839 20.6698C30.6973 20.6009 30.7098 20.5321 30.7261 20.464C30.7449 20.3861 30.7664 20.309 30.7909 20.233C30.8 20.2045 30.8111 20.1765 30.8196 20.1478C30.8507 20.0427 30.758 20.2747 30.8091 20.1799C30.8794 20.0495 30.9317 19.9084 31.0064 19.7796C31.024 19.7491 31.1315 19.579 31.0745 19.6649C31.0177 19.7504 31.1329 19.5883 31.1547 19.5608C31.2453 19.4464 31.3518 19.3525 31.4457 19.2431C31.5012 19.1782 31.4069 19.275 31.4013 19.2795C31.4304 19.256 31.4588 19.2315 31.4883 19.2086C31.5395 19.1685 31.5921 19.1306 31.6459 19.0949C31.7065 19.0547 31.775 19.0247 31.8337 18.9821C31.9031 18.9318 31.7807 19.0042 31.7785 19.0057C31.8102 18.9879 31.8433 18.9736 31.8774 18.963C31.9346 18.94 32.1834 18.8183 32.2356 18.8564C32.2332 18.8546 32.0467 18.8734 32.1975 18.8624C32.2331 18.8598 32.2686 18.8559 32.3043 18.8542C32.3765 18.8508 32.4484 18.8529 32.5205 18.8571C32.716 18.8556 32.9032 18.767 33.0414 18.6103C33.1797 18.4536 33.2579 18.2415 33.2592 18.02C33.255 17.7994 33.1758 17.5892 33.0382 17.4333C32.9006 17.2773 32.7151 17.1876 32.5205 17.1828L32.5205 17.1828Z" fill="#E6E6E6"/>
<path d="M42.862 17.1828C42.2205 17.1783 41.5921 17.3879 41.055 17.7854C40.5179 18.1829 40.096 18.7508 39.8417 19.4183C39.5573 20.0715 39.4695 20.8123 39.5918 21.5275C39.714 22.2426 40.0396 22.8927 40.5187 23.3783C40.969 23.8126 41.5092 24.1103 42.0887 24.2438C42.6682 24.3772 43.2681 24.3419 43.8323 24.1412C44.4093 23.9129 44.9096 23.4874 45.2644 22.9235C45.6192 22.3595 45.8111 21.6848 45.8136 20.9921C45.8393 20.2237 45.6557 19.4649 45.2875 18.819C44.9193 18.173 44.3845 17.6712 43.7558 17.3819C43.5669 17.3237 43.3654 17.3526 43.1952 17.4621C43.025 17.5716 42.8999 17.7529 42.8472 17.9666C42.8006 18.1804 42.8281 18.4064 42.9241 18.5979C43.0201 18.7895 43.1772 18.9321 43.3631 18.9963C43.4918 19.0527 43.2455 18.9246 43.3657 18.9988C43.4151 19.0293 43.4655 19.0569 43.514 19.0895C43.5553 19.1172 43.5948 19.1475 43.6349 19.1772C43.7728 19.2792 43.5676 19.1023 43.6557 19.194C43.7322 19.2735 43.8079 19.3511 43.8774 19.4388C43.9036 19.472 44.0065 19.5642 43.9266 19.4998C43.8654 19.4505 43.903 19.4621 43.9265 19.5017C43.9444 19.5317 43.9634 19.561 43.981 19.5912C44.0386 19.69 44.091 19.7925 44.1378 19.8983C44.1487 19.9228 44.1586 19.9479 44.1696 19.9723C44.1903 20.0179 44.2203 20.0299 44.1717 19.9727C44.1252 19.918 44.1548 19.9218 44.1714 19.9744C44.1823 20.0089 44.1943 20.043 44.2049 20.0777C44.2396 20.1907 44.2686 20.3057 44.292 20.4222C44.3028 20.4761 44.3115 20.5303 44.3208 20.5845C44.3538 20.7768 44.316 20.465 44.324 20.6078C44.3307 20.7271 44.3384 20.845 44.3366 20.9647C44.3358 21.0195 44.3337 21.0742 44.3303 21.1289C44.3286 21.1561 44.3259 21.1833 44.3243 21.2106C44.3167 21.3419 44.3164 21.1626 44.3326 21.1503C44.2989 21.2618 44.2765 21.3773 44.2659 21.4946C44.2527 21.5467 44.2369 21.5976 44.2222 21.6491C44.1708 21.8287 44.2705 21.5511 44.2157 21.6739C44.1706 21.7794 44.1202 21.8818 44.0648 21.9807C44.0407 22.0221 43.95 22.1157 44.0242 22.0506C44.1047 21.9799 43.982 22.1016 43.9558 22.1329C43.9221 22.1731 43.8872 22.2119 43.851 22.2493C43.8278 22.275 43.8034 22.2991 43.7777 22.3215C43.773 22.3188 43.9012 22.2245 43.8321 22.2744C43.7443 22.3379 43.6612 22.4058 43.5687 22.461C43.558 22.4674 43.4397 22.5295 43.4402 22.5317C43.4351 22.5091 43.5922 22.469 43.4844 22.5085C43.4617 22.5168 43.4395 22.5268 43.4169 22.5354C43.3187 22.5729 43.2185 22.6032 43.1169 22.626C43.0936 22.6313 43.069 22.6339 43.0461 22.6407C42.9697 22.663 43.119 22.6275 43.1235 22.6305C43.0671 22.6277 43.0106 22.6334 42.9554 22.6473C42.8506 22.6541 42.7455 22.6541 42.6407 22.6473C42.6165 22.6457 42.5923 22.643 42.568 22.6414C42.5118 22.6377 42.4705 22.5917 42.5454 22.6416C42.6031 22.6801 42.5983 22.652 42.5471 22.6413C42.5232 22.6363 42.4991 22.6321 42.4752 22.627C42.3715 22.605 42.2689 22.5765 42.1679 22.5417C42.1136 22.5229 42.0603 22.5011 42.0068 22.4799C41.9834 22.4722 41.9607 22.4623 41.9388 22.4502C41.9385 22.4433 42.0769 22.5252 42.0038 22.4805C41.9116 22.4242 41.8161 22.3769 41.726 22.3154C41.678 22.2825 41.6318 22.2467 41.585 22.2116C41.5645 22.1975 41.5449 22.1816 41.5266 22.1641C41.5281 22.157 41.6411 22.2757 41.5818 22.2116C41.5068 22.1306 41.4266 22.0581 41.3555 21.9719C41.3393 21.9521 41.3239 21.9315 41.3077 21.9117L41.292 21.8914C41.252 21.8359 41.2513 21.8362 41.2898 21.8922C41.329 21.9053 41.3272 21.954 41.29 21.8907C41.2768 21.8682 41.2627 21.8463 41.2495 21.8237C41.1895 21.7269 41.1384 21.6233 41.0968 21.5148C41.1004 21.5116 41.1608 21.7162 41.1146 21.5618C41.1059 21.5326 41.0961 21.5039 41.0876 21.4747C41.0706 21.4167 41.0556 21.358 41.0427 21.2987C41.03 21.24 41.0234 21.1794 41.0105 21.1209C40.9888 21.0223 41.0232 21.1987 41.0193 21.1943C41.007 21.1805 41.0122 21.095 41.0113 21.0746C41.0054 20.9432 41.0186 20.8157 41.0207 20.6851C41.0223 20.584 41.0133 20.764 41.0114 20.7587C41.0119 20.7284 41.0166 20.6984 41.0254 20.6698C41.0388 20.6009 41.0513 20.5321 41.0676 20.464C41.0864 20.3861 41.1079 20.309 41.1324 20.233C41.1415 20.2045 41.1526 20.1765 41.1611 20.1478C41.1922 20.0427 41.0995 20.2747 41.1506 20.1799C41.2209 20.0495 41.2732 19.9084 41.3479 19.7796C41.3655 19.7491 41.473 19.579 41.416 19.6649C41.3592 19.7504 41.4744 19.5883 41.4962 19.5608C41.5868 19.4464 41.6933 19.3525 41.7872 19.2431C41.8427 19.1782 41.7484 19.275 41.7428 19.2795C41.7719 19.256 41.8003 19.2315 41.8298 19.2086C41.881 19.1685 41.9336 19.1306 41.9874 19.0949C42.048 19.0547 42.1165 19.0247 42.1752 18.9821C42.2446 18.9318 42.1222 19.0042 42.12 19.0057C42.1517 18.9879 42.1848 18.9736 42.2189 18.963C42.2761 18.94 42.5249 18.8183 42.5771 18.8564C42.5747 18.8546 42.3882 18.8734 42.539 18.8624C42.5746 18.8598 42.6101 18.8559 42.6458 18.8542C42.718 18.8508 42.7899 18.8529 42.862 18.8571C43.0575 18.8556 43.2447 18.767 43.3829 18.6103C43.5212 18.4536 43.5994 18.2415 43.6007 18.02C43.5965 17.7994 43.5173 17.5892 43.3797 17.4333C43.2421 17.2773 43.0566 17.1876 42.862 17.1828L42.862 17.1828Z" fill="#E6E6E6"/>
<path d="M192.259 202.586H11.0831C8.79212 202.583 6.59569 201.551 4.97569 199.715C3.3557 197.879 2.44444 195.39 2.44186 192.794V9.79299C2.44443 7.19662 3.35567 4.70743 4.97566 2.87151C6.59565 1.0356 8.7921 0.00291146 11.0831 0H192.259C194.55 0.00291146 196.746 1.0356 198.366 2.87151C199.986 4.70743 200.898 7.19662 200.9 9.79299V192.794C200.898 195.39 199.986 197.879 198.366 199.715C196.746 201.551 194.55 202.583 192.259 202.586ZM11.0831 1.11618C9.05323 1.1188 7.10715 2.0338 5.67181 3.66045C4.23647 5.2871 3.42908 7.49256 3.42677 9.79299V192.794C3.42913 195.094 4.23655 197.299 5.67188 198.926C7.10722 200.552 9.05327 201.467 11.0831 201.47H192.259C194.289 201.467 196.235 200.552 197.67 198.926C199.105 197.299 199.913 195.094 199.915 192.794V9.79299C199.913 7.49256 199.106 5.2871 197.67 3.66045C196.235 2.0338 194.289 1.1188 192.259 1.11618H11.0831Z" fill="#E6E6E6"/>
<path d="M10.7829 124.513L74.496 124.293L137.884 124.075L173.641 123.951C173.833 123.944 174.014 123.852 174.147 123.696C174.28 123.54 174.355 123.331 174.355 123.114C174.355 122.897 174.28 122.689 174.147 122.532C174.014 122.376 173.833 122.285 173.641 122.277L109.928 122.497L46.5403 122.715L10.7829 122.839C10.5914 122.846 10.41 122.938 10.2769 123.094C10.1438 123.25 10.0694 123.459 10.0694 123.676C10.0694 123.893 10.1438 124.102 10.2769 124.258C10.41 124.414 10.5914 124.505 10.7829 124.513Z" fill="#E6E6E6"/>
<path d="M42.9251 123.156L43.3191 96.7932C43.3352 95.7154 41.8579 95.7152 41.8418 96.7932L41.4478 123.156C41.4317 124.233 42.909 124.234 42.9251 123.156Z" fill="#E6E6E6"/>
<path d="M73.3761 123.441L74.3362 90.3046L74.6105 80.8371C74.6417 79.7594 73.1643 79.7607 73.1331 80.8371L72.173 113.973L71.8987 123.441C71.8675 124.518 73.3449 124.517 73.3761 123.441Z" fill="#E6E6E6"/>
<path d="M103.745 65.1297C103.166 76.8664 102.094 111.485 101.515 123.221C101.462 124.298 102.94 124.294 102.992 123.221C103.572 111.485 104.643 76.8663 105.222 65.1297C105.275 64.0532 103.798 64.0566 103.745 65.1297Z" fill="#E6E6E6"/>
<path d="M133.967 111.444L133.786 122.725C133.769 123.803 135.246 123.803 135.264 122.725C135.478 109.402 136.026 109.836 136.086 106.076C136.104 104.998 134.626 104.998 134.609 106.076C134.609 106.076 134.181 98.121 133.967 111.444Z" fill="#E6E6E6"/>
<path d="M163.57 81.8095L163.737 113.458L163.785 122.52C163.791 122.737 163.872 122.943 164.01 123.094C164.148 123.245 164.332 123.329 164.523 123.329C164.715 123.329 164.899 123.245 165.037 123.094C165.175 122.943 165.255 122.737 165.262 122.52L165.095 90.8718L165.047 81.8095C165.04 81.5925 164.96 81.3869 164.822 81.236C164.684 81.0852 164.5 81.0009 164.308 81.0009C164.117 81.0009 163.933 81.0852 163.795 81.236C163.657 81.3869 163.576 81.5925 163.57 81.8095Z" fill="#E6E6E6"/>
<path d="M10.9017 123.571C9.67886 119.763 12.4355 116.1 15.268 114.454C18.6614 112.482 22.5652 112.035 25.9947 110.134C31.1075 107.3 34.8315 102.214 38.1451 97.1229C41.5557 91.8829 44.6764 86.259 49.0102 81.9052C51.2939 79.5598 53.9911 77.7909 56.9232 76.7154C60.6178 75.4088 64.536 75.3192 68.3535 75.8457C76.2419 76.9339 83.5545 80.6263 91.1658 82.973C98.3419 85.1856 106.248 86.4298 113.292 82.9892C116.871 81.2411 119.797 78.3092 122.94 75.7721C125.982 73.291 129.383 71.4316 132.99 70.278C140.061 68.0498 147.783 68.6447 154.365 72.4115C160.416 75.8295 165.207 81.5601 167.893 88.5919C171.014 97.0405 170.607 106.482 169.588 115.375C169.324 117.673 169.011 119.964 168.694 122.254C168.548 123.308 169.971 123.762 170.118 122.699C171.388 113.529 172.653 104.069 171.074 94.8414C169.708 86.784 165.799 79.5667 160.077 74.54C154.331 69.4996 147.188 66.9448 139.93 67.3343C136.127 67.5343 132.382 68.4781 128.863 70.1238C125.209 71.8365 122.115 74.3751 118.972 77.0462C115.741 79.7926 112.41 82.0642 108.399 82.9599C104.508 83.8287 100.46 83.5031 96.5858 82.6828C88.5921 80.9902 81.1412 77.1102 73.2154 75.1221C65.8721 73.2802 57.9481 73.0962 51.3724 77.7976C46.3142 81.414 42.7401 87.0283 39.3099 92.4496C35.9098 97.8234 32.4668 103.57 27.495 107.241C24.4621 109.48 21.0528 110.306 17.66 111.565C14.2585 112.828 10.993 114.958 9.60609 118.907C9.00834 120.534 8.96241 122.354 9.47714 124.016C9.7997 125.021 11.2279 124.587 10.9017 123.571V123.571Z" fill="#E6E6E6"/>
<path d="M42.4353 93.1478L42.4331 93.1493L42.4376 93.1478H42.4353Z" fill="#E6E6E6"/>
<path d="M44.9966 91.6078C44.6552 90.9225 44.1104 90.3966 43.4592 90.1235C42.808 89.8503 42.0924 89.8476 41.4395 90.1158C41.115 90.2501 40.8176 90.4567 40.5647 90.7235C40.3119 90.9903 40.1088 91.3118 39.9676 91.6691C39.9393 91.745 39.9228 91.8249 39.8997 91.9026C39.8677 91.9613 39.8292 92.0143 39.8005 92.0756C39.4943 92.7671 39.4105 93.5579 39.5634 94.3119C39.7164 95.0659 40.0966 95.7358 40.6385 96.2063C41.1804 96.6768 41.8501 96.9184 42.5323 96.8895C43.2144 96.8606 43.8664 96.5631 44.3758 96.0481C44.9112 95.4996 45.2648 94.7599 45.3777 93.9521C45.4906 93.1443 45.3562 92.317 44.9966 91.6078ZM43.1463 93.0296C43.1524 93.0719 43.1502 93.1107 43.1463 93.0296V93.0296ZM42.9583 92.5449C42.951 92.5355 42.9519 92.5365 42.9583 92.5449V92.5449ZM42.1293 92.9227C42.1182 92.9034 42.1171 92.9001 42.1293 92.9227V92.9227ZM42.3258 93.1115C42.3726 93.1296 42.3541 93.1258 42.3258 93.1115V93.1115ZM42.4135 93.1589L42.433 93.1488C42.4282 93.1493 42.4234 93.1482 42.4192 93.1457L42.4198 93.1456L42.435 93.1477L42.4379 93.1463L42.4291 93.1439C42.4367 93.1436 42.4376 93.1448 42.4381 93.1462C42.526 93.1006 42.4665 93.1225 42.4155 93.1404L42.4121 93.1395C42.3803 93.1212 42.3461 93.1088 42.3108 93.1027C42.3076 93.1006 42.3037 93.0991 42.301 93.0969C42.2727 93.0741 42.1297 92.9475 42.2623 93.0802C42.2335 93.0513 42.205 93.0229 42.1778 92.9918C42.1618 92.9731 42.1473 92.9529 42.1345 92.9314C42.1171 92.8976 42.1002 92.8635 42.0839 92.829L42.0814 92.8105C42.0792 92.795 42.0776 92.7886 42.0758 92.7794C42.0767 92.7698 42.078 92.7595 42.0793 92.7495C42.0892 92.7194 42.0955 92.688 42.0981 92.656L42.1038 92.6478C42.125 92.6142 42.1436 92.5751 42.1639 92.5402C42.0568 92.7245 42.2057 92.5199 42.2168 92.494C42.2187 92.4895 42.2154 92.492 42.2162 92.4889C42.2206 92.4862 42.2193 92.488 42.2245 92.4846C42.2577 92.4624 42.2891 92.4377 42.3228 92.4166C42.3629 92.3914 42.521 92.3405 42.3571 92.3936C42.3943 92.3816 42.43 92.3663 42.4677 92.3552C42.4745 92.3532 42.5297 92.3444 42.5594 92.3384C42.5855 92.3376 42.6108 92.3367 42.6135 92.3368C42.6258 92.3369 42.638 92.3386 42.6503 92.3393C42.6231 92.3434 42.7437 92.3729 42.7795 92.3791C42.7846 92.3837 42.7873 92.3867 42.7943 92.3925C42.8246 92.4176 42.8614 92.4399 42.8933 92.4633C42.7505 92.3586 42.8952 92.4716 42.9225 92.5025C42.9388 92.521 42.9538 92.5407 42.9692 92.5602C42.9833 92.5787 42.996 92.5985 43.0073 92.6193C43.0307 92.668 43.0556 92.7172 43.0802 92.7651L43.087 92.7773C43.0869 92.7789 43.0868 92.7805 43.0868 92.7821C43.0996 92.8597 43.1186 92.9359 43.1434 93.0096C43.1446 93.0159 43.1455 93.0222 43.1462 93.0286C43.1485 93.0711 43.1516 93.1135 43.1517 93.1562L43.1513 93.1648C43.0376 93.0976 42.9113 93.062 42.7831 93.061C42.6548 93.06 42.5281 93.0935 42.4135 93.1589H42.4135Z" fill="#E6E6E6"/>
<path d="M42.4398 93.1467C42.4425 93.1478 42.4399 93.1477 42.4393 93.148L42.4398 93.1467Z" fill="#E6E6E6"/>
<path d="M42.4391 93.1466L42.4402 93.1469L42.4391 93.1466Z" fill="#E6E6E6"/>
<path d="M42.4394 93.1476L42.437 93.1481C42.44 93.1485 42.4389 93.1478 42.4394 93.1476Z" fill="#E6E6E6"/>
<path d="M42.4381 93.1461L42.4401 93.1471L42.4381 93.1461Z" fill="#E6E6E6"/>
<path d="M73.9523 77.5214L73.9501 77.5229L73.9545 77.5214H73.9523Z" fill="#E6E6E6"/>
<path d="M76.5135 75.9813C76.1721 75.2961 75.6274 74.7702 74.9761 74.497C74.3249 74.2239 73.6093 74.2212 72.9565 74.4894C72.632 74.6236 72.3345 74.8302 72.0817 75.097C71.8288 75.3638 71.6258 75.6853 71.4845 76.0426C71.4562 76.1185 71.4397 76.1984 71.4166 76.2762C71.3846 76.3348 71.3461 76.3878 71.3175 76.4492C71.0113 77.1406 70.9274 77.9314 71.0804 78.6854C71.2333 79.4394 71.6135 80.1093 72.1554 80.5798C72.6973 81.0503 73.367 81.2919 74.0492 81.2631C74.7314 81.2342 75.3833 80.9366 75.8927 80.4216C76.4281 79.8731 76.7817 79.1335 76.8946 78.3256C77.0076 77.5178 76.8731 76.6905 76.5135 75.9813ZM74.6633 77.4031C74.6693 77.4454 74.6671 77.4842 74.6633 77.4031V77.4031ZM74.4752 76.9185C74.468 76.909 74.4689 76.9101 74.4752 76.9185V76.9185ZM73.6462 77.2962C73.6351 77.2769 73.6341 77.2736 73.6462 77.2962V77.2962ZM73.8427 77.485C73.8895 77.5031 73.871 77.4993 73.8427 77.485V77.485ZM73.9305 77.5324L73.9499 77.5223C73.9451 77.5228 73.9403 77.5217 73.9361 77.5192L73.9367 77.5191L73.9519 77.5213L73.9548 77.5198L73.946 77.5175C73.9536 77.5172 73.9545 77.5184 73.955 77.5197C74.0429 77.4741 73.9834 77.496 73.9324 77.5139L73.929 77.513C73.8972 77.4947 73.863 77.4823 73.8277 77.4762C73.8245 77.4741 73.8206 77.4726 73.8179 77.4704C73.7896 77.4476 73.6466 77.321 73.7793 77.4537C73.7504 77.4248 73.7219 77.3965 73.6947 77.3653C73.6787 77.3467 73.6642 77.3265 73.6514 77.3049C73.634 77.2711 73.6171 77.237 73.6008 77.2026L73.5983 77.184C73.5962 77.1686 73.5945 77.1622 73.5927 77.1529C73.5936 77.1433 73.5949 77.133 73.5963 77.1231C73.6062 77.093 73.6125 77.0615 73.615 77.0295L73.6207 77.0213C73.6419 76.9878 73.6605 76.9486 73.6808 76.9138C73.5737 77.098 73.7226 76.8934 73.7338 76.8675C73.7357 76.8631 73.7324 76.8655 73.7332 76.8624C73.7375 76.8597 73.7362 76.8616 73.7414 76.8581C73.7746 76.8359 73.806 76.8113 73.8397 76.7901C73.8798 76.7649 74.0379 76.714 73.874 76.7671C73.9112 76.7551 73.947 76.7399 73.9846 76.7287C73.9914 76.7267 74.0466 76.718 74.0763 76.7119C74.1024 76.7111 74.1278 76.7103 74.1304 76.7103C74.1427 76.7105 74.1549 76.7122 74.1672 76.7128C74.14 76.7169 74.2606 76.7464 74.2964 76.7527C74.3015 76.7573 74.3042 76.7602 74.3112 76.7661C74.3415 76.7911 74.3783 76.8134 74.4103 76.8368C74.2674 76.7322 74.4121 76.8451 74.4394 76.876C74.4557 76.8945 74.4708 76.9143 74.4861 76.9337C74.5002 76.9522 74.5129 76.972 74.5242 76.9929C74.5476 77.0415 74.5725 77.0907 74.5971 77.1386L74.6039 77.1509C74.6038 77.1524 74.6037 77.154 74.6037 77.1556C74.6166 77.2332 74.6355 77.3094 74.6603 77.3832C74.6615 77.3894 74.6624 77.3957 74.6631 77.4021C74.6654 77.4446 74.6685 77.487 74.6686 77.5297L74.6683 77.5384C74.5545 77.4712 74.4283 77.4356 74.3 77.4345C74.1717 77.4335 74.045 77.467 73.9305 77.5324Z" fill="#E6E6E6"/>
<path d="M73.9563 77.5211L73.954 77.5216C73.9569 77.522 73.9559 77.5213 73.9563 77.5211Z" fill="#E6E6E6"/>
<path d="M73.955 77.5197L73.957 77.5207L73.955 77.5197Z" fill="#E6E6E6"/>
<path d="M73.9567 77.5203C73.9594 77.5214 73.9568 77.5212 73.9562 77.5215L73.9567 77.5203Z" fill="#E6E6E6"/>
<path d="M73.9561 77.5201L73.9572 77.5205L73.9561 77.5201Z" fill="#E6E6E6"/>
<path d="M104.487 85.3329L104.489 85.3339L104.487 85.3329Z" fill="#E6E6E6"/>
<path d="M107.046 60.3547C106.704 59.6695 106.159 59.1436 105.508 58.8704C104.857 58.5973 104.141 58.5946 103.489 58.8628C103.164 58.997 102.867 59.2036 102.614 59.4704C102.361 59.7372 102.158 60.0588 102.017 60.416C101.988 60.492 101.972 60.5718 101.949 60.6496C101.917 60.7083 101.878 60.7612 101.85 60.8226C101.543 61.514 101.459 62.3049 101.612 63.0588C101.765 63.8128 102.146 64.4828 102.687 64.9533C103.229 65.4238 103.899 65.6654 104.581 65.6365C105.263 65.6076 105.915 65.31 106.425 64.795C106.96 64.2465 107.314 63.5069 107.427 62.6991C107.54 61.8912 107.405 61.0639 107.046 60.3547ZM105.195 61.7765C105.201 61.8188 105.199 61.8576 105.195 61.7765V61.7765ZM105.007 61.2919C105 61.2825 105.001 61.2835 105.007 61.2919V61.2919ZM104.178 61.6696C104.167 61.6503 104.166 61.6471 104.178 61.6696V61.6696ZM104.375 61.8584C104.422 61.8765 104.403 61.8727 104.375 61.8584V61.8584ZM104.463 61.9058L104.482 61.8957C104.477 61.8962 104.472 61.8952 104.468 61.8926L104.469 61.8925L104.484 61.8947L104.487 61.8932L104.478 61.8909C104.486 61.8906 104.487 61.8918 104.487 61.8931C104.575 61.8475 104.515 61.8695 104.464 61.8873L104.461 61.8864C104.429 61.8681 104.395 61.8557 104.36 61.8496C104.357 61.8475 104.353 61.846 104.35 61.8438C104.322 61.821 104.179 61.6945 104.311 61.8271C104.282 61.7983 104.254 61.7699 104.227 61.7387C104.211 61.7201 104.196 61.6999 104.183 61.6784C104.166 61.6445 104.149 61.6104 104.133 61.576L104.13 61.5574C104.128 61.542 104.127 61.5356 104.125 61.5263C104.126 61.5168 104.127 61.5065 104.128 61.4965C104.138 61.4664 104.145 61.4349 104.147 61.4029L104.153 61.3947C104.174 61.3612 104.193 61.3221 104.213 61.2872C104.106 61.4715 104.255 61.2668 104.266 61.2409C104.268 61.2365 104.264 61.2389 104.265 61.2358C104.27 61.2331 104.268 61.235 104.273 61.2315C104.307 61.2094 104.338 61.1847 104.372 61.1635C104.412 61.1383 104.57 61.0875 104.406 61.1406C104.443 61.1285 104.479 61.1133 104.517 61.1021C104.523 61.1001 104.579 61.0914 104.608 61.0853C104.634 61.0846 104.66 61.0837 104.662 61.0837C104.675 61.0839 104.687 61.0856 104.699 61.0862C104.672 61.0903 104.793 61.1199 104.828 61.1261C104.834 61.1307 104.836 61.1336 104.843 61.1395C104.874 61.1645 104.91 61.1868 104.942 61.2102C104.799 61.1056 104.944 61.2185 104.971 61.2495C104.988 61.268 105.003 61.2877 105.018 61.3071C105.032 61.3257 105.045 61.3454 105.056 61.3663C105.08 61.4149 105.105 61.4641 105.129 61.512L105.136 61.5243C105.136 61.5259 105.136 61.5275 105.136 61.529C105.149 61.6067 105.168 61.6828 105.192 61.7566C105.194 61.7628 105.195 61.7692 105.195 61.7755C105.197 61.818 105.201 61.8604 105.201 61.9032L105.2 61.9118C105.087 61.8446 104.96 61.809 104.832 61.8079C104.704 61.8069 104.577 61.8405 104.463 61.9058Z" fill="#E6E6E6"/>
<path d="M104.484 85.3346L104.482 85.3361L104.487 85.3346H104.484Z" fill="#E6E6E6"/>
<path d="M104.488 85.3334L104.489 85.3337L104.488 85.3334Z" fill="#E6E6E6"/>
<path d="M104.488 85.3344L104.486 85.3349C104.489 85.3353 104.488 85.3346 104.488 85.3344Z" fill="#E6E6E6"/>
<path d="M104.489 85.3335C104.491 85.3346 104.489 85.3344 104.488 85.3348L104.489 85.3335Z" fill="#E6E6E6"/>
<path d="M138.07 103.328C137.729 102.642 137.184 102.116 136.533 101.843C135.881 101.57 135.166 101.567 134.513 101.836C134.188 101.97 133.891 102.177 133.638 102.443C133.385 102.71 133.182 103.032 133.041 103.389C133.013 103.465 132.996 103.545 132.973 103.622C132.941 103.681 132.903 103.734 132.874 103.795C132.568 104.487 132.484 105.278 132.637 106.032C132.79 106.786 133.17 107.456 133.712 107.926C134.254 108.397 134.924 108.638 135.606 108.609C136.288 108.58 136.94 108.283 137.449 107.768C137.985 107.219 138.338 106.48 138.451 105.672C138.564 104.864 138.43 104.037 138.07 103.328ZM136.22 104.749C136.226 104.792 136.224 104.831 136.22 104.749V104.749ZM136.032 104.265C136.024 104.255 136.025 104.256 136.032 104.265V104.265ZM135.203 104.643C135.192 104.623 135.191 104.62 135.203 104.643V104.643ZM135.399 104.831C135.446 104.849 135.428 104.846 135.399 104.831V104.831ZM135.487 104.879L135.506 104.869C135.502 104.869 135.497 104.868 135.493 104.866L135.493 104.865L135.508 104.868L135.511 104.866L135.502 104.864C135.51 104.863 135.511 104.865 135.512 104.866C135.599 104.82 135.54 104.842 135.489 104.86L135.486 104.859C135.454 104.841 135.42 104.829 135.384 104.823C135.381 104.82 135.377 104.819 135.374 104.817C135.346 104.794 135.203 104.667 135.336 104.8C135.307 104.771 135.278 104.743 135.251 104.712C135.235 104.693 135.221 104.673 135.208 104.651C135.191 104.617 135.174 104.583 135.157 104.549L135.155 104.53C135.153 104.515 135.151 104.508 135.149 104.499C135.15 104.49 135.151 104.479 135.153 104.469C135.163 104.439 135.169 104.408 135.172 104.376L135.177 104.368C135.198 104.334 135.217 104.295 135.237 104.26C135.13 104.444 135.279 104.24 135.29 104.214C135.292 104.209 135.289 104.212 135.29 104.209C135.294 104.206 135.293 104.208 135.298 104.204C135.331 104.182 135.363 104.158 135.396 104.136C135.436 104.111 135.594 104.06 135.431 104.113C135.468 104.101 135.503 104.086 135.541 104.075C135.548 104.073 135.603 104.064 135.633 104.058C135.659 104.057 135.684 104.057 135.687 104.057C135.699 104.057 135.711 104.058 135.724 104.059C135.697 104.063 135.817 104.093 135.853 104.099C135.858 104.104 135.861 104.107 135.868 104.112C135.898 104.137 135.935 104.16 135.967 104.183C135.824 104.078 135.969 104.191 135.996 104.222C136.012 104.241 136.027 104.261 136.043 104.28C136.057 104.299 136.069 104.318 136.081 104.339C136.104 104.388 136.129 104.437 136.154 104.485L136.16 104.497C136.16 104.499 136.16 104.5 136.16 104.502C136.173 104.58 136.192 104.656 136.217 104.729C136.218 104.736 136.219 104.742 136.22 104.748C136.222 104.791 136.225 104.833 136.225 104.876L136.225 104.885C136.111 104.817 135.985 104.782 135.857 104.781C135.728 104.78 135.602 104.813 135.487 104.879Z" fill="#E6E6E6"/>
<path d="M135.509 68.0338L135.507 68.0353L135.511 68.0338H135.509Z" fill="#E6E6E6"/>
<path d="M135.513 68.0326L135.514 68.0329L135.513 68.0326Z" fill="#E6E6E6"/>
<path d="M135.513 68.0336L135.511 68.0341C135.513 68.0345 135.512 68.0338 135.513 68.0336Z" fill="#E6E6E6"/>
<path d="M135.513 68.0327C135.516 68.0338 135.513 68.0337 135.513 68.034L135.513 68.0327Z" fill="#E6E6E6"/>
<path d="M135.512 68.0321L135.514 68.0331L135.512 68.0321Z" fill="#E6E6E6"/>
<path d="M164.567 79.1943L164.568 79.1947L164.567 79.1943Z" fill="#E6E6E6"/>
<path d="M167.125 77.6555C166.783 76.9703 166.239 76.4444 165.587 76.1712C164.936 75.8981 164.221 75.8953 163.568 76.1636C163.243 76.2978 162.946 76.5044 162.693 76.7712C162.44 77.038 162.237 77.3595 162.096 77.7168C162.067 77.7927 162.051 77.8726 162.028 77.9504C161.996 78.009 161.957 78.062 161.929 78.1233C161.622 78.8148 161.539 79.6056 161.692 80.3596C161.845 81.1136 162.225 81.7835 162.767 82.254C163.309 82.7245 163.978 82.9661 164.66 82.9373C165.343 82.9084 165.995 82.6108 166.504 82.0958C167.039 81.5473 167.393 80.8077 167.506 79.9998C167.619 79.192 167.484 78.3647 167.125 77.6555ZM165.274 79.0773C165.281 79.1196 165.278 79.1584 165.274 79.0773V79.0773ZM165.086 78.5927C165.079 78.5832 165.08 78.5843 165.086 78.5927V78.5927ZM164.257 78.9704C164.246 78.9511 164.245 78.9478 164.257 78.9704V78.9704ZM164.454 79.1592C164.501 79.1773 164.482 79.1735 164.454 79.1592V79.1592ZM164.542 79.2066L164.561 79.1965C164.556 79.197 164.552 79.1959 164.547 79.1934L164.548 79.1933L164.563 79.1954L164.566 79.194L164.557 79.1917C164.565 79.1914 164.566 79.1926 164.566 79.1939C164.654 79.1483 164.595 79.1702 164.544 79.1881L164.54 79.1872C164.508 79.1689 164.474 79.1565 164.439 79.1504C164.436 79.1483 164.432 79.1468 164.429 79.1446C164.401 79.1218 164.258 78.9952 164.39 79.1279C164.362 79.099 164.333 79.0707 164.306 79.0395C164.29 79.0209 164.275 79.0007 164.263 78.9791C164.245 78.9453 164.228 78.9112 164.212 78.8768L164.21 78.8582C164.207 78.8428 164.206 78.8364 164.204 78.8271C164.205 78.8175 164.206 78.8072 164.207 78.7973C164.217 78.7672 164.224 78.7357 164.226 78.7037L164.232 78.6955C164.253 78.662 164.272 78.6228 164.292 78.588C164.185 78.7722 164.334 78.5676 164.345 78.5417C164.347 78.5373 164.344 78.5397 164.344 78.5366C164.349 78.5339 164.347 78.5358 164.353 78.5323C164.386 78.5101 164.417 78.4855 164.451 78.4643C164.491 78.4391 164.649 78.3882 164.485 78.4413C164.522 78.4293 164.558 78.4141 164.596 78.4029C164.603 78.4009 164.658 78.3922 164.688 78.3861C164.714 78.3853 164.739 78.3845 164.742 78.3845C164.754 78.3847 164.766 78.3864 164.778 78.387C164.751 78.3911 164.872 78.4206 164.908 78.4269C164.913 78.4315 164.915 78.4344 164.922 78.4403C164.953 78.4653 164.99 78.4876 165.021 78.511C164.879 78.4064 165.023 78.5193 165.051 78.5502C165.067 78.5687 165.082 78.5885 165.097 78.6079C165.111 78.6264 165.124 78.6462 165.135 78.6671C165.159 78.7157 165.184 78.7649 165.208 78.8128L165.215 78.8251C165.215 78.8266 165.215 78.8282 165.215 78.8298C165.228 78.9074 165.247 78.9836 165.272 79.0574C165.273 79.0636 165.274 79.0699 165.274 79.0763C165.277 79.1188 165.28 79.1612 165.28 79.2039L165.279 79.2126C165.166 79.1454 165.039 79.1098 164.911 79.1087C164.783 79.1077 164.656 79.1412 164.542 79.2066Z" fill="#E6E6E6"/>
<path d="M164.563 79.1956L164.561 79.1971L164.566 79.1956H164.563Z" fill="#E6E6E6"/>
<path d="M164.566 79.194L164.568 79.195L164.566 79.194Z" fill="#E6E6E6"/>
<path d="M164.568 79.1946C164.571 79.1957 164.568 79.1955 164.567 79.1958L164.568 79.1946Z" fill="#E6E6E6"/>
<path d="M164.568 79.1954L164.565 79.1959C164.568 79.1964 164.567 79.1957 164.568 79.1954Z" fill="#E6E6E6"/>
<path d="M156.601 104.772L133.704 106.214C133.575 106.222 133.448 106.174 133.349 106.079C133.251 105.984 133.188 105.85 133.174 105.705C133.16 105.559 133.196 105.413 133.274 105.296C133.352 105.18 133.467 105.102 133.595 105.078L156.998 100.762L156.601 104.772Z" fill="#3F3D56"/>
<path d="M185.701 162.543L194.329 146.092L200.707 149.505C200.707 149.505 189.718 165.06 189.368 165.507C189.517 166.263 189.461 167.053 189.206 167.772C188.952 168.492 188.51 169.106 187.941 169.535C187.371 169.963 186.7 170.186 186.016 170.173C185.333 170.16 184.668 169.912 184.112 169.462C183.555 169.012 183.132 168.381 182.899 167.652C182.666 166.924 182.633 166.133 182.805 165.383C182.977 164.633 183.346 163.96 183.863 163.453C184.38 162.946 185.021 162.628 185.701 162.543Z" fill="#FFB6B6"/>
<path d="M189.29 124.328L203.27 132.593C204.143 133.307 204.876 134.219 205.421 135.271C205.966 136.323 206.311 137.493 206.434 138.705C206.557 139.918 206.456 141.146 206.137 142.311C205.818 143.476 205.287 144.553 204.58 145.473L194.942 158.002L190.744 151.554L193.98 143.886L187.714 142.014L189.29 124.328Z" fill="#6C63FF"/>
<path d="M149.452 105.041L147.878 124.096L140.825 124.109C140.825 124.109 144.871 104.718 145.018 104.143C144.597 103.533 144.349 102.792 144.307 102.019C144.265 101.245 144.432 100.476 144.784 99.8116C145.137 99.1477 145.659 98.6207 146.282 98.3004C146.904 97.9801 147.598 97.8815 148.271 98.0177C148.944 98.154 149.565 98.5186 150.051 99.0634C150.538 99.6081 150.867 100.307 150.995 101.069C151.123 101.83 151.044 102.617 150.768 103.326C150.493 104.036 150.034 104.633 149.452 105.041V105.041Z" fill="#FFB6B6"/>
<path d="M163.492 144.007L147.258 140.634C140.422 139.702 137.617 134.605 138.85 129.633L142.82 113.632L149.051 117.418L149.027 125.918L157.75 124.567L163.492 144.007Z" fill="#6C63FF"/>
<path d="M156.847 275.691H152.383L150.26 256.18H156.848L156.847 275.691Z" fill="#FFB6B6"/>
<path d="M157.004 280.969L143.278 280.968V280.771C143.278 279.166 143.841 277.626 144.843 276.49C145.844 275.355 147.203 274.717 148.62 274.717H148.621L151.128 272.561L155.806 274.717L157.004 274.717L157.004 280.969Z" fill="#2F2E41"/>
<path d="M188.43 275.691H192.894L195.017 256.18H188.429L188.43 275.691Z" fill="#FFB6B6"/>
<path d="M188.273 280.969L201.999 280.968V280.771C201.999 279.166 201.436 277.626 200.434 276.49C199.432 275.355 198.073 274.717 196.656 274.717H196.656L194.149 272.561L189.471 274.717L188.272 274.717L188.273 280.969Z" fill="#2F2E41"/>
<path d="M150.063 241.841C150.129 240.728 150.653 234.57 150.653 234.57L151.909 221.513L154.121 186.899L156.094 177.801L165.857 182.111L173.779 177.807L183.195 181.218L190.527 184.334C190.527 184.334 190.54 185.668 190.596 187.28C190.672 189.389 190.803 191.975 191.117 192.647C191.642 193.835 191.51 200.213 191.51 200.213C191.51 200.213 192.031 213.189 192.687 214.612C193.343 216.035 193.475 218.998 193.277 219.592C193.079 220.186 193.933 235.769 193.933 235.769C193.933 235.769 196.124 263.346 194.749 267.504C193.374 271.662 188.18 268.939 188.18 268.939C188.18 268.939 188.431 267.829 186.924 267.306C185.417 266.783 180.829 227.68 180.829 227.68C180.829 227.68 179.975 219.663 179.19 217.365C178.406 215.067 177.684 208.611 177.684 208.611C177.684 208.611 172.838 197.926 172.775 195.55C172.775 195.55 172.141 193.326 171.541 195.774C170.942 198.221 169.175 204.083 169.175 204.083L167.452 211.282L165.424 222.039L164.112 231.095C164.112 231.095 162.147 243.114 161.833 243.634C161.519 244.153 161.833 255.134 161.833 255.134C161.833 255.134 160.314 264.485 158.167 266.118C156.02 267.751 150.332 266.144 150.332 266.144C150.332 266.144 149.997 242.954 150.063 241.841Z" fill="#2F2E41"/>
<path d="M157.362 148.526L156.114 166.841L154.24 169.039C154.071 169.237 153.939 169.472 153.852 169.73C153.765 169.987 153.725 170.262 153.733 170.537C153.742 170.813 153.8 171.083 153.903 171.333C154.007 171.582 154.153 171.805 154.335 171.989L153.302 173.996L152.936 180.319C152.832 180.811 152.825 181.323 152.915 181.819C153.006 182.314 153.192 182.781 153.46 183.186C153.728 183.59 154.072 183.923 154.466 184.16C154.861 184.396 155.297 184.531 155.743 184.555L188.063 186.276C188.507 186.3 188.95 186.212 189.36 186.021C189.771 185.829 190.139 185.538 190.439 185.167C190.74 184.797 190.965 184.356 191.098 183.876C191.232 183.396 191.27 182.889 191.212 182.39L188.464 158.943V157.19L187.233 153.804L187.866 142.461L189.337 124.458L180.786 121.955L176.151 118.34L168.097 118.486L163.21 123.034L156.694 124.191L151.766 125.301L151.138 126.847L152.394 126.537L156.944 146.652L157.362 148.526Z" fill="#6C63FF"/>
<path d="M171.944 115.886C177.183 115.886 181.431 111.072 181.431 105.134C181.431 99.1956 177.183 94.3817 171.944 94.3817C166.704 94.3817 162.456 99.1956 162.456 105.134C162.456 111.072 166.704 115.886 171.944 115.886Z" fill="#FFB6B6"/>
<path d="M169.656 115.192L176.511 114.796C177.389 114.745 178.348 114.657 178.987 113.972C179.33 113.549 179.595 113.052 179.764 112.51C180.397 110.841 181.031 109.173 181.649 107.497C182.503 105.179 183.342 102.731 183.124 100.231C183.073 99.0893 182.65 98.0095 181.938 97.2001C181.574 96.81 181.107 96.5674 180.609 96.5103C180.111 96.4531 179.61 96.5845 179.185 96.8839C179.079 96.0932 178.816 95.34 178.416 94.6813C178.016 94.0226 177.489 93.4757 176.874 93.082C175.634 92.3053 174.217 91.965 172.805 92.1044C170.757 92.254 168.801 93.1276 167.213 94.6023C166.766 95.0692 166.29 95.4975 165.786 95.8835C165.533 96.0753 165.248 96.2066 164.949 96.2694C164.65 96.3321 164.342 96.3251 164.045 96.2486C163.751 96.1595 163.495 95.9528 163.325 95.6667C163.155 95.3806 163.082 95.0343 163.12 94.692C162.637 95.1011 162.306 95.6993 162.192 96.37C162.077 97.0406 162.187 97.7357 162.5 98.3195C162.144 98.4884 161.756 98.5502 161.373 98.4988C160.989 98.4475 160.625 98.2847 160.313 98.0263C159.98 98.2138 159.685 98.4782 159.447 98.8025C159.209 99.1267 159.033 99.5038 158.931 99.9095C158.829 100.315 158.803 100.74 158.854 101.158C158.905 101.576 159.033 101.977 159.229 102.336C159.425 102.694 159.685 103.003 159.992 103.241C160.3 103.479 160.647 103.642 161.013 103.719C161.379 103.796 161.755 103.785 162.118 103.688C162.48 103.591 162.82 103.409 163.117 103.154C163.533 103.815 163.378 104.712 163.324 105.521C163.269 106.33 163.461 107.336 164.149 107.559C165.08 107.862 165.833 106.442 166.801 106.457C167.04 106.479 167.27 106.567 167.472 106.714C167.673 106.861 167.839 107.063 167.955 107.3C168.183 107.777 168.34 108.293 168.417 108.829L169.656 115.148" fill="#2F2E41"/>
<path d="M436.932 211.871C436.932 210.206 436.438 208.855 435.833 208.852H270.691C270.083 208.855 269.592 210.206 269.589 211.871V280.41C269.589 280.564 269.539 280.713 269.447 280.828C269.355 280.942 269.229 281.014 269.094 281.029C268.65 281.077 268.207 281.122 267.764 281.164C267.753 281.164 267.742 281.167 267.731 281.167C267.49 281.192 267.249 281.21 267.007 281.232H267.005C266.881 280.972 266.758 280.71 266.637 280.445C266.596 280.356 266.574 280.257 266.574 280.157V207.954C266.574 207.494 266.591 207.031 266.618 206.575C266.657 205.948 266.726 205.324 266.824 204.705C267.287 201.819 268.334 199.865 269.524 199.859H436.998C437.171 199.86 437.343 199.901 437.502 199.98C437.736 200.097 437.947 200.265 438.124 200.474C438.364 200.757 438.57 201.076 438.735 201.421C439.418 202.963 439.811 204.648 439.889 206.37C439.889 206.388 439.892 206.407 439.892 206.426C439.93 206.929 439.95 207.441 439.947 207.954L439.985 214.611L440.01 218.581L440.084 231.037L440.111 235.46L440.232 280.875C440.232 281.039 440.174 281.198 440.071 281.314C439.969 281.431 439.829 281.496 439.684 281.496H437.48C437.335 281.496 437.195 281.431 437.092 281.314C436.99 281.198 436.932 281.039 436.932 280.875V211.871Z" fill="#E6E6E6"/>
<path d="M392.058 168.71H374.263C374.012 168.711 373.77 168.824 373.593 169.026C373.415 169.228 373.315 169.502 373.315 169.787V201.644H393.008V169.787C393.008 169.646 392.984 169.506 392.936 169.375C392.888 169.244 392.818 169.126 392.73 169.026C392.642 168.925 392.537 168.846 392.421 168.792C392.306 168.738 392.182 168.71 392.058 168.71ZM383.22 186.811C382.664 186.808 382.131 186.556 381.737 186.11C381.344 185.664 381.122 185.06 381.119 184.429V180.755C381.119 180.123 381.34 179.518 381.735 179.071C382.129 178.625 382.663 178.374 383.22 178.374C383.778 178.374 384.312 178.625 384.706 179.071C385.1 179.518 385.322 180.123 385.322 180.755V184.429C385.319 185.06 385.097 185.664 384.703 186.11C384.31 186.556 383.777 186.808 383.22 186.811Z" fill="#CCCCCC"/>
<path d="M373.254 200.625V203.698C373.255 203.857 373.311 204.01 373.41 204.123C373.509 204.235 373.644 204.299 373.784 204.299H392.539C392.679 204.298 392.814 204.235 392.913 204.122C393.012 204.01 393.068 203.857 393.069 203.698V200.625H373.254Z" fill="#3F3D56"/>
<path d="M421.523 118.995H345.46C344.806 118.996 344.18 119.291 343.718 119.814C343.256 120.338 342.996 121.048 342.995 121.789V179.958C342.995 180.699 343.255 181.409 343.717 181.933C344.179 182.456 344.806 182.751 345.46 182.752H421.523C422.177 182.751 422.804 182.456 423.266 181.933C423.728 181.409 423.988 180.699 423.989 179.958V121.789C423.987 121.048 423.727 120.338 423.265 119.814C422.803 119.291 422.177 118.996 421.523 118.995Z" fill="#E6E6E6"/>
<path d="M420.888 121.013H346.095C345.745 121.014 345.41 121.172 345.163 121.452C344.916 121.733 344.777 122.114 344.777 122.51V179.238C344.777 179.634 344.917 180.013 345.164 180.293C345.411 180.573 345.746 180.731 346.095 180.732H420.888C421.238 180.731 421.573 180.573 421.82 180.293C422.067 180.013 422.206 179.634 422.207 179.238V122.51C422.207 122.114 422.068 121.733 421.821 121.452C421.574 121.172 421.238 121.014 420.888 121.013Z" fill="white"/>
<path d="M406.32 205.369H361.822C361.7 205.369 361.58 205.338 361.47 205.278C361.36 205.219 361.263 205.133 361.186 205.025C361.11 204.918 361.055 204.793 361.026 204.659C360.998 204.525 360.996 204.385 361.021 204.25L361.712 200.533C361.751 200.326 361.852 200.139 361.997 200.005C362.143 199.871 362.325 199.798 362.512 199.797H405.63C405.817 199.798 405.999 199.871 406.145 200.005C406.29 200.139 406.391 200.326 406.431 200.533L407.121 204.25C407.146 204.385 407.144 204.525 407.116 204.659C407.087 204.793 407.032 204.918 406.956 205.025C406.879 205.133 406.782 205.219 406.672 205.278C406.562 205.338 406.442 205.369 406.32 205.369Z" fill="#CCCCCC"/>
<path d="M363.959 200.466H363.069C362.936 200.466 362.828 200.588 362.828 200.739V201.125C362.828 201.276 362.936 201.398 363.069 201.398H363.959C364.091 201.398 364.199 201.276 364.199 201.125V200.739C364.199 200.588 364.091 200.466 363.959 200.466Z" fill="#E6E6E6"/>
<path d="M366.7 200.466H365.81C365.677 200.466 365.569 200.588 365.569 200.739V201.125C365.569 201.276 365.677 201.398 365.81 201.398H366.7C366.832 201.398 366.94 201.276 366.94 201.125V200.739C366.94 200.588 366.832 200.466 366.7 200.466Z" fill="#E6E6E6"/>
<path d="M369.441 200.466H368.551C368.418 200.466 368.31 200.588 368.31 200.739V201.125C368.31 201.276 368.418 201.398 368.551 201.398H369.441C369.573 201.398 369.681 201.276 369.681 201.125V200.739C369.681 200.588 369.573 200.466 369.441 200.466Z" fill="#E6E6E6"/>
<path d="M372.181 200.466H371.292C371.159 200.466 371.051 200.588 371.051 200.739V201.125C371.051 201.276 371.159 201.398 371.292 201.398H372.181C372.314 201.398 372.422 201.276 372.422 201.125V200.739C372.422 200.588 372.314 200.466 372.181 200.466Z" fill="#E6E6E6"/>
<path d="M374.922 200.466H374.033C373.9 200.466 373.792 200.588 373.792 200.739V201.125C373.792 201.276 373.9 201.398 374.033 201.398H374.922C375.055 201.398 375.163 201.276 375.163 201.125V200.739C375.163 200.588 375.055 200.466 374.922 200.466Z" fill="#E6E6E6"/>
<path d="M377.663 200.466H376.774C376.641 200.466 376.533 200.588 376.533 200.739V201.125C376.533 201.276 376.641 201.398 376.774 201.398H377.663C377.796 201.398 377.904 201.276 377.904 201.125V200.739C377.904 200.588 377.796 200.466 377.663 200.466Z" fill="#E6E6E6"/>
<path d="M380.404 200.466H379.515C379.382 200.466 379.274 200.588 379.274 200.739V201.125C379.274 201.276 379.382 201.398 379.515 201.398H380.404C380.537 201.398 380.645 201.276 380.645 201.125V200.739C380.645 200.588 380.537 200.466 380.404 200.466Z" fill="#E6E6E6"/>
<path d="M383.145 200.466H382.256C382.123 200.466 382.015 200.588 382.015 200.739V201.125C382.015 201.276 382.123 201.398 382.256 201.398H383.145C383.278 201.398 383.386 201.276 383.386 201.125V200.739C383.386 200.588 383.278 200.466 383.145 200.466Z" fill="#E6E6E6"/>
<path d="M385.886 200.466H384.997C384.864 200.466 384.756 200.588 384.756 200.739V201.125C384.756 201.276 384.864 201.398 384.997 201.398H385.886C386.019 201.398 386.127 201.276 386.127 201.125V200.739C386.127 200.588 386.019 200.466 385.886 200.466Z" fill="#E6E6E6"/>
<path d="M388.627 200.466H387.738C387.605 200.466 387.497 200.588 387.497 200.739V201.125C387.497 201.276 387.605 201.398 387.738 201.398H388.627C388.76 201.398 388.868 201.276 388.868 201.125V200.739C388.868 200.588 388.76 200.466 388.627 200.466Z" fill="#E6E6E6"/>
<path d="M391.368 200.466H390.479C390.346 200.466 390.238 200.588 390.238 200.739V201.125C390.238 201.276 390.346 201.398 390.479 201.398H391.368C391.501 201.398 391.609 201.276 391.609 201.125V200.739C391.609 200.588 391.501 200.466 391.368 200.466Z" fill="#E6E6E6"/>
<path d="M394.109 200.466H393.22C393.087 200.466 392.979 200.588 392.979 200.739V201.125C392.979 201.276 393.087 201.398 393.22 201.398H394.109C394.242 201.398 394.35 201.276 394.35 201.125V200.739C394.35 200.588 394.242 200.466 394.109 200.466Z" fill="#E6E6E6"/>
<path d="M396.85 200.466H395.961C395.828 200.466 395.72 200.588 395.72 200.739V201.125C395.72 201.276 395.828 201.398 395.961 201.398H396.85C396.983 201.398 397.091 201.276 397.091 201.125V200.739C397.091 200.588 396.983 200.466 396.85 200.466Z" fill="#E6E6E6"/>
<path d="M399.591 200.466H398.702C398.569 200.466 398.461 200.588 398.461 200.739V201.125C398.461 201.276 398.569 201.398 398.702 201.398H399.591C399.724 201.398 399.832 201.276 399.832 201.125V200.739C399.832 200.588 399.724 200.466 399.591 200.466Z" fill="#E6E6E6"/>
<path d="M402.332 200.466H401.443C401.31 200.466 401.202 200.588 401.202 200.739V201.125C401.202 201.276 401.31 201.398 401.443 201.398H402.332C402.465 201.398 402.573 201.276 402.573 201.125V200.739C402.573 200.588 402.465 200.466 402.332 200.466Z" fill="#E6E6E6"/>
<path d="M405.073 200.466H404.184C404.051 200.466 403.943 200.588 403.943 200.739V201.125C403.943 201.276 404.051 201.398 404.184 201.398H405.073C405.206 201.398 405.314 201.276 405.314 201.125V200.739C405.314 200.588 405.206 200.466 405.073 200.466Z" fill="#E6E6E6"/>
<path d="M363.926 202.019H363.036C362.904 202.019 362.796 202.141 362.796 202.292V202.679C362.796 202.829 362.904 202.951 363.036 202.951H363.926C364.059 202.951 364.167 202.829 364.167 202.679V202.292C364.167 202.141 364.059 202.019 363.926 202.019Z" fill="#E6E6E6"/>
<path d="M366.667 202.019H365.777C365.645 202.019 365.537 202.141 365.537 202.292V202.679C365.537 202.829 365.645 202.951 365.777 202.951H366.667C366.8 202.951 366.908 202.829 366.908 202.679V202.292C366.908 202.141 366.8 202.019 366.667 202.019Z" fill="#E6E6E6"/>
<path d="M369.408 202.019H368.518C368.386 202.019 368.278 202.141 368.278 202.292V202.679C368.278 202.829 368.386 202.951 368.518 202.951H369.408C369.541 202.951 369.649 202.829 369.649 202.679V202.292C369.649 202.141 369.541 202.019 369.408 202.019Z" fill="#E6E6E6"/>
<path d="M372.149 202.019H371.259C371.127 202.019 371.019 202.141 371.019 202.292V202.679C371.019 202.829 371.127 202.951 371.259 202.951H372.149C372.282 202.951 372.389 202.829 372.389 202.679V202.292C372.389 202.141 372.282 202.019 372.149 202.019Z" fill="#E6E6E6"/>
<path d="M374.89 202.019H374C373.868 202.019 373.76 202.141 373.76 202.292V202.679C373.76 202.829 373.868 202.951 374 202.951H374.89C375.023 202.951 375.13 202.829 375.13 202.679V202.292C375.13 202.141 375.023 202.019 374.89 202.019Z" fill="#E6E6E6"/>
<path d="M377.631 202.019H376.741C376.609 202.019 376.501 202.141 376.501 202.292V202.679C376.501 202.829 376.609 202.951 376.741 202.951H377.631C377.764 202.951 377.871 202.829 377.871 202.679V202.292C377.871 202.141 377.764 202.019 377.631 202.019Z" fill="#E6E6E6"/>
<path d="M380.372 202.019H379.482C379.35 202.019 379.242 202.141 379.242 202.292V202.679C379.242 202.829 379.35 202.951 379.482 202.951H380.372C380.505 202.951 380.612 202.829 380.612 202.679V202.292C380.612 202.141 380.505 202.019 380.372 202.019Z" fill="#E6E6E6"/>
<path d="M383.113 202.019H382.223C382.091 202.019 381.983 202.141 381.983 202.292V202.679C381.983 202.829 382.091 202.951 382.223 202.951H383.113C383.246 202.951 383.353 202.829 383.353 202.679V202.292C383.353 202.141 383.246 202.019 383.113 202.019Z" fill="#E6E6E6"/>
<path d="M385.854 202.019H384.964C384.832 202.019 384.724 202.141 384.724 202.292V202.679C384.724 202.829 384.832 202.951 384.964 202.951H385.854C385.987 202.951 386.094 202.829 386.094 202.679V202.292C386.094 202.141 385.987 202.019 385.854 202.019Z" fill="#E6E6E6"/>
<path d="M388.595 202.019H387.705C387.572 202.019 387.465 202.141 387.465 202.292V202.679C387.465 202.829 387.572 202.951 387.705 202.951H388.595C388.728 202.951 388.835 202.829 388.835 202.679V202.292C388.835 202.141 388.728 202.019 388.595 202.019Z" fill="#E6E6E6"/>
<path d="M391.336 202.019H390.446C390.313 202.019 390.206 202.141 390.206 202.292V202.679C390.206 202.829 390.313 202.951 390.446 202.951H391.336C391.469 202.951 391.576 202.829 391.576 202.679V202.292C391.576 202.141 391.469 202.019 391.336 202.019Z" fill="#E6E6E6"/>
<path d="M394.077 202.019H393.187C393.054 202.019 392.947 202.141 392.947 202.292V202.679C392.947 202.829 393.054 202.951 393.187 202.951H394.077C394.21 202.951 394.317 202.829 394.317 202.679V202.292C394.317 202.141 394.21 202.019 394.077 202.019Z" fill="#E6E6E6"/>
<path d="M396.818 202.019H395.928C395.795 202.019 395.688 202.141 395.688 202.292V202.679C395.688 202.829 395.795 202.951 395.928 202.951H396.818C396.951 202.951 397.058 202.829 397.058 202.679V202.292C397.058 202.141 396.951 202.019 396.818 202.019Z" fill="#E6E6E6"/>
<path d="M399.559 202.019H398.669C398.536 202.019 398.429 202.141 398.429 202.292V202.679C398.429 202.829 398.536 202.951 398.669 202.951H399.559C399.692 202.951 399.799 202.829 399.799 202.679V202.292C399.799 202.141 399.692 202.019 399.559 202.019Z" fill="#E6E6E6"/>
<path d="M402.3 202.019H401.41C401.277 202.019 401.17 202.141 401.17 202.292V202.679C401.17 202.829 401.277 202.951 401.41 202.951H402.3C402.433 202.951 402.54 202.829 402.54 202.679V202.292C402.54 202.141 402.433 202.019 402.3 202.019Z" fill="#E6E6E6"/>
<path d="M405.041 202.019H404.151C404.018 202.019 403.911 202.141 403.911 202.292V202.679C403.911 202.829 404.018 202.951 404.151 202.951H405.041C405.174 202.951 405.281 202.829 405.281 202.679V202.292C405.281 202.141 405.174 202.019 405.041 202.019Z" fill="#E6E6E6"/>
<path d="M386.676 203.883H376.193C376.06 203.883 375.953 204.005 375.953 204.156V204.543C375.953 204.693 376.06 204.815 376.193 204.815H386.676C386.809 204.815 386.917 204.693 386.917 204.543V204.156C386.917 204.005 386.809 203.883 386.676 203.883Z" fill="#E6E6E6"/>
<path d="M417.129 128.829H347.145C347.072 128.827 347.003 128.793 346.952 128.734C346.901 128.675 346.873 128.596 346.873 128.513C346.873 128.431 346.901 128.352 346.952 128.293C347.003 128.234 347.072 128.2 347.145 128.198H417.129C417.201 128.2 417.271 128.234 417.321 128.293C417.372 128.352 417.401 128.431 417.401 128.513C417.401 128.596 417.372 128.675 417.321 128.734C417.271 128.793 417.201 128.827 417.129 128.829Z" fill="#CACACA"/>
<path d="M351.909 126.587C352.81 126.587 353.54 125.741 353.54 124.698C353.54 123.654 352.81 122.808 351.909 122.808C351.008 122.808 350.278 123.654 350.278 124.698C350.278 125.741 351.008 126.587 351.909 126.587Z" fill="#CCCCCC"/>
<path d="M357.543 126.587C358.444 126.587 359.174 125.741 359.174 124.698C359.174 123.654 358.444 122.808 357.543 122.808C356.642 122.808 355.912 123.654 355.912 124.698C355.912 125.741 356.642 126.587 357.543 126.587Z" fill="#CCCCCC"/>
<path d="M363.178 126.587C364.078 126.587 364.809 125.741 364.809 124.698C364.809 123.654 364.078 122.808 363.178 122.808C362.277 122.808 361.547 123.654 361.547 124.698C361.547 125.741 362.277 126.587 363.178 126.587Z" fill="#CCCCCC"/>
<path d="M413.736 123.277H409.734C409.655 123.278 409.579 123.315 409.523 123.38C409.468 123.444 409.437 123.53 409.437 123.62C409.437 123.71 409.468 123.796 409.523 123.861C409.579 123.925 409.655 123.962 409.734 123.964H413.736C413.816 123.962 413.891 123.925 413.947 123.861C414.002 123.796 414.033 123.71 414.033 123.62C414.033 123.53 414.002 123.444 413.947 123.38C413.891 123.315 413.816 123.278 413.736 123.277H413.736Z" fill="#CCCCCC"/>
<path d="M413.736 124.566H409.734C409.655 124.568 409.579 124.605 409.524 124.669C409.468 124.733 409.437 124.819 409.437 124.909C409.437 124.999 409.468 125.085 409.524 125.15C409.579 125.214 409.655 125.251 409.734 125.253H413.736C413.816 125.251 413.891 125.214 413.947 125.15C414.002 125.085 414.033 124.999 414.033 124.909C414.033 124.819 414.002 124.733 413.947 124.669C413.891 124.605 413.816 124.568 413.736 124.566H413.736Z" fill="#CCCCCC"/>
<path d="M413.736 125.853H409.734C409.655 125.855 409.579 125.892 409.523 125.956C409.468 126.02 409.437 126.107 409.437 126.197C409.437 126.287 409.468 126.373 409.523 126.437C409.579 126.501 409.655 126.538 409.734 126.54H413.736C413.816 126.538 413.891 126.501 413.947 126.437C414.002 126.373 414.033 126.287 414.033 126.197C414.033 126.107 414.002 126.02 413.947 125.956C413.891 125.892 413.816 125.855 413.736 125.853H413.736Z" fill="#CCCCCC"/>
<path d="M387.787 146.012H379.043C378.386 146.012 377.853 146.616 377.853 147.36C377.853 148.104 378.386 148.708 379.043 148.708H387.787C388.444 148.708 388.977 148.104 388.977 147.36C388.977 146.616 388.444 146.012 387.787 146.012Z" fill="#6C63FF"/>
<path d="M393.437 151.403H373.393C372.736 151.403 372.204 152.007 372.204 152.751C372.204 153.496 372.736 154.099 373.393 154.099H393.437C394.093 154.099 394.626 153.496 394.626 152.751C394.626 152.007 394.093 151.403 393.437 151.403Z" fill="#E6E6E6"/>
<path d="M393.437 156.795H373.393C372.736 156.795 372.204 157.398 372.204 158.143C372.204 158.887 372.736 159.49 373.393 159.49H393.437C394.093 159.49 394.626 158.887 394.626 158.143C394.626 157.398 394.093 156.795 393.437 156.795Z" fill="#E6E6E6"/>
<path d="M258.402 240.786L254.371 238.6L259.909 219.504L265.859 222.729L258.402 240.786Z" fill="#FFB6B6"/>
<path d="M285.429 237.707C285.136 237.915 284.843 238.12 284.547 238.324C283.958 238.734 283.363 239.136 282.767 239.532C282.468 239.73 282.166 239.929 281.867 240.123V240.133L281.849 240.137L281.843 240.14L281.387 240.267L280.733 238.308L280.431 237.405L280.005 236.126L279.223 233.787L275.107 221.471L281.506 219.683L281.746 220.794H281.749L281.867 221.344L284.103 231.619L284.559 233.72L284.574 233.784L284.849 235.039L285.086 236.126L285.349 237.341L285.429 237.707Z" fill="#FFB6B6"/>
<path d="M323.602 194.456C323.197 195.194 322.782 195.929 322.365 196.658C321.589 198.013 320.792 199.349 319.975 200.664C319.975 200.668 319.972 200.668 319.969 200.671C319.492 201.172 318.966 201.608 318.4 201.97C318.376 201.99 318.349 202.003 318.326 202.02C317.909 202.281 317.465 202.483 317.005 202.621C316.839 202.668 316.67 202.715 316.504 202.762C315.906 202.923 315.314 203.061 314.725 203.181C313.677 203.393 312.64 203.544 311.61 203.638C311.527 203.648 311.444 203.654 311.361 203.661C307.124 204.014 302.999 203.446 298.693 202.517C296.567 202.06 294.396 201.513 292.149 200.946C291.415 200.758 290.677 200.574 289.931 200.389C289.875 200.376 289.816 200.359 289.756 200.346C288.69 200.081 287.607 199.819 286.496 199.56C285.098 199.235 283.656 198.919 282.158 198.621L282.265 201.013C282.353 202.854 282.691 204.668 283.265 206.393C283.905 208.514 284.411 210.192 283.342 213.685L282.827 215.376C283.094 216.216 283.186 217.115 283.095 218.002C283.004 218.889 282.733 219.739 282.303 220.487L282.199 220.665L286.496 232.985L286.774 233.783H284.574L281.868 233.787H277.281L270.663 218.739L270.346 218.021V217.984L271.03 189.067C271.039 188.812 271.057 188.553 271.086 188.298C271.207 187.139 271.53 186.018 272.037 185.002C272.544 183.985 273.224 183.094 274.038 182.379C274.819 181.687 275.712 181.179 276.668 180.883C277.623 180.587 278.62 180.509 279.602 180.654L281.868 180.986L286.496 181.664L289.756 182.144L289.821 182.154L299.436 183.563L300.126 180.375L300.254 180.321L304.301 178.64L318.302 172.824L318.337 172.811L319.258 172.428L319.368 172.63C319.4 172.69 319.433 172.751 319.463 172.811C320.373 174.66 321.114 176.61 321.675 178.63C322.617 181.93 323.393 185.288 323.999 188.688C324.026 188.835 324.049 188.969 324.07 189.09L324.079 189.127C324.088 189.184 324.094 189.221 324.097 189.231C324.374 190.991 324.203 192.803 323.602 194.456Z" fill="#2F2E41"/>
<path d="M324.193 183.799C324.149 183.585 324.093 183.366 324.033 183.155C323.563 181.554 323.016 179.983 322.393 178.45C321.694 176.705 320.856 174.836 319.858 172.812C319.375 171.832 318.856 170.813 318.301 169.755C318.022 169.225 317.733 168.685 317.433 168.134C317.421 168.109 317.408 168.084 317.394 168.06L317.309 167.899L303.456 170L298.298 170.782L297.99 173.695L297.916 174.416C297.913 174.416 297.913 174.416 297.916 174.42L297.709 176.386V176.39L297.433 178.987L297.41 178.984L289.755 177.86L281.866 176.702L277.629 176.081C276.647 175.936 275.649 176.014 274.694 176.31C273.739 176.606 272.845 177.115 272.065 177.806C271.251 178.521 270.571 179.413 270.064 180.429C269.557 181.446 269.234 182.566 269.113 183.726C269.086 183.96 269.068 184.202 269.059 184.44L265.062 195.176C262.67 201.596 261.146 208.389 260.543 215.324L257.612 225.945L258.029 225.989L264.242 226.643L265.882 226.818L269.495 220.841C269.906 220.16 270.297 219.459 270.661 218.74C271.261 217.567 271.794 216.352 272.258 215.103L280.072 194.028C280.676 194.145 281.274 194.257 281.866 194.364C284.606 194.867 287.235 195.277 289.755 195.595C297.948 196.632 305.043 196.713 311.36 195.833C313.133 195.588 314.848 195.266 316.503 194.867C317.11 194.723 317.709 194.567 318.301 194.401C318.44 194.364 318.576 194.327 318.712 194.286C319.936 193.929 321.061 193.229 321.984 192.251C322.908 191.273 323.6 190.048 323.998 188.689C324.473 187.113 324.54 185.417 324.193 183.799Z" fill="#2F2E41"/>
<path d="M259.69 237.667L255.329 235.298L254.645 234.926L253.552 237.966L245.924 239.869C245.547 239.962 245.206 240.19 244.951 240.519C244.697 240.848 244.541 241.261 244.508 241.697C244.475 242.133 244.566 242.569 244.767 242.942C244.969 243.316 245.27 243.606 245.628 243.772L253.081 247.218L255.447 244.805L254.867 248.044L257.674 249.342L260.75 238.244L259.69 237.667Z" fill="#2F2E41"/>
<path d="M286.496 232.985L286.775 233.783H286.496V232.985Z" fill="#2F2E41"/>
<path d="M284.977 233.954L280.407 235.749L279.689 236.029L280.801 239.061L276.562 246.496C276.352 246.863 276.251 247.297 276.274 247.733C276.298 248.17 276.443 248.587 276.691 248.923C276.938 249.26 277.273 249.497 277.648 249.602C278.023 249.707 278.418 249.673 278.774 249.505L286.21 246.011L286.393 242.41L287.992 245.174L290.793 243.858L286.089 233.519L284.977 233.954Z" fill="#2F2E41"/>
<path d="M257.237 122.919C257.454 123.397 257.761 123.816 258.136 124.145C258.511 124.475 258.945 124.707 259.408 124.826C259.87 124.945 260.351 124.948 260.814 124.834C261.278 124.719 261.714 124.491 262.092 124.166L271.702 131.396L271.72 124.603L262.591 118.778C262.066 118.095 261.339 117.655 260.546 117.54C259.754 117.425 258.951 117.643 258.292 118.153C257.632 118.664 257.16 119.431 256.965 120.309C256.771 121.187 256.868 122.116 257.237 122.919V122.919Z" fill="#FFB6B6"/>
<path d="M264.417 126.058L268.901 120.277L287.158 132.561L311.36 130.049C312.556 129.925 313.762 130.101 314.892 130.564C316.021 131.027 317.047 131.767 317.896 132.73C318.745 133.693 319.397 134.856 319.804 136.137C320.212 137.417 320.366 138.784 320.256 140.14C320.053 142.588 319.002 144.845 317.333 146.416C315.664 147.987 313.513 148.744 311.352 148.52L284.095 145.661L264.417 126.058Z" fill="#CCCCCC"/>
<path d="M320.589 126.148L320.547 126.088C317.143 125.707 313.714 126.454 310.676 128.238C307.638 130.021 305.123 132.765 303.434 136.137L301.38 140.237C294.736 149.442 299.564 155.79 299.853 156.734L297.547 168.784L298.063 172.816L298.322 174.014L324.645 189.602C326.144 181.442 324.695 174.488 319.235 169.176L324.518 150.548C325.689 146.429 325.943 142.046 325.258 137.789C324.572 133.531 322.969 129.532 320.589 126.148Z" fill="#CCCCCC"/>
<path d="M299.659 216.646H291.215C290.751 216.645 290.302 216.455 289.952 216.11C289.601 215.765 289.372 215.288 289.307 214.766C288.785 210.419 288.785 206.011 289.307 201.663C289.371 201.148 289.596 200.676 289.939 200.332C290.283 199.987 290.724 199.793 291.183 199.784C293.84 198.434 296.7 198.435 299.688 199.784C299.966 199.788 300.24 199.861 300.491 199.998C300.741 200.135 300.963 200.333 301.139 200.577C301.322 200.831 301.454 201.128 301.523 201.447C301.593 201.765 301.599 202.098 301.541 202.419C300.863 206.245 300.863 210.185 301.541 214.01C301.599 214.332 301.593 214.664 301.523 214.983C301.454 215.301 301.322 215.599 301.139 215.853C300.96 216.101 300.734 216.301 300.478 216.438C300.222 216.575 299.942 216.646 299.659 216.646Z" fill="#6C63FF"/>
<path d="M298.775 204.78H291.668C291.609 204.78 291.551 204.768 291.497 204.743C291.442 204.718 291.393 204.681 291.351 204.634C291.31 204.587 291.276 204.531 291.254 204.47C291.231 204.409 291.22 204.343 291.22 204.276C291.22 204.21 291.231 204.144 291.254 204.083C291.276 204.021 291.31 203.966 291.351 203.919C291.393 203.872 291.442 203.835 291.497 203.81C291.551 203.785 291.609 203.772 291.668 203.773H298.775C298.833 203.772 298.891 203.785 298.946 203.81C299 203.835 299.05 203.872 299.091 203.919C299.133 203.966 299.166 204.021 299.189 204.083C299.211 204.144 299.223 204.21 299.223 204.276C299.223 204.343 299.211 204.409 299.189 204.47C299.166 204.531 299.133 204.587 299.091 204.634C299.05 204.681 299 204.718 298.946 204.743C298.891 204.768 298.833 204.78 298.775 204.78Z" fill="white"/>
<path d="M298.775 208.807H291.668C291.609 208.807 291.551 208.795 291.497 208.77C291.442 208.745 291.393 208.708 291.351 208.661C291.31 208.614 291.276 208.558 291.254 208.497C291.231 208.436 291.22 208.37 291.22 208.303C291.22 208.237 291.231 208.171 291.254 208.11C291.276 208.048 291.31 207.993 291.351 207.946C291.393 207.899 291.442 207.862 291.497 207.837C291.551 207.812 291.609 207.799 291.668 207.8H298.775C298.833 207.799 298.891 207.812 298.946 207.837C299 207.862 299.05 207.899 299.091 207.946C299.133 207.993 299.166 208.048 299.189 208.11C299.211 208.171 299.223 208.237 299.223 208.303C299.223 208.37 299.211 208.436 299.189 208.497C299.166 208.558 299.133 208.614 299.091 208.661C299.05 208.708 299 208.745 298.946 208.77C298.891 208.795 298.833 208.807 298.775 208.807Z" fill="white"/>
<path d="M298.775 212.834H291.668C291.609 212.834 291.551 212.822 291.497 212.797C291.442 212.772 291.393 212.735 291.351 212.688C291.309 212.641 291.276 212.585 291.254 212.524C291.231 212.463 291.219 212.397 291.219 212.33C291.219 212.264 291.231 212.198 291.254 212.137C291.276 212.075 291.309 212.019 291.351 211.973C291.393 211.926 291.442 211.889 291.497 211.864C291.551 211.839 291.609 211.826 291.668 211.827H298.775C298.833 211.826 298.892 211.839 298.946 211.864C299 211.889 299.05 211.926 299.091 211.973C299.133 212.019 299.166 212.075 299.189 212.137C299.211 212.198 299.223 212.264 299.223 212.33C299.223 212.397 299.211 212.463 299.189 212.524C299.166 212.585 299.133 212.641 299.091 212.688C299.05 212.735 299 212.772 298.946 212.797C298.892 212.822 298.833 212.834 298.775 212.834Z" fill="white"/>
<path d="M258.785 126.235H250.342C249.877 126.235 249.429 126.045 249.078 125.699C248.727 125.354 248.499 124.877 248.433 124.356C247.912 120.008 247.912 115.6 248.433 111.252C248.498 110.738 248.722 110.266 249.066 109.921C249.41 109.577 249.851 109.383 250.309 109.374C252.966 108.024 255.827 108.024 258.814 109.373C259.093 109.378 259.367 109.451 259.617 109.588C259.868 109.725 260.089 109.922 260.265 110.166C260.449 110.42 260.58 110.717 260.65 111.036C260.72 111.355 260.726 111.687 260.668 112.009C259.99 115.834 259.99 119.774 260.668 123.599C260.726 123.921 260.72 124.254 260.65 124.572C260.58 124.891 260.449 125.188 260.265 125.442C260.086 125.691 259.86 125.891 259.604 126.028C259.348 126.165 259.069 126.236 258.785 126.235Z" fill="#6C63FF"/>
<path d="M257.901 114.369H250.794C250.736 114.37 250.677 114.357 250.623 114.332C250.569 114.307 250.519 114.27 250.478 114.223C250.436 114.177 250.403 114.121 250.38 114.06C250.358 113.998 250.346 113.932 250.346 113.866C250.346 113.799 250.358 113.734 250.38 113.672C250.403 113.611 250.436 113.555 250.478 113.508C250.519 113.462 250.569 113.425 250.623 113.4C250.677 113.375 250.736 113.362 250.794 113.363H257.901C257.96 113.362 258.018 113.375 258.072 113.4C258.127 113.425 258.176 113.462 258.218 113.508C258.259 113.555 258.292 113.611 258.315 113.672C258.338 113.734 258.349 113.799 258.349 113.866C258.349 113.932 258.338 113.998 258.315 114.06C258.292 114.121 258.259 114.177 258.218 114.223C258.176 114.27 258.127 114.307 258.072 114.332C258.018 114.357 257.96 114.37 257.901 114.369Z" fill="white"/>
<path d="M257.901 118.396H250.794C250.736 118.397 250.677 118.384 250.623 118.359C250.569 118.334 250.519 118.297 250.478 118.25C250.436 118.204 250.403 118.148 250.38 118.087C250.358 118.025 250.346 117.959 250.346 117.893C250.346 117.826 250.358 117.761 250.38 117.699C250.403 117.638 250.436 117.582 250.478 117.535C250.519 117.489 250.569 117.452 250.623 117.427C250.677 117.402 250.736 117.389 250.794 117.39H257.901C257.96 117.389 258.018 117.402 258.072 117.427C258.127 117.452 258.176 117.489 258.218 117.535C258.259 117.582 258.292 117.638 258.315 117.699C258.338 117.761 258.349 117.826 258.349 117.893C258.349 117.959 258.338 118.025 258.315 118.087C258.292 118.148 258.259 118.204 258.218 118.25C258.176 118.297 258.127 118.334 258.072 118.359C258.018 118.384 257.96 118.397 257.901 118.396Z" fill="white"/>
<path d="M257.901 122.423H250.794C250.736 122.424 250.677 122.411 250.623 122.386C250.569 122.361 250.519 122.324 250.478 122.278C250.436 122.231 250.403 122.175 250.38 122.114C250.358 122.052 250.346 121.986 250.346 121.92C250.346 121.853 250.358 121.788 250.38 121.726C250.403 121.665 250.436 121.609 250.478 121.562C250.519 121.515 250.569 121.478 250.623 121.453C250.677 121.428 250.736 121.416 250.794 121.417H257.901C257.96 121.416 258.018 121.428 258.072 121.453C258.127 121.478 258.176 121.515 258.218 121.562C258.26 121.609 258.293 121.665 258.315 121.726C258.338 121.788 258.349 121.853 258.349 121.92C258.349 121.986 258.338 122.052 258.315 122.114C258.293 122.175 258.26 122.231 258.218 122.278C258.176 122.324 258.127 122.361 258.072 122.386C258.018 122.411 257.96 122.424 257.901 122.423Z" fill="white"/>
<path d="M110.557 150.791H102.114C101.649 150.791 101.2 150.6 100.85 150.255C100.499 149.91 100.27 149.433 100.205 148.912C99.6838 144.564 99.6838 140.156 100.205 135.808C100.27 135.293 100.494 134.821 100.838 134.477C101.182 134.133 101.622 133.939 102.081 133.929C104.738 132.58 107.599 132.58 110.586 133.929C110.865 133.933 111.139 134.007 111.389 134.144C111.64 134.281 111.861 134.478 112.037 134.722C112.221 134.976 112.352 135.273 112.422 135.592C112.491 135.911 112.498 136.243 112.44 136.565C111.761 140.39 111.761 144.33 112.44 148.155C112.498 148.477 112.491 148.809 112.422 149.128C112.352 149.447 112.221 149.744 112.037 149.998C111.858 150.246 111.632 150.447 111.376 150.584C111.12 150.721 110.84 150.792 110.557 150.791Z" fill="#6C63FF"/>
<path d="M109.673 138.925H102.566C102.508 138.926 102.449 138.913 102.395 138.888C102.341 138.863 102.291 138.826 102.25 138.779C102.208 138.733 102.175 138.677 102.152 138.616C102.13 138.554 102.118 138.488 102.118 138.422C102.118 138.355 102.13 138.29 102.152 138.228C102.175 138.167 102.208 138.111 102.25 138.064C102.291 138.018 102.341 137.981 102.395 137.956C102.449 137.93 102.508 137.918 102.566 137.918H109.673C109.732 137.918 109.79 137.93 109.844 137.956C109.898 137.981 109.948 138.018 109.99 138.064C110.031 138.111 110.064 138.167 110.087 138.228C110.109 138.29 110.121 138.355 110.121 138.422C110.121 138.488 110.109 138.554 110.087 138.616C110.064 138.677 110.031 138.733 109.99 138.779C109.948 138.826 109.898 138.863 109.844 138.888C109.79 138.913 109.732 138.926 109.673 138.925Z" fill="white"/>
<path d="M109.673 142.952H102.566C102.508 142.953 102.449 142.94 102.395 142.915C102.341 142.89 102.291 142.853 102.25 142.806C102.208 142.76 102.175 142.704 102.152 142.642C102.13 142.581 102.118 142.515 102.118 142.449C102.118 142.382 102.13 142.317 102.152 142.255C102.175 142.194 102.208 142.138 102.25 142.091C102.291 142.045 102.341 142.008 102.395 141.982C102.449 141.957 102.508 141.945 102.566 141.945H109.673C109.732 141.945 109.79 141.957 109.844 141.982C109.898 142.008 109.948 142.045 109.99 142.091C110.031 142.138 110.064 142.194 110.087 142.255C110.109 142.317 110.121 142.382 110.121 142.449C110.121 142.515 110.109 142.581 110.087 142.642C110.064 142.704 110.031 142.76 109.99 142.806C109.948 142.853 109.898 142.89 109.844 142.915C109.79 142.94 109.732 142.953 109.673 142.952Z" fill="white"/>
<path d="M109.673 146.979H102.566C102.507 146.98 102.449 146.967 102.395 146.942C102.341 146.917 102.291 146.88 102.249 146.833C102.208 146.787 102.175 146.731 102.152 146.67C102.129 146.608 102.118 146.542 102.118 146.476C102.118 146.409 102.129 146.343 102.152 146.282C102.175 146.221 102.208 146.165 102.249 146.118C102.291 146.071 102.341 146.034 102.395 146.009C102.449 145.984 102.507 145.972 102.566 145.972H109.673C109.732 145.972 109.79 145.984 109.844 146.009C109.899 146.034 109.948 146.071 109.99 146.118C110.031 146.165 110.065 146.221 110.087 146.282C110.11 146.343 110.121 146.409 110.121 146.476C110.121 146.542 110.11 146.608 110.087 146.67C110.065 146.731 110.031 146.787 109.99 146.833C109.948 146.88 109.899 146.917 109.844 146.942C109.79 146.967 109.732 146.98 109.673 146.979Z" fill="white"/>
<path d="M302.133 204.413C302.541 204.14 302.892 203.768 303.16 203.324C303.428 202.881 303.607 202.376 303.685 201.845C303.762 201.314 303.736 200.771 303.608 200.253C303.479 199.735 303.253 199.256 302.943 198.848L308.742 187.547L302.757 187.929L298.168 198.602C297.598 199.237 297.253 200.086 297.199 200.989C297.144 201.893 297.384 202.787 297.873 203.503C298.362 204.22 299.065 204.708 299.85 204.876C300.635 205.043 301.448 204.879 302.133 204.413V204.413Z" fill="#FFB6B6"/>
<path d="M304.473 196.105L299.115 191.375L308.851 169.992L305.203 142.762C305.022 141.416 305.106 140.041 305.447 138.736C305.788 137.431 306.379 136.226 307.177 135.209C307.975 134.191 308.96 133.385 310.064 132.848C311.168 132.31 312.363 132.055 313.563 132.1C315.732 132.184 317.782 133.239 319.265 135.034C320.748 136.829 321.542 139.217 321.473 141.675L320.572 172.681L304.473 196.105Z" fill="#CCCCCC"/>
<path d="M45.4954 190.262C45.8328 189.878 46.0919 189.414 46.2541 188.904C46.4164 188.394 46.478 187.85 46.4346 187.31C46.3912 186.77 46.2439 186.247 46.003 185.779C45.7621 185.31 45.4334 184.907 45.0402 184.598L50.2514 155.265L44.4966 157.359L40.3254 185.732C39.9111 186.515 39.7647 187.443 39.9138 188.34C40.063 189.237 40.4974 190.041 41.1346 190.599C41.7719 191.158 42.5678 191.432 43.3715 191.37C44.1752 191.308 44.9309 190.914 45.4954 190.262H45.4954Z" fill="#9E616A"/>
<path d="M53.1899 128.201L49.6194 125.146C49.6194 125.146 46.4696 124.894 45.9117 131.331C45.3539 137.768 44.2084 150.314 44.2084 150.314L38.7448 178.992L46.3079 180.873L52.1599 149.924L55.6705 140.734L53.1899 128.201Z" fill="#CCCCCC"/>
<path d="M47.3035 175.029L67.4236 174.649L69.1004 159.068H47.3035V175.029Z" fill="#9E616A"/>
<path d="M65.4114 270.911H70.0563L72.2659 250.608L65.4105 250.608L65.4114 270.911Z" fill="#9E616A"/>
<path d="M36.3124 271.399L40.9572 271.362L43.0413 251.041L37.0004 252.612L36.3124 271.399Z" fill="#9E616A"/>
<path d="M50.8398 145.65L49.7874 148.751L49.9977 151.852L70.5955 159.937L69.5737 146.365L67.2581 143.264L50.8398 145.65Z" fill="#FFB6B6"/>
<path d="M59.6764 117.743C63.7394 117.743 67.0332 114.01 67.0332 109.406C67.0332 104.801 63.7394 101.068 59.6764 101.068C55.6134 101.068 52.3197 104.801 52.3197 109.406C52.3197 114.01 55.6134 117.743 59.6764 117.743Z" fill="#9E616A"/>
<path d="M64.2594 268.315L71.6019 267.818V271.383L78.5827 276.847C78.9275 277.117 79.1872 277.504 79.3238 277.953C79.4605 278.402 79.4669 278.889 79.3422 279.342C79.2175 279.796 78.9682 280.192 78.6307 280.473C78.2932 280.755 77.8851 280.907 77.4661 280.906H68.7246L67.2178 277.38L66.6295 280.906H63.3336L64.2594 268.315Z" fill="#2F2E41"/>
<path d="M34.7235 268.815L42.0628 268.26L42.0848 271.825L49.0992 277.233C49.4456 277.5 49.7077 277.886 49.8471 278.334C49.9865 278.781 49.996 279.268 49.8741 279.722C49.7522 280.177 49.5053 280.575 49.1696 280.859C48.8338 281.143 48.4267 281.298 48.0077 281.301L39.2663 281.371L37.7378 277.856L37.1713 281.387L33.8755 281.413L34.7235 268.815Z" fill="#2F2E41"/>
<path d="M34.8671 255.832L38.2493 225.194L42.2734 192.891C39.3265 186.689 45.9621 167.429 45.9621 167.429L46.8987 167.48L68.0988 172.013L68.0942 171.989C72.4303 185.392 73.8669 192.014 73.6293 206.287L72.775 257.595H73.043C73.4877 257.595 73.9142 257.795 74.2286 258.151C74.543 258.507 74.7197 258.991 74.7197 259.495C74.7197 259.999 74.543 260.482 74.2286 260.838C73.9142 261.195 73.4877 261.395 73.043 261.395H64.6596C64.4392 261.395 64.2209 261.346 64.0171 261.251C63.8134 261.156 63.6282 261.016 63.4722 260.839C63.3162 260.663 63.1924 260.453 63.108 260.223C63.0235 259.992 62.9801 259.744 62.9801 259.495C62.9801 259.245 63.0235 258.998 63.108 258.767C63.1924 258.536 63.3162 258.326 63.4722 258.15C63.6282 257.973 63.8134 257.834 64.0171 257.738C64.2209 257.643 64.4392 257.594 64.6596 257.595H64.8758L57.1809 196.502L50.6568 222.154L43.2794 255.596C45.9621 254.836 45.5455 256.597 45.5455 257.595C45.5455 258.099 45.3689 258.582 45.0544 258.938C44.74 259.295 44.3135 259.495 43.8688 259.495H35.4855C35.0956 259.495 34.7177 259.341 34.4171 259.06C34.1165 258.779 33.9119 258.387 33.8386 257.953C33.7654 257.519 33.828 257.07 34.0158 256.683C34.2035 256.295 34.5046 255.994 34.8671 255.832H34.8671Z" fill="#2F2E41"/>
<path d="M44.3113 168.427L44.982 160.826C45.0517 160.516 45.2062 160.239 45.4233 160.034C45.6405 159.83 45.9092 159.709 46.1909 159.688C46.4704 156.067 47.6461 140.447 47.7163 139.766L47.7191 139.737L48.2537 126.794C48.2731 126.324 48.4446 125.879 48.7355 125.543C49.0264 125.207 49.4163 125.005 49.8306 124.974L52.6544 124.765C52.6931 124.763 52.7299 124.745 52.7568 124.713C52.7837 124.682 52.7988 124.64 52.7988 124.596C52.7988 124.242 52.8602 123.892 52.9796 123.566C53.0989 123.239 53.2738 122.943 53.4943 122.693C53.7148 122.443 53.9766 122.245 54.2647 122.109C54.5528 121.974 54.8616 121.904 55.1734 121.904H63.5337C64.0753 121.905 64.5981 122.129 65.004 122.535C65.41 122.941 65.6713 123.501 65.7388 124.11C65.7425 124.152 65.76 124.191 65.7879 124.219C65.8157 124.247 65.8518 124.262 65.889 124.261H65.89C66.84 124.238 67.7654 124.603 68.4986 125.288C69.2317 125.973 69.7238 126.933 69.8857 127.994C71.0286 135.531 73.3192 152.635 72.1867 162.145C71.7925 165.455 72.6423 162.833 72.7914 165.603C72.8062 165.87 72.7743 166.139 72.6974 166.392C72.6206 166.646 72.5003 166.88 72.3435 167.081C72.6645 167.213 72.9265 167.483 73.0727 167.833C73.2188 168.183 73.2374 168.584 73.1242 168.949L73.2712 168.908C73.2281 169.102 73.1518 169.284 73.0467 169.444C72.9416 169.604 72.8096 169.739 72.6584 169.841C72.5072 169.944 72.3396 170.011 72.1653 170.04C71.9911 170.069 71.8134 170.059 71.6426 170.01L49.77 173.369C49.0517 173.164 44.1303 169.241 44.3113 168.427Z" fill="#CCCCCC"/>
<path d="M102.758 137.524C102.621 138.044 102.385 138.523 102.067 138.928C101.749 139.333 101.356 139.654 100.917 139.869C100.477 140.083 100.002 140.186 99.5233 140.17C99.0451 140.153 98.5758 140.018 98.1485 139.774L89.6927 148.52L88.57 141.789L96.7772 134.538C97.1866 133.752 97.8363 133.163 98.6032 132.883C99.3701 132.604 100.201 132.652 100.938 133.021C101.675 133.389 102.268 134.05 102.603 134.881C102.938 135.711 102.994 136.651 102.758 137.524H102.758Z" fill="#9E616A"/>
<path d="M73.3268 130.84C73.3268 130.84 70.3783 123.288 66.6543 124.789C62.9304 126.29 64.8531 133.617 64.8531 133.617L78.8442 157.51C78.8442 157.51 99.0244 142.839 96.5705 142.735C94.1166 142.632 93.3826 137.573 93.3826 137.573L82.7169 143.613L82.3561 141.463L81.7777 142.119L80.2851 140.787L73.3268 130.84Z" fill="#CCCCCC"/>
<path d="M314.521 122.544C320.193 122.544 324.792 117.333 324.792 110.904C324.792 104.476 320.193 99.2642 314.521 99.2642C308.848 99.2642 304.25 104.476 304.25 110.904C304.25 117.333 308.848 122.544 314.521 122.544Z" fill="#FFB6B6"/>
<path d="M347.484 128.032C346.299 129.936 344.569 131.316 342.588 131.939C341.795 132.206 340.976 132.364 340.15 132.408C340.048 131.349 339.804 130.314 339.426 129.339C339.464 130.377 339.337 131.414 339.05 132.401C337.809 132.321 336.596 131.953 335.486 131.319C334.396 130.697 333.449 129.797 332.72 128.688C331.991 127.579 331.499 126.293 331.285 124.932C330.85 121.748 332.124 118.622 332.584 115.443C333.047 112.264 332.178 108.238 329.433 107.402C327.341 106.766 327.576 107.041 325.837 108.504C327.646 111.534 320.967 122.638 318.233 121.669C316.688 121.122 315.699 119.515 315.38 119.515C313.231 123.709 317.276 130.775 313.2 132.243L313.536 131.862C315.996 128.432 310.853 121.171 313.314 117.741C314 116.781 314.731 115.644 314.528 114.431C314.336 113.277 312.72 112.666 312.247 113.614C313.098 111.405 311.842 108.456 309.761 107.888C307.913 107.383 307.947 108.006 306.092 108.276C305.971 107.368 305.744 106.482 305.418 105.64C305.452 106.547 305.359 107.453 305.141 108.326C304.486 108.312 303.854 108.053 303.342 107.589C301.829 106.208 302.136 103.307 303.485 101.724C304.837 100.142 306.846 99.5722 308.762 99.2035C309.319 94.8083 320.019 94.3498 321.438 98.7415C322.042 95.462 325.664 93.76 328.48 94.7774C331.296 95.7948 333.249 98.7751 334.278 101.916C335.307 105.054 335.594 108.432 336.228 111.702C336.861 114.972 337.932 118.301 340.137 120.53C342.343 122.756 345.936 123.493 348.259 121.425C348.597 122.518 348.703 123.686 348.568 124.834C348.433 125.981 348.062 127.077 347.484 128.032Z" fill="#2F2E41"/>
<path d="M443.845 154.595L442.407 162.771C442.299 163.396 442.185 164.032 442.062 164.663C440.86 164.38 439.614 164.459 438.448 164.891C439.373 166.39 440.203 167.963 440.93 169.596C440.023 172.761 438.694 175.685 436.468 177.8C434.981 179.181 433.206 180.105 431.312 180.482C429.419 180.86 427.472 180.678 425.659 179.954L425.723 179.631C423.329 174.368 424.629 167.732 427.604 162.871C429.121 160.473 430.918 158.32 432.947 156.47C434.956 154.572 437.128 152.87 439.28 151.19C439.763 150.814 440.335 150.609 440.921 150.602C441.508 150.595 442.083 150.787 442.573 151.152C443.063 151.518 443.446 152.04 443.672 152.654C443.899 153.267 443.959 153.943 443.845 154.595Z" fill="#E4E4E4"/>
<path d="M426.171 199.627C425.565 194.63 424.943 189.57 425.367 184.52C425.745 180.035 426.952 175.655 429.41 172.063C430.715 170.16 432.302 168.529 434.102 167.245C434.571 166.91 435.002 167.752 434.535 168.086C431.423 170.315 429.015 173.608 427.659 177.488C426.162 181.803 425.922 186.507 426.182 191.091C426.338 193.863 426.669 196.616 427.002 199.367C427.029 199.492 427.013 199.623 426.957 199.735C426.901 199.846 426.81 199.929 426.702 199.967C426.592 200 426.474 199.983 426.375 199.92C426.276 199.856 426.203 199.751 426.173 199.626L426.171 199.627Z" fill="#F2F2F2"/>
<path d="M460.414 281.828L0.586353 282C0.431136 282 0.282434 281.929 0.172838 281.805C0.0632416 281.68 0.00169373 281.511 0.00169373 281.336C0.00169373 281.16 0.0632416 280.991 0.172838 280.866C0.282434 280.742 0.431136 280.672 0.586353 280.671L460.414 280.5C460.569 280.5 460.718 280.57 460.827 280.695C460.937 280.819 460.998 280.988 460.998 281.164C460.998 281.34 460.937 281.509 460.827 281.633C460.718 281.758 460.569 281.828 460.414 281.828Z" fill="#CACACA"/>
<path d="M51.018 104.301C49.8897 104.915 48.6267 103.991 47.6526 103.077L48.001 103.418C46.2794 105.316 45.4745 108.047 45.0812 110.735C44.6875 113.421 44.6436 116.168 44.1479 118.834C43.6519 121.498 42.6228 124.174 40.7007 125.806C38.1256 127.991 34.5741 127.851 31.4141 127.181C31.372 127.171 31.3327 127.164 31.2906 127.154C32.1409 124.372 32.4865 121.424 32.3068 118.486C31.4598 121.43 30.0177 124.108 28.0957 126.309C26.0005 125.655 23.9555 124.811 21.9805 123.783C20.7027 123.117 19.3267 122.205 18.9721 120.662C18.6166 119.131 19.4422 117.524 20.5462 116.557C21.6502 115.59 23.0052 115.085 24.2629 114.396C25.5186 113.711 26.7611 112.733 27.2639 111.257C28.4235 107.861 25.1201 103.965 26.4075 100.628C27.0423 98.9863 28.5973 98.0935 30.0588 97.4052C32.29 96.3573 34.5812 95.4814 36.9166 94.7838C38.9668 94.1709 41.1074 93.6946 43.1959 94.0964C45.2845 94.4981 47.3306 95.9377 48.0823 98.1855C49.3365 98.6659 50.668 99.2073 51.4729 100.404C52.2774 101.597 52.2126 103.652 51.018 104.301Z" fill="#2F2E41"/>
<path d="M61.0573 100.366C57.8295 97.4786 55.2197 97.9715 53.2065 99.7656C52.868 99.339 51.4277 100.513 50.94 100.344L49.1761 104.097C48.2684 105.912 47.896 107.765 48.0428 108.808C46.3732 114.114 50.3324 117.697 55.0146 119.589C56.8829 120.35 58.9215 120.383 60.8084 119.684L60.8659 118.78L61.2205 119.521C61.2205 119.521 65.5009 129.51 66.5124 129.958C65.8987 128.154 64.2799 119.579 63.8281 117.791C63.2086 115.359 63.6318 111.495 63.9959 109.126C64.2229 107.666 64.2348 106.173 64.0311 104.708L64.022 104.644L65.0235 106.935L67.2706 105.333C66.4118 102.499 66.3946 99.1075 61.0573 100.366Z" fill="#2F2E41"/>
</svg>
