<svg width="642" height="479" viewBox="0 0 642 479" fill="none" xmlns="http://www.w3.org/2000/svg">
<path d="M530.814 409.944L558.139 296.102C559.663 289.675 559.663 282.969 558.099 276.543L517.211 110.769C515.044 102.027 507.742 95.4806 498.794 94.2432L233.126 57.6796C226.586 56.8014 220.005 58.8371 215.19 63.2679L92.9295 174.995C88.3151 179.226 85.707 185.213 85.7873 191.48L88.8368 409.984H530.814V409.944Z" fill="url(#paint0_linear_22_4)"/>
<path d="M393.747 332.067C393.747 331.348 393.305 330.749 392.663 330.55C392.021 330.749 391.54 331.348 391.54 332.067C391.54 332.785 392.021 333.384 392.663 333.583C393.305 333.344 393.747 332.745 393.747 332.067Z" fill="#B2B6BB"/>
<path d="M392.663 330.55C392.703 330.55 392.743 330.55 392.783 330.51C392.703 330.51 392.663 330.51 392.663 330.55Z" fill="#DADDDF"/>
<path opacity="0.15" d="M392.663 330.55C392.703 330.55 392.743 330.55 392.783 330.51C392.703 330.51 392.663 330.51 392.663 330.55Z" fill="black"/>
<path d="M392.663 333.583C392.703 333.583 392.743 333.583 392.783 333.623C392.703 333.583 392.703 333.583 392.663 333.583Z" fill="#DADDDF"/>
<path opacity="0.15" d="M392.663 333.583C392.703 333.583 392.743 333.583 392.783 333.623C392.703 333.583 392.703 333.583 392.663 333.583Z" fill="black"/>
<path d="M394.268 330.869C394.068 330.67 393.787 330.51 393.506 330.47C393.386 330.43 393.305 330.43 393.185 330.43C393.065 330.43 392.984 330.43 392.904 330.47C392.864 330.47 392.824 330.47 392.784 330.51C392.744 330.51 392.703 330.51 392.703 330.55C393.345 330.75 393.787 331.348 393.787 332.067C393.787 332.785 393.345 333.384 392.703 333.584C392.744 333.584 392.784 333.624 392.784 333.624C392.824 333.624 392.864 333.663 392.904 333.663C392.984 333.663 393.105 333.703 393.185 333.703C393.305 333.703 393.386 333.703 393.506 333.663C393.586 333.663 393.707 333.624 393.787 333.584C394.027 333.464 394.268 333.304 394.429 333.105C394.549 332.985 394.629 332.825 394.71 332.626C394.79 332.466 394.79 332.266 394.79 332.067C394.79 331.628 394.629 331.229 394.308 330.949C394.268 330.909 394.268 330.909 394.268 330.869Z" fill="#B2B6BB"/>
<path opacity="0.15" d="M394.268 330.869C394.068 330.67 393.787 330.51 393.506 330.47C393.386 330.43 393.305 330.43 393.185 330.43C393.065 330.43 392.984 330.43 392.904 330.47C392.864 330.47 392.824 330.47 392.784 330.51C392.744 330.51 392.703 330.51 392.703 330.55C393.345 330.75 393.787 331.348 393.787 332.067C393.787 332.785 393.345 333.384 392.703 333.584C392.744 333.584 392.784 333.624 392.784 333.624C392.824 333.624 392.864 333.663 392.904 333.663C392.984 333.663 393.105 333.703 393.185 333.703C393.305 333.703 393.386 333.703 393.506 333.663C393.586 333.663 393.707 333.624 393.787 333.584C394.027 333.464 394.268 333.304 394.429 333.105C394.549 332.985 394.629 332.825 394.71 332.626C394.79 332.466 394.79 332.266 394.79 332.067C394.79 331.628 394.629 331.229 394.308 330.949C394.268 330.909 394.268 330.909 394.268 330.869Z" fill="black"/>
<path d="M393.747 351.706C393.747 350.987 393.305 350.389 392.663 350.189C392.021 350.389 391.54 350.987 391.54 351.706C391.54 352.424 392.021 353.023 392.663 353.223C393.305 352.983 393.747 352.384 393.747 351.706Z" fill="#B2B6BB"/>
<path d="M392.663 350.149C392.663 350.189 392.663 350.189 392.663 350.149C392.703 350.149 392.743 350.149 392.783 350.109C392.703 350.149 392.663 350.149 392.663 350.149Z" fill="#DADDDF"/>
<path opacity="0.15" d="M392.663 350.149C392.663 350.189 392.663 350.189 392.663 350.149C392.703 350.149 392.743 350.149 392.783 350.109C392.703 350.149 392.663 350.149 392.663 350.149Z" fill="black"/>
<path d="M392.663 353.223C392.703 353.223 392.743 353.223 392.783 353.262C392.703 353.223 392.703 353.223 392.663 353.223C392.663 353.183 392.663 353.223 392.663 353.223Z" fill="#DADDDF"/>
<path opacity="0.15" d="M392.663 353.223C392.703 353.223 392.743 353.223 392.783 353.262C392.703 353.223 392.703 353.223 392.663 353.223C392.663 353.183 392.663 353.223 392.663 353.223Z" fill="black"/>
<path d="M394.389 350.668C394.228 350.468 393.987 350.309 393.747 350.189C393.666 350.149 393.586 350.109 393.466 350.109C393.345 350.069 393.265 350.069 393.145 350.069C393.024 350.069 392.944 350.069 392.864 350.109C392.824 350.109 392.784 350.109 392.744 350.149C392.703 350.149 392.663 350.149 392.663 350.189C393.305 350.388 393.747 350.987 393.747 351.706C393.747 352.424 393.305 353.023 392.663 353.223C392.703 353.223 392.744 353.262 392.744 353.262C392.784 353.262 392.824 353.302 392.864 353.302C392.944 353.302 393.065 353.342 393.145 353.342C393.265 353.342 393.345 353.342 393.466 353.302C393.546 353.302 393.666 353.262 393.747 353.223C393.987 353.103 394.228 352.943 394.389 352.744C394.509 352.624 394.589 352.464 394.669 352.265C394.75 352.105 394.75 351.905 394.75 351.706C394.75 351.506 394.71 351.307 394.669 351.147C394.629 350.947 394.509 350.788 394.389 350.668Z" fill="#B2B6BB"/>
<path opacity="0.15" d="M394.389 350.668C394.228 350.468 393.987 350.309 393.747 350.189C393.666 350.149 393.586 350.109 393.466 350.109C393.345 350.069 393.265 350.069 393.145 350.069C393.024 350.069 392.944 350.069 392.864 350.109C392.824 350.109 392.784 350.109 392.744 350.149C392.703 350.149 392.663 350.149 392.663 350.189C393.305 350.388 393.747 350.987 393.747 351.706C393.747 352.424 393.305 353.023 392.663 353.223C392.703 353.223 392.744 353.262 392.744 353.262C392.784 353.262 392.824 353.302 392.864 353.302C392.944 353.302 393.065 353.342 393.145 353.342C393.265 353.342 393.345 353.342 393.466 353.302C393.546 353.302 393.666 353.262 393.747 353.223C393.987 353.103 394.228 352.943 394.389 352.744C394.509 352.624 394.589 352.464 394.669 352.265C394.75 352.105 394.75 351.905 394.75 351.706C394.75 351.506 394.71 351.307 394.669 351.147C394.629 350.947 394.509 350.788 394.389 350.668Z" fill="black"/>
<path d="M393.747 371.664C393.747 370.946 393.305 370.347 392.663 370.147C392.021 370.347 391.54 370.946 391.54 371.664C391.54 372.383 392.021 372.981 392.663 373.181C393.305 372.981 393.747 372.383 393.747 371.664Z" fill="#B2B6BB"/>
<path d="M394.068 372.981C394.228 372.862 394.388 372.702 394.508 372.542C394.388 372.742 394.228 372.902 394.068 372.981Z" fill="#B2B6BB"/>
<path d="M392.663 370.147C392.703 370.147 392.743 370.147 392.783 370.107C392.703 370.147 392.663 370.147 392.663 370.147Z" fill="#DADDDF"/>
<path opacity="0.15" d="M392.663 370.147C392.703 370.147 392.743 370.147 392.783 370.107C392.703 370.147 392.663 370.147 392.663 370.147Z" fill="black"/>
<path d="M392.663 373.181C392.703 373.181 392.743 373.181 392.783 373.221C392.703 373.221 392.703 373.181 392.663 373.181Z" fill="#DADDDF"/>
<path opacity="0.15" d="M392.663 373.181C392.703 373.181 392.743 373.181 392.783 373.221C392.703 373.221 392.703 373.181 392.663 373.181Z" fill="black"/>
<path d="M394.389 370.666C394.228 370.467 393.987 370.307 393.747 370.187C393.666 370.147 393.586 370.107 393.466 370.107C393.345 370.067 393.265 370.067 393.145 370.067C393.024 370.067 392.944 370.067 392.864 370.107C392.824 370.107 392.784 370.107 392.744 370.147C392.703 370.147 392.663 370.147 392.663 370.187C393.305 370.387 393.747 370.985 393.747 371.704C393.747 372.422 393.305 373.021 392.663 373.221C392.703 373.221 392.744 373.261 392.744 373.261C392.784 373.261 392.824 373.301 392.864 373.301C392.944 373.301 393.065 373.341 393.145 373.341C393.466 373.341 393.787 373.221 394.027 373.061C394.188 372.941 394.348 372.782 394.469 372.622C394.629 372.383 394.75 372.063 394.75 371.744C394.75 371.544 394.71 371.345 394.669 371.185C394.629 370.946 394.509 370.786 394.389 370.666Z" fill="#B2B6BB"/>
<path opacity="0.15" d="M394.389 370.666C394.228 370.467 393.987 370.307 393.747 370.187C393.666 370.147 393.586 370.107 393.466 370.107C393.345 370.067 393.265 370.067 393.145 370.067C393.024 370.067 392.944 370.067 392.864 370.107C392.824 370.107 392.784 370.107 392.744 370.147C392.703 370.147 392.663 370.147 392.663 370.187C393.305 370.387 393.747 370.985 393.747 371.704C393.747 372.422 393.305 373.021 392.663 373.221C392.703 373.221 392.744 373.261 392.744 373.261C392.784 373.261 392.824 373.301 392.864 373.301C392.944 373.301 393.065 373.341 393.145 373.341C393.466 373.341 393.787 373.221 394.027 373.061C394.188 372.941 394.348 372.782 394.469 372.622C394.629 372.383 394.75 372.063 394.75 371.744C394.75 371.544 394.71 371.345 394.669 371.185C394.629 370.946 394.509 370.786 394.389 370.666Z" fill="black"/>
<path d="M468.419 321.209L465.129 319.054V321.209H468.419Z" fill="#B2B6BB"/>
<path d="M330.349 247.643H266.831C265.908 247.643 265.146 246.885 265.146 245.966V210.84C265.146 209.922 265.908 209.163 266.831 209.163H330.309C331.232 209.163 331.994 209.922 331.994 210.84V245.966C332.034 246.885 331.272 247.643 330.349 247.643Z" fill="#858990"/>
<path d="M328.824 247.643H265.347C264.424 247.643 263.661 246.885 263.661 245.966V210.84C263.661 209.922 264.424 209.163 265.347 209.163H328.824C329.747 209.163 330.51 209.922 330.51 210.84V245.966C330.51 246.885 329.747 247.643 328.824 247.643Z" fill="#DDDDDD"/>
<path d="M284.767 220.38H282.4L276.501 228.643L282.4 236.905H284.767L287.054 234.63L281.036 228.643L287.054 222.655L284.767 220.38Z" fill="#858990"/>
<path d="M282.4 220.38L274.094 228.643L282.4 236.905L284.687 234.63L278.668 228.643L284.687 222.655L282.4 220.38Z" fill="#3F4249"/>
<path d="M312.734 220.38H310.367L310.648 222.855L316.466 228.643L310.648 234.431L310.367 236.905H312.734L321.04 228.643L312.734 220.38Z" fill="#858990"/>
<path d="M310.367 220.38L308.08 222.655L314.099 228.643L308.08 234.63L310.367 236.905L318.673 228.643L310.367 220.38Z" fill="#3F4249"/>
<path d="M299.012 214.113L290.786 242.135H293.153L304.388 215.35L301.379 214.113H299.012Z" fill="#858990"/>
<path d="M287.776 240.897L290.786 242.135L302.021 215.35L299.011 214.113L287.776 240.897Z" fill="#3F4249"/>
<path d="M522.674 234.081C529.364 233.259 535.442 237.983 536.259 244.639C537.077 251.295 532.322 257.348 525.631 258.169C518.94 258.991 512.863 254.268 512.045 247.612C511.228 240.956 515.983 234.903 522.674 234.081Z" fill="#DDDDDD"/>
<path d="M520.783 247.987C521.141 247.943 521.445 247.785 521.655 247.518L525.835 249.297C525.845 249.376 525.815 249.46 525.825 249.54C525.922 250.332 526.642 250.927 527.478 250.824C528.275 250.727 528.874 250.01 528.772 249.178C528.67 248.346 527.955 247.79 527.118 247.893C526.76 247.937 526.456 248.095 526.246 248.362L522.066 246.583C522.056 246.503 522.086 246.419 522.077 246.34C522.067 246.261 522.057 246.182 522.008 246.107L525.633 243.37C525.896 243.538 526.235 243.658 526.593 243.614C527.389 243.516 527.989 242.799 527.887 241.967C527.784 241.135 527.069 240.579 526.233 240.682C525.436 240.78 524.837 241.497 524.939 242.329C524.949 242.408 524.959 242.487 525.008 242.562L521.383 245.299C521.119 245.13 520.781 245.011 520.423 245.055C519.627 245.153 519.027 245.87 519.129 246.702C519.232 247.534 519.986 248.085 520.783 247.987Z" fill="#858990"/>
<path d="M442.9 147.332V211.558C442.9 212.436 443.622 213.155 444.505 213.155H543.654C544.536 213.155 545.259 212.436 545.259 211.558V147.332C545.259 146.454 544.536 145.736 543.654 145.736H444.505C443.622 145.736 442.9 146.454 442.9 147.332Z" fill="#4D61FC"/>
<path opacity="0.3" d="M442.9 147.332V211.558C442.9 212.436 443.622 213.155 444.505 213.155H543.654C544.536 213.155 545.259 212.436 545.259 211.558V147.332C545.259 146.454 544.536 145.736 543.654 145.736H444.505C443.622 145.736 442.9 146.454 442.9 147.332Z" fill="white"/>
<path d="M441.094 147.332V211.558C441.094 212.436 441.816 213.155 442.699 213.155H541.848C542.731 213.155 543.453 212.436 543.453 211.558V147.332C543.453 146.454 542.731 145.736 541.848 145.736H442.699C441.776 145.736 441.094 146.454 441.094 147.332Z" fill="#4D61FC"/>
<path opacity="0.7" d="M441.094 147.332V211.558C441.094 212.436 441.816 213.155 442.699 213.155H541.848C542.731 213.155 543.453 212.436 543.453 211.558V147.332C543.453 146.454 542.731 145.736 541.848 145.736H442.699C441.776 145.736 441.094 146.454 441.094 147.332Z" fill="white"/>
<path d="M501.482 179.465C501.482 185.852 496.266 191.041 489.846 191.041C483.426 191.041 478.21 185.852 478.21 179.465C478.21 173.079 483.426 167.889 489.846 167.889C496.306 167.889 501.482 173.079 501.482 179.465Z" fill="#4D61FC"/>
<path d="M487.559 184.335V174.556L494.862 179.465L487.559 184.335Z" fill="white"/>
<path d="M541.848 213.155H442.659C441.776 213.155 441.094 212.437 441.094 211.598V207.367H543.453V211.598C543.413 212.437 542.731 213.155 541.848 213.155Z" fill="white"/>
<path d="M533.221 209.842H448.236V210.88H533.221V209.842Z" fill="#B1B5BA"/>
<path d="M445.468 211.918H442.779C442.619 211.918 442.458 211.758 442.458 211.598V208.924C442.458 208.764 442.619 208.604 442.779 208.604H445.468C445.628 208.604 445.789 208.764 445.789 208.924V211.598C445.789 211.798 445.668 211.918 445.468 211.918Z" fill="#B1B5BA"/>
<path d="M443.902 209.443H443.421V211.079H443.902V209.443Z" fill="#61656D"/>
<path d="M444.785 209.443H444.304V211.079H444.785V209.443Z" fill="#61656D"/>
<path d="M541.888 212.037H539.2C539.039 212.037 538.879 211.878 538.879 211.718V209.044C538.879 208.884 539.039 208.724 539.2 208.724H541.888C542.049 208.724 542.209 208.884 542.209 209.044V211.718C542.209 211.918 542.049 212.037 541.888 212.037Z" fill="#C7C7C7"/>
<path d="M540.001 209.962H539.36V210.76H540.001V209.962Z" fill="#61656D"/>
<path d="M540.724 211.319L539.762 210.8V209.962L540.724 209.443V211.319Z" fill="#61656D"/>
<path d="M541.206 209.762C541.246 209.722 541.286 209.682 541.366 209.603C541.526 209.762 541.647 209.962 541.687 210.201C541.727 210.561 541.647 210.88 541.366 211.119C541.326 211.079 541.246 211 541.206 210.96C541.366 210.8 541.446 210.6 541.446 210.361C541.486 210.121 541.406 209.922 541.206 209.762Z" fill="#61656D"/>
<path d="M541.085 210.84C541.045 210.8 541.005 210.76 540.925 210.68C541.005 210.6 541.045 210.481 541.045 210.361C541.045 210.241 541.005 210.121 540.925 210.042C540.965 210.002 541.005 209.962 541.085 209.882C541.326 210.161 541.326 210.56 541.085 210.84Z" fill="#61656D"/>
<path d="M465.33 210.401C465.33 210.6 465.37 210.76 465.49 210.92H448.116V209.882H465.49C465.37 210.002 465.33 210.201 465.33 210.401Z" fill="#61656D"/>
<path d="M466.975 210.401C466.975 210.64 466.935 210.88 466.814 211.079C466.533 211.598 466.012 211.957 465.37 211.957C464.728 211.957 464.206 211.598 463.965 211.079C463.845 210.88 463.805 210.64 463.805 210.401C463.805 210.161 463.885 209.922 463.965 209.722C464.206 209.203 464.768 208.844 465.37 208.844C466.012 208.844 466.533 209.203 466.774 209.722C466.935 209.922 466.975 210.121 466.975 210.401Z" fill="#61656D"/>
<path d="M444.665 150.047C445.219 150.047 445.668 149.6 445.668 149.049C445.668 148.498 445.219 148.051 444.665 148.051C444.112 148.051 443.662 148.498 443.662 149.049C443.662 149.6 444.112 150.047 444.665 150.047Z" fill="#4D61FC"/>
<path d="M448.357 150.047C448.91 150.047 449.36 149.6 449.36 149.049C449.36 148.498 448.91 148.051 448.357 148.051C447.803 148.051 447.354 148.498 447.354 149.049C447.354 149.6 447.803 150.047 448.357 150.047Z" fill="#61656D"/>
<path d="M452.008 150.047C452.562 150.047 453.011 149.6 453.011 149.049C453.011 148.498 452.562 148.051 452.008 148.051C451.454 148.051 451.005 148.498 451.005 149.049C451.005 149.6 451.454 150.047 452.008 150.047Z" fill="#21252B"/>
<path d="M454.456 265.685H495.744C497.349 265.685 498.633 266.963 498.633 268.559V322.606C498.633 324.203 497.349 325.48 495.744 325.48H454.456C452.851 325.48 451.567 324.203 451.567 322.606V268.559C451.567 267.003 452.851 265.685 454.456 265.685Z" fill="#B1B5BA"/>
<path d="M453.091 265.685H494.38C495.985 265.685 497.269 266.963 497.269 268.559V322.606C497.269 324.203 495.985 325.48 494.38 325.48H453.091C451.486 325.48 450.203 324.203 450.203 322.606V268.559C450.203 267.003 451.486 265.685 453.091 265.685Z" fill="white"/>
<path d="M483.546 295.902H463.885C463.083 295.902 462.441 295.264 462.441 294.465V274.906C462.441 274.108 463.083 273.469 463.885 273.469H483.546C484.349 273.469 484.991 274.108 484.991 274.906V294.465C484.991 295.264 484.349 295.902 483.546 295.902Z" fill="#4D61FC"/>
<path opacity="0.7" d="M483.546 295.902H463.885C463.083 295.902 462.441 295.264 462.441 294.465V274.906C462.441 274.108 463.083 273.469 463.885 273.469H483.546C484.349 273.469 484.991 274.108 484.991 274.906V294.465C484.991 295.264 484.349 295.902 483.546 295.902Z" fill="white"/>
<path d="M473.676 280.974C474.783 280.974 475.682 280.08 475.682 278.978C475.682 277.876 474.783 276.982 473.676 276.982C472.568 276.982 471.669 277.876 471.669 278.978C471.669 280.08 472.568 280.974 473.676 280.974Z" fill="#4D61FC"/>
<path d="M462.441 294.465V289.076L470.064 283.408C470.385 283.169 470.787 283.209 471.068 283.448L473.716 285.763L479.093 281.572C479.414 281.333 479.815 281.333 480.136 281.612L484.951 285.803V294.505C484.951 295.303 484.309 295.942 483.506 295.942H463.845C463.083 295.902 462.441 295.264 462.441 294.465Z" fill="#4D61FC"/>
<path d="M485.793 304.844H461.598C461.197 304.844 460.876 304.524 460.876 304.125V302.648C460.876 302.249 461.197 301.93 461.598 301.93H485.793C486.195 301.93 486.516 302.249 486.516 302.648V304.125C486.516 304.524 486.195 304.844 485.793 304.844Z" fill="#4D61FC"/>
<path opacity="0.3" d="M485.793 304.844H461.598C461.197 304.844 460.876 304.524 460.876 304.125V302.648C460.876 302.249 461.197 301.93 461.598 301.93H485.793C486.195 301.93 486.516 302.249 486.516 302.648V304.125C486.516 304.524 486.195 304.844 485.793 304.844Z" fill="white"/>
<path d="M485.793 311.909H461.638C461.237 311.909 460.916 311.59 460.916 311.19C460.916 310.791 461.237 310.472 461.638 310.472H485.793C486.195 310.472 486.516 310.791 486.516 311.19C486.516 311.59 486.195 311.909 485.793 311.909Z" fill="#61656D"/>
<path d="M481.46 317.697H465.972C465.57 317.697 465.249 317.377 465.249 316.978C465.249 316.579 465.57 316.26 465.972 316.26H481.46C481.861 316.26 482.182 316.579 482.182 316.978C482.222 317.338 481.861 317.697 481.46 317.697Z" fill="#61656D"/>
<path d="M233.487 102.227H340.34C342.266 102.227 343.791 103.783 343.791 105.659V163.898C343.791 165.814 342.226 167.331 340.34 167.331H233.487C231.561 167.331 230.037 165.774 230.037 163.898V105.659C230.037 103.783 231.561 102.227 233.487 102.227Z" fill="#4D61FC"/>
<path opacity="0.2" d="M233.487 102.227H340.34C342.266 102.227 343.791 103.783 343.791 105.659V163.898C343.791 165.814 342.226 167.331 340.34 167.331H233.487C231.561 167.331 230.037 165.774 230.037 163.898V105.659C230.037 103.783 231.561 102.227 233.487 102.227Z" fill="white"/>
<path d="M231.842 102.227H338.695C340.621 102.227 342.146 103.783 342.146 105.659V163.898C342.146 165.814 340.581 167.331 338.695 167.331H231.842C229.916 167.331 228.392 165.774 228.392 163.898V105.659C228.351 103.783 229.916 102.227 231.842 102.227Z" fill="#4D61FC"/>
<path opacity="0.6" d="M231.842 102.227H338.695C340.621 102.227 342.146 103.783 342.146 105.659V163.898C342.146 165.814 340.581 167.331 338.695 167.331H231.842C229.916 167.331 228.392 165.774 228.392 163.898V105.659C228.351 103.783 229.916 102.227 231.842 102.227Z" fill="white"/>
<path d="M328.945 150.326H301.74C300.657 150.326 299.734 149.448 299.734 148.33V121.267C299.734 120.189 300.616 119.271 301.74 119.271H328.945C330.028 119.271 330.951 120.149 330.951 121.267V148.33C330.911 149.448 330.028 150.326 328.945 150.326Z" fill="#4D61FC"/>
<path d="M328.945 150.326H301.74C300.657 150.326 299.734 149.448 299.734 148.33V121.267C299.734 120.189 300.616 119.271 301.74 119.271H328.945C330.028 119.271 330.951 120.149 330.951 121.267V148.33C330.911 149.448 330.028 150.326 328.945 150.326Z" fill="#4D61FC"/>
<path opacity="0.8" d="M328.945 150.326H301.74C300.657 150.326 299.734 149.448 299.734 148.33V121.267C299.734 120.189 300.616 119.271 301.74 119.271H328.945C330.028 119.271 330.951 120.149 330.951 121.267V148.33C330.911 149.448 330.028 150.326 328.945 150.326Z" fill="white"/>
<path d="M315.222 129.689C316.751 129.689 317.991 128.456 317.991 126.935C317.991 125.414 316.751 124.181 315.222 124.181C313.693 124.181 312.453 125.414 312.453 126.935C312.453 128.456 313.693 129.689 315.222 129.689Z" fill="white"/>
<path d="M299.734 148.37V140.906L310.287 133.082C310.728 132.763 311.29 132.803 311.691 133.122L315.342 136.315L322.766 130.527C323.207 130.208 323.769 130.208 324.21 130.567L330.911 136.395V148.41C330.911 149.488 330.028 150.406 328.905 150.406H301.74C300.616 150.326 299.734 149.448 299.734 148.37Z" fill="#4D61FC"/>
<path d="M287.215 123.223H240.75C240.108 123.223 239.586 122.704 239.586 122.065V120.389C239.586 119.75 240.108 119.231 240.75 119.231H287.215C287.857 119.231 288.378 119.75 288.378 120.389V122.065C288.419 122.704 287.857 123.223 287.215 123.223Z" fill="white"/>
<path d="M287.375 133.681H240.589C240.028 133.681 239.546 133.242 239.546 132.643C239.546 132.084 239.988 131.605 240.589 131.605H287.375C287.937 131.605 288.418 132.044 288.418 132.643C288.418 133.242 287.937 133.681 287.375 133.681Z" fill="#4D61FC"/>
<path d="M265.989 150.446H240.589C240.028 150.446 239.546 150.007 239.546 149.408C239.546 148.849 239.988 148.37 240.589 148.37H265.989C266.55 148.37 267.032 148.809 267.032 149.408C267.032 150.007 266.55 150.446 265.989 150.446Z" fill="#4D61FC"/>
<path d="M287.375 142.063H240.589C240.028 142.063 239.546 141.624 239.546 141.026C239.546 140.467 239.988 139.988 240.589 139.988H287.375C287.937 139.988 288.418 140.427 288.418 141.026C288.418 141.624 287.937 142.063 287.375 142.063Z" fill="#4D61FC"/>
<path opacity="0.2" d="M287.375 133.681H240.589C240.028 133.681 239.546 133.242 239.546 132.643C239.546 132.084 239.988 131.605 240.589 131.605H287.375C287.937 131.605 288.418 132.044 288.418 132.643C288.418 133.242 287.937 133.681 287.375 133.681Z" fill="white"/>
<path opacity="0.2" d="M265.989 150.446H240.589C240.028 150.446 239.546 150.007 239.546 149.408C239.546 148.849 239.988 148.37 240.589 148.37H265.989C266.55 148.37 267.032 148.809 267.032 149.408C267.032 150.007 266.55 150.446 265.989 150.446Z" fill="white"/>
<path opacity="0.2" d="M287.375 142.063H240.589C240.028 142.063 239.546 141.624 239.546 141.026C239.546 140.467 239.988 139.988 240.589 139.988H287.375C287.937 139.988 288.418 140.427 288.418 141.026C288.418 141.624 287.937 142.063 287.375 142.063Z" fill="white"/>
<path d="M456.863 127.055C463.6 127.055 469.061 121.622 469.061 114.92C469.061 108.218 463.6 102.785 456.863 102.785C450.126 102.785 444.665 108.218 444.665 114.92C444.665 121.622 450.126 127.055 456.863 127.055Z" fill="#DDDDDD"/>
<path d="M453.814 113.283H454.857L456.903 110.25L457.064 108.533C457.104 108.254 457.385 108.094 457.626 108.214C458.067 108.414 458.508 109.012 458.549 110.689C458.549 112.565 458.549 112.685 458.549 112.685L461.718 112.725C462.12 112.725 462.441 113.044 462.441 113.443C462.481 114.641 462.521 117.036 462.521 118.393C462.521 119.311 461.959 120.149 461.116 120.389C460.996 120.429 460.876 120.429 460.755 120.429C459.913 120.429 455.579 119.75 455.579 119.75H453.814V113.283Z" fill="#858990"/>
<path d="M450.845 113.283L451.486 119.83H453.252V113.283H450.845Z" fill="#858990"/>
<path d="M355.989 282.77C348.847 282.77 343.069 277.022 343.069 269.917C343.069 262.811 348.847 257.063 355.989 257.063C363.131 257.063 368.909 262.811 368.909 269.917C368.909 276.982 363.131 282.77 355.989 282.77Z" fill="#DDDDDD"/>
<path d="M360.122 264.408C360.042 264.168 359.801 264.009 359.56 264.089C359.319 264.168 359.159 264.408 359.239 264.647V264.727L350.251 269.557C350.171 269.358 349.93 269.238 349.689 269.318C349.449 269.398 349.288 269.637 349.368 269.877L350.532 273.788C350.612 274.028 350.853 274.188 351.094 274.108C351.335 274.028 351.455 273.828 351.415 273.589L352.98 273.469V274.028C352.98 274.587 353.421 275.066 354.023 275.066H356.631C357.193 275.066 357.674 274.627 357.674 274.028V273.11L361.647 272.83V272.91C361.727 273.15 361.968 273.309 362.208 273.23C362.449 273.15 362.61 272.91 362.529 272.671L360.122 264.408ZM356.952 274.108C356.952 274.267 356.792 274.427 356.631 274.427H354.023C353.862 274.427 353.702 274.267 353.702 274.108V273.469L356.912 273.23V274.108H356.952Z" fill="#858990"/>
<path d="M537.314 410.423H82.8581C82.6976 410.423 82.6174 410.343 82.6174 410.184C82.6174 410.024 82.6976 409.944 82.8581 409.944H537.354C537.515 409.944 537.595 410.024 537.595 410.184C537.595 410.343 537.434 410.423 537.314 410.423Z" fill="#B2B6BB"/>
<path d="M116.764 340.689L114.477 396.891" stroke="#21252B" stroke-width="0.7353" stroke-miterlimit="10" stroke-linecap="round"/>
<path d="M100.152 365.118L110.304 376.973" stroke="#21252B" stroke-width="0.7353" stroke-miterlimit="10" stroke-linecap="round"/>
<path d="M123.786 379.208L114.637 393.019" stroke="#21252B" stroke-width="0.7353" stroke-miterlimit="10" stroke-linecap="round"/>
<path d="M128.24 356.017L115.64 370.347" stroke="#21252B" stroke-width="0.7353" stroke-miterlimit="10" stroke-linecap="round"/>
<path d="M127.389 363.711C130.376 360.219 131.279 356.102 129.406 354.517C127.532 352.931 123.592 354.476 120.605 357.969C117.618 361.461 116.716 365.578 118.589 367.163C120.462 368.749 124.402 367.203 127.389 363.711Z" fill="#4D61FC"/>
<path opacity="0.3" d="M129.523 354.66L118.529 367.114C118.569 367.114 118.569 367.154 118.609 367.154C120.495 368.75 124.428 367.194 127.397 363.721C130.326 360.328 131.249 356.336 129.523 354.66Z" fill="black"/>
<path d="M106.225 372.11C107.676 370.915 107.021 367.744 104.761 365.026C102.502 362.308 99.4931 361.072 98.0414 362.267C96.5901 363.46 97.2453 366.632 99.5048 369.35C101.765 372.069 104.773 373.304 106.225 372.11Z" fill="#4D61FC"/>
<path opacity="0.3" d="M97.9452 362.364L106.251 372.063L106.211 372.103C104.766 373.301 101.757 372.063 99.4699 369.349C97.3032 366.714 96.621 363.601 97.9452 362.364Z" fill="black"/>
<path d="M101.677 381.204L112.39 389.507" stroke="#21252B" stroke-width="0.7353" stroke-miterlimit="10" stroke-linecap="round"/>
<path d="M109.04 386.818C110.216 385.355 108.925 382.382 106.157 380.179C103.388 377.976 100.189 377.376 99.0129 378.84C97.8364 380.303 99.1272 383.275 101.896 385.478C104.665 387.682 107.863 388.281 109.04 386.818Z" fill="#4D61FC"/>
<path opacity="0.3" d="M98.9483 378.969L109.06 386.792L109.02 386.832C107.856 388.309 104.646 387.71 101.877 385.515C99.189 383.36 97.905 380.446 98.9483 378.969Z" fill="black"/>
<path d="M120.95 344.915C121.159 340.334 119.373 336.532 116.96 336.423C114.546 336.314 112.421 339.939 112.212 344.52C112.002 349.101 113.789 352.902 116.202 353.012C118.615 353.121 120.741 349.495 120.95 344.915Z" fill="#4D61FC"/>
<path opacity="0.3" d="M112.23 344.561C112.43 340.01 114.557 336.378 116.964 336.498L116.202 353.063C113.795 352.903 112.029 349.111 112.23 344.561Z" fill="black"/>
<path d="M124.76 384.423C126.766 381.303 126.984 377.878 125.248 376.774C123.512 375.669 120.479 377.303 118.473 380.423C116.467 383.543 116.248 386.967 117.984 388.072C119.72 389.177 122.754 387.543 124.76 384.423Z" fill="#4D61FC"/>
<path opacity="0.3" d="M118.489 380.406C116.523 383.44 116.282 386.793 117.887 387.95L125.23 376.773L124.789 376.574C123.063 375.935 120.335 377.532 118.489 380.406Z" fill="black"/>
<path d="M113.473 396.213L107.214 357.414" stroke="#21252B" stroke-width="0.7353" stroke-miterlimit="10" stroke-linecap="round"/>
<path d="M107.807 362.845C109.951 362.504 111.159 358.928 110.504 354.857C109.849 350.786 107.58 347.763 105.436 348.105C103.291 348.446 102.084 352.022 102.739 356.093C103.393 360.163 105.663 363.187 107.807 362.845Z" fill="#4D61FC"/>
<path opacity="0.3" d="M102.72 356.096C102.078 352.025 103.282 348.432 105.408 348.073L107.776 362.842C105.649 363.242 103.362 360.208 102.72 356.096Z" fill="black"/>
<path d="M110.705 409.944H118.208C119.613 409.944 120.736 408.827 120.736 407.429V397.53H108.137V407.429C108.177 408.827 109.3 409.944 110.705 409.944Z" fill="#868A91"/>
<path d="M121.057 396.213H107.896C107.535 396.213 107.214 396.492 107.214 396.891C107.214 397.251 107.495 397.57 107.896 397.57H121.057C121.418 397.57 121.739 397.291 121.739 396.891C121.699 396.532 121.418 396.213 121.057 396.213Z" fill="#868A91"/>
<path d="M120.776 397.53H109.3C108.939 397.53 108.618 397.251 108.618 396.851C108.618 396.492 108.899 396.173 109.3 396.173H107.896C107.535 396.173 107.214 396.452 107.214 396.851C107.214 397.211 107.495 397.53 107.896 397.53H108.177V397.73V407.389C108.177 408.787 109.3 409.904 110.705 409.904H114.717C114.757 409.904 114.798 409.904 114.798 409.904C113.032 409.904 111.467 408.667 111.146 406.91L109.341 397.69H120.776V397.53Z" fill="#61656D"/>
<path d="M336.047 174.436C335.726 174.675 335.646 175.075 335.846 175.394L338.936 180.663L338.655 180.423C338.254 179.984 337.572 179.984 337.13 180.383C336.689 180.783 336.649 181.421 337.01 181.86L337.652 182.659L337.411 182.379C337.01 181.94 336.328 181.9 335.927 182.299C335.525 182.699 335.525 183.337 335.886 183.736L336.488 184.375L336.007 183.896C335.646 183.537 335.084 183.497 334.723 183.856C334.402 184.136 334.322 184.654 334.562 185.014L337.451 190.203C338.214 191.56 339.297 192.758 340.581 193.676L343.029 198.506L349.609 194.554L346.6 190.203L344.152 184.335C343.911 183.537 343.51 182.818 343.029 182.14L337.05 174.596C336.849 174.236 336.368 174.156 336.047 174.436Z" fill="#966363"/>
<g opacity="0.15">
<path opacity="0.15" d="M336.97 187.129C336.729 187.129 336.528 187.049 336.328 186.89L334.963 185.652L334.602 184.974L336.689 186.491C336.849 186.61 337.05 186.65 337.21 186.531C337.291 186.451 337.371 186.371 337.371 186.251C337.371 186.131 337.371 186.012 337.291 185.932L335.686 183.856L335.886 183.697L338.294 185.692C338.454 185.852 338.735 185.892 338.896 185.732C339.016 185.652 339.096 185.533 339.096 185.413C339.136 185.293 339.096 185.173 339.016 185.054L337.331 182.499L337.572 182.339L339.457 184.734C339.457 184.734 339.457 184.774 339.498 184.774L339.698 185.014C339.859 185.253 340.22 185.333 340.461 185.134L340.862 184.854L340.541 185.373C340.541 185.373 340.541 185.373 340.26 185.772C340.059 185.812 339.819 185.732 339.618 185.652C339.538 185.852 339.417 186.052 339.217 186.171C338.815 186.451 338.294 186.371 337.933 186.052L337.852 185.972C337.893 186.091 337.893 186.171 337.852 186.291C337.812 186.531 337.692 186.77 337.491 186.93C337.371 187.089 337.17 187.129 336.97 187.129Z" fill="black"/>
</g>
<path d="M341.343 185.333L339.658 185.453C338.414 185.453 337.491 184.654 337.291 183.577V183.537C337.251 183.217 337.572 183.098 337.652 183.098L342.748 182.219" fill="#966363"/>
<path opacity="0.15" d="M342.788 182.419L337.692 183.297C337.612 183.297 337.532 183.417 337.532 183.497C337.732 184.535 338.695 185.213 339.738 185.173L341.263 185.054C341.263 185.054 339.819 186.052 340.059 188.127" stroke="black" stroke-width="1.3154" stroke-miterlimit="10"/>
<g opacity="0.15">
<path opacity="0.15" d="M339.738 182.698L338.816 180.743L339.016 180.623L340.3 182.579L339.738 182.698Z" fill="black"/>
</g>
<path d="M348.887 192.837L342.547 197.388L341.303 195.113L347.442 191.001L348.887 192.837Z" fill="white"/>
<path d="M470.265 216.388L471.308 212.676C471.75 211.119 472.472 209.682 473.395 208.405L475.2 205.97C475.281 205.85 475.401 205.85 475.521 205.93C476.163 206.449 476.404 207.327 476.043 208.086L474.639 211.119L482.222 204.812C482.543 204.573 482.985 204.573 483.225 204.852C483.466 205.132 483.506 205.531 483.225 205.81L479.534 210.161L484.951 205.132C485.232 204.852 485.673 204.852 485.954 205.132C486.275 205.411 486.275 205.89 485.994 206.209L481.139 211.678L485.553 207.726C485.834 207.447 486.275 207.487 486.556 207.766C486.837 208.046 486.837 208.485 486.556 208.804L482.583 213.075L486.235 210.321C486.476 210.121 486.877 210.121 487.077 210.361C487.318 210.6 487.318 210.999 487.077 211.239L482.543 216.029C480.938 217.745 479.052 219.222 477.006 220.42L476.565 220.659L468.5 227.725L463.083 221.577L470.265 216.388Z" fill="#966363"/>
<path d="M395.953 405.114L375.329 405.633L383.555 399.805C384.919 398.807 385.722 397.37 385.762 395.694L386.123 389.188L397.318 389.227L395.953 405.114Z" fill="#966363"/>
<path opacity="0.15" d="M393.666 397.61V397.49C393.747 396.772 393.225 396.133 392.543 396.053L385.842 395.095L385.922 393.818H397.037L396.034 404.675L387.046 403.677L390.015 402.52C392.021 401.681 393.466 399.805 393.666 397.61Z" fill="black"/>
<path d="M433.069 404.715H423.8L422.075 389.108L433.029 389.148L433.069 404.715Z" fill="#966363"/>
<path opacity="0.15" d="M430.742 402.081L430.501 397.291C430.461 396.652 429.979 396.173 429.378 396.053L422.717 395.055L422.556 393.738L432.989 393.778L433.029 404.835L430.742 402.081Z" fill="black"/>
<path d="M431.625 271.633L433.671 393.778H421.634L411.161 289.755C411.081 289.076 410.519 288.557 409.837 288.557C409.155 288.557 408.593 289.076 408.553 289.755L397.398 393.778H385.361L388.129 271.633H431.625Z" fill="#4D61FC"/>
<path opacity="0.2" d="M431.625 271.633L433.671 393.778H421.634L411.161 289.755C411.081 289.076 410.519 288.557 409.837 288.557C409.155 288.557 408.593 289.076 408.553 289.755L397.398 393.778H385.361L388.129 271.633H431.625Z" fill="white"/>
<path d="M433.992 393.778H421.152L420.911 391.183H433.952L433.992 393.778Z" fill="#4D61FC"/>
<path opacity="0.15" d="M433.992 393.778H428.615L428.495 391.183H433.952L433.992 393.778Z" fill="black"/>
<path d="M397.679 393.778H384.879L385.08 391.183H397.96L397.679 393.778Z" fill="#4D61FC"/>
<path opacity="0.15" d="M397.679 393.778H390.055L390.336 391.183H397.96L397.679 393.778Z" fill="black"/>
<path opacity="0.15" d="M431.625 271.633L433.711 391.104L428.535 391.144L426.047 266.204L431.625 271.633Z" fill="black"/>
<path d="M401.932 186.491C399.725 186.411 398 184.535 398.12 182.379C398.201 180.184 400.086 178.467 402.253 178.587C402.374 178.587 402.695 178.507 402.654 178.627C401.772 182.06 402.815 186.491 401.932 186.491Z" fill="#21252B"/>
<path d="M419.667 202.178C419.667 202.378 414.692 213.235 411.041 213.395C407.871 213.554 405.864 203.336 405.905 203.136L406.145 197.827V195.073C405.985 194.434 405.222 193.835 405.222 192.997C404.982 189.125 404.54 185.613 404.54 185.613C404.54 185.613 417.26 177.15 418.062 187.01L418.383 188.447L419.667 202.178Z" fill="#966363"/>
<path d="M402.614 174.037C402.614 174.037 398.08 197.308 408.874 198.426C418.223 199.384 418.825 184.894 418.825 184.894L418.103 175.553L410.84 172.919L402.614 174.037Z" fill="#966363"/>
<path d="M405.704 179.585C406.787 178.068 408.593 176.951 410.519 176.991C412.686 177.03 414.451 178.747 414.25 181.262L414.21 181.82C414.17 182.339 414.571 182.818 415.093 182.858C416.096 182.898 416.899 183.697 416.859 184.694L416.819 186.331C416.819 186.531 416.979 186.69 417.18 186.69C417.18 186.69 417.661 186.77 417.741 186.371L417.982 184.615L416.297 174.715L408.031 172.56L404.58 175.474L405.704 179.585Z" fill="#21252B"/>
<path opacity="0.15" d="M418.383 188.487C418.383 188.487 417.741 188.447 417.22 187.608L418.504 189.804L418.383 188.487Z" fill="black"/>
<path opacity="0.15" d="M415.013 196.191C414.17 197.188 412.766 198.426 410.519 198.745C408.874 199.903 407.068 200.142 406.065 200.102L406.185 197.468L406.547 197.667C407.71 198.266 409.395 198.665 411.281 198.146C412.926 197.707 414.01 196.749 414.692 195.911C414.732 195.831 414.893 195.831 414.973 195.871C415.053 195.991 415.053 196.111 415.013 196.191Z" fill="black"/>
<path d="M406.707 192.199L411 191.201C411 191.201 411.121 192.877 409.395 193.356C407.349 193.875 406.707 192.199 406.707 192.199Z" fill="white"/>
<path d="M410.519 186.69C411.008 186.69 411.402 186.297 411.402 185.812C411.402 185.327 411.008 184.934 410.519 184.934C410.033 184.934 409.636 185.327 409.636 185.812C409.636 186.297 410.033 186.69 410.519 186.69Z" fill="#21252B"/>
<path d="M410.117 185.732C410.205 185.732 410.278 185.661 410.278 185.573C410.278 185.484 410.205 185.413 410.117 185.413C410.029 185.413 409.957 185.484 409.957 185.573C409.957 185.661 410.029 185.732 410.117 185.732Z" fill="white"/>
<path d="M403.658 186.93C404.147 186.93 404.54 186.537 404.54 186.052C404.54 185.567 404.147 185.173 403.658 185.173C403.172 185.173 402.775 185.567 402.775 186.052C402.775 186.537 403.172 186.93 403.658 186.93Z" fill="#21252B"/>
<path d="M403.296 185.932C403.384 185.932 403.456 185.86 403.456 185.772C403.456 185.684 403.384 185.613 403.296 185.613C403.208 185.613 403.136 185.684 403.136 185.772C403.136 185.86 403.208 185.932 403.296 185.932Z" fill="white"/>
<g opacity="0.3">
<path opacity="0.3" d="M406.787 190.881L407.911 190.921C408.031 190.921 408.151 190.802 408.192 190.682C408.192 190.562 408.071 190.442 407.951 190.402L406.827 190.363C406.546 190.323 406.306 190.083 406.346 189.844C406.386 189.564 406.627 189.325 406.867 189.365C406.988 189.365 407.108 189.245 407.148 189.125C407.188 189.005 407.028 188.886 406.908 188.846C406.346 188.846 405.864 189.245 405.824 189.804C405.784 190.402 406.225 190.842 406.787 190.881Z" fill="black"/>
</g>
<path d="M399.926 185.174L399.966 186.132C400.006 187.968 401.571 189.445 403.457 189.405C405.303 189.365 406.787 187.808 406.747 185.932L406.707 184.974C406.707 184.695 406.627 184.415 406.426 184.216L407.75 184.176C407.59 184.375 407.469 184.655 407.51 184.934L407.55 185.892C407.59 187.728 409.155 189.205 411.041 189.165C412.886 189.125 414.371 187.569 414.331 185.692L414.291 184.734C414.251 184.056 413.689 183.497 413.007 183.537L408.753 183.657H408.713L405.423 183.737H404.901L401.13 183.856C400.447 183.896 399.926 184.495 399.926 185.174ZM408.673 184.176L412.967 184.056C413.368 184.056 413.729 184.375 413.729 184.774L413.769 185.732C413.809 187.329 412.525 188.606 410.96 188.686C409.355 188.726 408.071 187.449 407.991 185.892L407.951 184.934C407.991 184.535 408.312 184.216 408.673 184.176ZM400.407 185.174C400.407 184.774 400.728 184.415 401.13 184.415L404.901 184.295H405.423C405.824 184.295 406.185 184.615 406.185 185.014L406.226 185.972C406.266 187.569 404.982 188.846 403.417 188.926C401.812 188.966 400.528 187.688 400.447 186.132L400.407 185.174Z" fill="#21252B"/>
<path d="M367.906 408.507V408.068C367.906 406.591 369.11 405.434 370.554 405.434H374.246C375.008 405.434 375.771 405.154 376.332 404.595L385.762 395.694L388.691 399.526C389.654 400.803 391.62 400.843 392.623 399.606C393.105 399.047 393.827 398.688 394.549 398.688H396.515V408.347L367.906 408.507Z" fill="#3F4249"/>
<path d="M367.906 408.507V409.944H396.596V408.347L367.906 408.507Z" fill="black"/>
<path d="M387.648 398.089L381.268 403.238C380.545 403.797 379.542 403.757 378.9 403.118L378.419 402.639L385.762 395.694C386.163 395.574 386.564 395.734 386.805 396.053L387.567 397.131C387.768 397.37 387.808 397.69 387.688 398.009L387.648 398.089Z" fill="black"/>
<path d="M425.004 397.65H424.242C423.519 397.65 422.918 398.169 422.837 398.887L422.677 401.761C422.637 402.639 422.396 403.518 421.995 404.316L421.714 404.835C421.192 405.833 420.951 406.95 420.951 408.068V408.587H435.637C435.637 407.15 435.196 405.793 434.393 404.595C433.791 403.717 433.43 402.719 433.31 401.642L432.989 398.768C432.869 398.129 432.267 397.65 431.585 397.65H431.063" fill="#3F4249"/>
<path d="M435.557 408.547H420.911V409.944H435.557V408.547Z" fill="black"/>
<path d="M426.93 396.333H429.097C430.18 396.333 431.063 397.291 430.902 398.368L430.421 402.28C430.26 403.478 429.217 404.396 428.013 404.396C426.769 404.396 425.726 403.478 425.606 402.24L425.164 398.329C425.004 397.251 425.847 396.333 426.93 396.333Z" fill="black"/>
<path d="M424.121 398.927H431.905" stroke="white" stroke-width="1.3154" stroke-miterlimit="10" stroke-linecap="round" stroke-linejoin="round"/>
<path d="M424.362 400.763H431.665" stroke="white" stroke-width="1.3154" stroke-miterlimit="10" stroke-linecap="round" stroke-linejoin="round"/>
<path d="M424.563 402.56H431.464" stroke="white" stroke-width="1.3154" stroke-miterlimit="10" stroke-linecap="round" stroke-linejoin="round"/>
<path d="M380.345 399.925L383.194 402.599" stroke="white" stroke-width="1.3154" stroke-miterlimit="10" stroke-linecap="round" stroke-linejoin="round"/>
<path d="M381.87 398.528L384.799 401.282" stroke="white" stroke-width="1.3154" stroke-miterlimit="10" stroke-linecap="round" stroke-linejoin="round"/>
<path d="M383.434 397.211L386.323 399.925" stroke="white" stroke-width="1.3154" stroke-miterlimit="10" stroke-linecap="round" stroke-linejoin="round"/>
<path opacity="0.3" d="M388.851 273.868H426.368" stroke="black" stroke-width="1.4907" stroke-miterlimit="10" stroke-linecap="round" stroke-linejoin="round"/>
<path d="M473.716 223.893L449.922 246.445C447.554 248.681 443.702 248.162 442.057 245.368L433.671 229.641L432.307 270.635C432.307 271.194 431.825 271.633 431.264 271.633H388.089C387.848 271.633 387.648 271.433 387.608 271.194L385.2 220.859L366.101 230C363.733 231.157 360.844 230.239 359.56 227.924L342.387 197.228L349.007 192.678L365.82 213.394L384.036 204.134C385.481 203.415 387.046 202.936 388.651 202.817L406.025 201.18L411.041 210.68L419.427 201.22L434.393 205.172C437.483 205.97 440.051 208.086 441.455 210.92L450.885 229.88L467.898 217.785L473.716 223.893Z" fill="#21252B"/>
<path opacity="0.15" d="M474.639 211.04C474.639 211.04 476.725 212.756 475.241 216.149" stroke="black" stroke-width="1.403" stroke-miterlimit="10"/>
<path d="M420.911 178.428C420.59 175.913 419.266 174.037 417.059 173.558C416.056 173.358 415.093 173.438 414.25 173.677C413.889 173.797 413.528 173.558 413.448 173.238C413.007 171.562 411.522 170.324 409.716 170.324C408.432 170.324 407.309 170.923 406.627 171.881C406.386 172.201 405.985 172.24 405.704 172.001C405.704 172.001 403.136 169.965 399.765 172.041C397.518 173.438 396.555 176.472 397.88 179.106C399.244 181.781 402.775 182.579 404.942 180.543C405.704 179.825 406.306 178.747 406.426 177.15C406.506 176.232 406.466 175.314 406.185 174.516H407.309C408.633 174.436 410.719 174.196 412.686 174.476C412.645 174.516 412.605 174.516 412.565 174.556L416.056 175.713C416.056 175.713 417.139 184.894 417.701 184.814C420.149 184.295 421.232 180.703 420.911 178.428Z" fill="#21252B"/>
<path d="M403.056 182.1L404.139 181.86C404.219 181.82 404.34 181.701 404.299 181.581C404.259 181.461 404.139 181.381 404.019 181.421L402.935 181.661C402.815 181.701 402.654 181.701 402.534 181.741C402.253 181.741 401.691 181.741 401.13 181.541C401.009 181.501 400.889 181.581 400.849 181.701C400.809 181.82 400.889 181.94 401.009 181.98C401.611 182.14 402.253 182.18 402.534 182.18C402.694 182.14 402.855 182.1 403.056 182.1Z" fill="#966363"/>
<path d="M410.479 210.999L407.148 208.006L411.361 207.327L415.374 208.325L411.723 211.039C411.321 211.359 410.8 211.319 410.479 210.999Z" fill="white"/>
<path d="M411.361 207.327L417.781 208.924L420.791 201.579L420.63 199.543C420.59 199.264 420.35 199.064 420.069 199.064H419.386L419.587 201.14L411.361 207.327Z" fill="white"/>
<path d="M406.025 201.18L406.105 199.464H405.584C405.222 199.464 404.942 199.743 404.942 200.062L404.861 208.365L411.361 207.287L406.025 201.18Z" fill="white"/>
<path opacity="0.15" d="M416.778 208.804L411.321 207.447L405.543 208.405" stroke="black" stroke-width="0.7398" stroke-miterlimit="10"/>
<path d="M469.944 216.628L475.2 221.977L473.475 223.653L468.098 217.985L469.944 216.628Z" fill="white"/>
<path d="M417.982 183.816C417.982 183.816 418.343 182.1 420.189 182.619C422.275 183.217 421.914 187.409 419.146 188.367C417.42 188.726 417.661 187.688 417.781 186.291C417.982 183.816 417.982 183.816 417.982 183.816Z" fill="#966363"/>
<path opacity="0.3" d="M420.43 183.776C420.069 183.577 419.707 183.537 419.427 183.656C419.146 183.776 418.905 183.976 418.745 184.335C418.584 184.694 418.504 185.133 418.584 185.572V185.932C418.584 186.051 418.704 186.131 418.825 186.091C418.945 186.091 419.025 185.972 418.985 185.852V185.493C418.985 185.373 418.945 184.814 419.106 184.455C419.226 184.215 419.386 184.056 419.547 183.976C419.707 183.936 419.948 183.936 420.189 184.056C420.269 184.096 420.43 184.056 420.47 183.976C420.55 183.976 420.51 183.856 420.43 183.776Z" fill="black"/>
<path opacity="0.4" d="M450.885 229.88L449.119 226.327L447.835 230.638C447.675 231.197 448.277 231.636 448.758 231.317L450.885 229.88Z" fill="black"/>
<path opacity="0.4" d="M365.82 213.395L366.823 214.552C367.144 214.911 367.705 214.911 368.026 214.552L371.959 210.281L365.82 213.395Z" fill="black"/>
<path d="M385.24 220.859L386.604 220.22C386.805 220.101 387.046 220.34 386.925 220.54L385.361 223.972L385.24 220.859Z" fill="black"/>
<path d="M386.805 254.229H432.909L432.387 270.595C432.387 271.194 431.865 271.673 431.263 271.673H388.089C387.848 271.673 387.648 271.473 387.607 271.234L386.805 254.229Z" fill="#858990"/>
<path d="M385.842 234.031H433.551L432.909 254.229H386.805L385.842 234.031Z" fill="#3F4249"/>
<path opacity="0.4" d="M433.711 229.641L432.788 227.525C432.307 226.487 430.782 226.727 430.662 227.884L426.368 271.673H431.223C431.865 271.673 432.387 271.154 432.387 270.555L433.711 229.641Z" fill="black"/>
<path d="M154.762 348.792L137.91 278.898C137.388 276.782 138.993 274.786 141.2 274.786H136.626C134.459 274.786 132.854 276.822 133.335 278.898L150.188 348.792L204.918 348.912L154.762 348.792Z" fill="#858990"/>
<path d="M165.475 343.004L152.595 286.003C152.555 285.803 152.355 285.644 152.154 285.644H151.392C151.592 285.683 151.713 285.803 151.753 285.963L164.633 342.964C164.713 343.243 164.472 343.523 164.191 343.523H163.549C163.59 343.523 163.59 343.523 163.63 343.523L164.994 343.483C165.315 343.563 165.556 343.283 165.475 343.004Z" fill="#858990"/>
<path d="M190.794 277.301C190.433 275.824 189.069 274.746 187.544 274.746H141.2C139.033 274.746 137.428 276.782 137.91 278.858L154.762 348.752L208.53 348.872L190.794 277.301ZM165.034 343.563L163.67 343.603C163.469 343.603 163.269 343.443 163.228 343.243L150.348 286.202C150.268 285.923 150.509 285.684 150.79 285.684H152.194C152.395 285.684 152.595 285.843 152.635 286.043L165.516 343.044C165.556 343.283 165.315 343.563 165.034 343.563Z" fill="#B1B5BA"/>
<path d="M190.915 276.184C191.396 276.503 192.078 276.543 192.801 276.423C195.77 275.944 198.017 275.545 198.258 272.551C198.579 267.841 197.576 257.423 193.804 251.475C191.236 252.792 190.835 253.391 190.835 253.391C190.835 253.391 187.023 252.234 186.942 252.194C186.942 252.154 185.699 272.791 190.915 276.184Z" fill="#21252B"/>
<path d="M181.566 273.15L179.439 248.042C178.155 247.843 176.109 249.519 175.507 250.198C170.692 255.666 169.528 266.963 170.21 274.507C170.451 277.421 172.337 277.82 175.226 278.379C178.115 278.938 181.485 279.217 182.729 277.78C183.331 277.022 181.566 273.15 181.566 273.15Z" fill="#21252B"/>
<path d="M254.112 325.321C253.63 322.088 250.902 319.772 247.692 319.732H244.201L242.837 320.052V320.251L213.144 324.004C209.412 324.483 206.363 327.117 205.4 330.789L184.695 409.944H189.671L210.054 331.987C210.496 330.27 211.94 328.993 213.746 328.754L247.331 324.483C248.294 324.363 249.176 325.001 249.337 325.959L262.177 409.864H267.072L254.112 325.321Z" fill="#B1B5BA"/>
<path d="M186.541 409.944H181.566L202.23 330.789C203.193 327.157 206.202 324.483 209.974 324.004L243.559 319.733C247.13 319.293 250.38 321.728 250.942 325.281L263.902 409.944H259.007L246.167 326.039C246.006 325.081 245.164 324.443 244.161 324.562L210.576 328.834C208.81 329.073 207.366 330.31 206.884 332.067L186.541 409.944Z" fill="#858990"/>
<path d="M267.232 353.622H194.486C193.162 353.622 192.078 352.544 192.078 351.227C192.078 349.91 193.162 348.832 194.486 348.832H267.232C268.557 348.832 269.64 349.91 269.64 351.227C269.68 352.544 268.597 353.622 267.232 353.622Z" fill="#B1B5BA"/>
<path d="M209.653 353.622H147.54C146.216 353.622 145.132 352.544 145.132 351.227C145.132 349.91 146.216 348.832 147.54 348.832H209.613C210.937 348.832 212.021 349.91 212.021 351.227C212.061 352.544 210.977 353.622 209.653 353.622Z" fill="#858990"/>
<path d="M219.002 350.388C219.323 351.386 219.042 352.304 218.44 352.903C217.999 353.342 217.397 353.622 216.715 353.622H147.54C147.219 353.622 146.938 353.582 146.657 353.462L147.861 348.792H216.675C217.718 348.792 218.681 349.43 219.002 350.388Z" fill="#858990"/>
<path d="M290.545 409.944H305.231C305.472 409.505 306.154 408.188 305.311 407.908L295.32 403.637C293.555 403.039 292.351 402.639 291.308 401.322C291.107 401.043 290.906 400.723 290.786 400.404L283.002 382.841L273.412 387.431L281.557 401.482C282.279 402.52 282.44 403.877 282.48 405.114L282.52 407.11C282.6 408.627 283.804 409.824 285.289 409.864H285.329L290.545 409.944Z" fill="#F69797"/>
<path opacity="0.15" d="M305.512 409.306C305.391 409.585 305.271 409.824 305.191 409.984H290.505L285.249 409.904H285.208C283.684 409.864 282.48 408.627 282.44 407.15L282.4 405.154C282.36 403.917 282.159 402.52 281.477 401.522L278.548 396.492L278.708 395.095L282.48 398.568L285.971 405.074C285.971 405.074 288.659 408.707 296.684 409.026C304.709 409.306 304.709 409.306 304.709 409.306H305.512Z" fill="black"/>
<path d="M288.82 395.933L280.273 399.446L274.856 390.664C261.735 371.305 258.566 365.078 253.349 348.912H206.523C199.983 348.912 194.686 343.682 194.566 337.216L194.446 329.792H255.275C259.127 329.792 262.618 332.107 264.103 335.659L288.82 395.933Z" fill="#3F4249"/>
<path opacity="0.2" d="M274.014 382.96C263.661 365.237 260.973 350.708 256.078 336.058C255.757 335.06 254.192 329.752 248.213 329.752H223.095C216.916 329.592 213.465 339.052 208.329 335.659L195.73 329.752H194.486L194.606 337.176C194.727 343.682 200.023 348.872 206.564 348.872H253.389C259.007 365.557 261.816 371.385 274.896 390.624L280.313 399.366L282.52 398.448C282.48 398.528 275.9 386.154 274.014 382.96Z" fill="black"/>
<path d="M294.156 403.238L291.548 403.637C288.298 404.156 284.928 403.677 281.918 402.36L282.48 408.268C282.6 409.226 283.403 409.944 284.406 409.944H305.873C306.916 409.944 307.157 408.507 306.154 408.188L294.156 403.238Z" fill="#4D61FC"/>
<path opacity="0.2" d="M306.635 409.545L288.619 408.467C287.215 408.387 286.051 406.511 285.61 405.154L285.088 403.438C284.005 403.198 282.921 402.839 281.918 402.4L282.48 408.308C282.6 409.266 283.403 409.984 284.406 409.984H305.873C306.234 409.944 306.515 409.784 306.635 409.545Z" fill="black"/>
<path d="M271.727 409.944H286.412C286.653 409.505 287.335 408.188 286.493 407.908L276.501 403.637C274.736 403.039 273.532 402.639 272.489 401.322C272.288 401.043 272.088 400.723 271.967 400.404L264.183 382.841L254.593 387.431L262.738 401.482C263.461 402.52 263.621 403.877 263.661 405.114L263.702 407.11C263.782 408.627 264.985 409.824 266.47 409.864H266.51L271.727 409.944Z" fill="#F69797"/>
<path opacity="0.15" d="M286.693 409.306C286.573 409.585 286.452 409.824 286.372 409.984H271.686L266.43 409.904H266.39C264.865 409.864 263.661 408.627 263.621 407.15L263.581 405.154C263.541 403.917 263.34 402.52 262.658 401.522L259.729 396.492L259.89 395.095L264.343 398.289L267.152 405.074C267.152 405.074 269.841 408.707 277.866 409.026C285.891 409.306 285.891 409.306 285.891 409.306H286.693Z" fill="black"/>
<path d="M257.402 253.511L261.695 251.994C262.137 251.874 262.498 251.674 262.859 251.395L267.032 248.401C267.112 248.321 267.152 248.202 267.072 248.082C266.47 247.403 265.467 247.164 264.664 247.563L263.019 248.282C262.618 248.441 262.177 248.441 261.775 248.202C261.374 247.962 261.093 247.523 261.093 247.084L260.853 242.134C260.853 241.935 260.893 241.695 261.013 241.496L263.621 237.225C263.862 236.825 263.701 236.307 263.3 236.107C262.979 235.947 262.618 236.027 262.377 236.267C261.254 237.424 258.164 240.657 258.164 240.657L257.763 244.609L260.853 237.863L257.643 240.298C256.439 241.216 255.556 242.454 255.034 243.851L252.908 249.878L241.753 259.698L237.38 275.026L257.402 253.511Z" fill="#F69797"/>
<path opacity="0.15" d="M258.204 240.857V240.817L259.89 238.542L260.732 237.903L258.525 241.017L257.723 243.292L257.402 243.172L258.204 240.857Z" fill="black"/>
<path opacity="0.15" d="M257.843 243.013L258.525 241.017L260.732 237.903L257.522 240.338C256.318 241.256 255.436 242.494 254.914 243.891C254.954 243.931 255.957 242.973 257.843 243.013Z" fill="black"/>
<path opacity="0.15" d="M257.683 240.258L256.519 241.935L256.078 243.651H255.757L256.198 241.615C256.198 241.615 256.68 241.017 257.041 240.737L257.683 240.258Z" fill="black"/>
<path d="M200.224 275.425L228.993 271.194L249.457 252.872L250.54 270.635L232.966 280.175C232.484 280.454 231.963 280.654 231.441 280.774L202.31 288.198" fill="#4D61FC"/>
<path d="M204.958 274.786L188.467 292.829L168.846 281.093L178.155 278.299C178.235 278.259 178.316 278.259 178.396 278.219C179.399 277.78 179.961 276.662 179.8 275.585L178.757 266.164L188.507 261.574L190.754 271.154L191.115 272.711L191.637 274.866C191.918 276.024 193.041 276.503 194.125 276.383L204.958 274.786Z" fill="#F69797"/>
<path d="M270.001 395.934L261.454 399.446L256.038 390.704C242.917 371.345 239.747 365.118 234.531 348.952H187.705C181.164 348.952 175.868 343.723 175.747 337.256L175.627 329.832H236.457C240.309 329.832 243.799 332.147 245.284 335.699L270.001 395.934Z" fill="#3F4249"/>
<path opacity="0.2" d="M256.038 382.841C245.685 365.118 245.284 360.408 240.63 345.678C239.346 341.607 236.417 340.729 234.33 340.729L207.848 340.848C201.668 340.689 190.955 341.327 185.859 337.895L176.951 329.792H175.707L175.828 337.216C175.948 343.722 181.245 348.912 187.785 348.912H234.611C240.228 365.597 243.037 371.425 256.118 390.664L261.535 399.406L264.424 398.209C264.384 398.249 257.883 386.034 256.038 382.841Z" fill="black"/>
<path d="M163.951 282.69L174.905 279.177L177.272 280.933C183.612 285.683 192.68 283.608 196.291 276.582L196.612 275.944L213.826 273.389V281.093V284.446L202.35 288.198L201.307 286.322L204.597 291.91C206.363 294.864 206.523 298.497 205.079 301.61L204.076 303.766C203.835 304.285 203.715 304.804 203.755 305.362L204.076 312.148C204.236 315.661 205.4 319.054 207.406 321.968L212.743 329.751H210.736C203.273 329.751 195.93 331.787 189.51 335.659L179.559 341.647C176.349 343.603 172.377 340.729 173.22 337.056L173.621 335.34C175.146 328.913 175.306 322.247 174.183 315.781L170.25 297.379L158.775 297.778L158.052 295.144C156.447 289.994 158.734 284.366 163.951 282.69Z" fill="#4D61FC"/>
<path d="M190.554 328.035L190.714 327.876C190.313 327.476 190.313 326.798 190.714 326.399L190.554 326.239C190.152 326.638 189.47 326.638 189.069 326.239L188.909 326.399C189.31 326.798 189.31 327.476 188.909 327.876L189.069 328.035C189.47 327.596 190.152 327.596 190.554 328.035Z" fill="#4D61FC"/>
<path opacity="0.3" d="M170.973 294.984C171.294 294.904 171.655 295.144 171.695 295.463L174.504 306.321C174.865 307.877 175.908 309.913 177.312 310.751C180.563 312.707 184.294 311.111 184.294 311.111C184.816 310.911 185.337 311.35 185.217 311.869L184.134 316.419C180.884 325.361 181.806 335.34 185.859 337.895L179.64 341.647C176.43 343.603 172.457 340.729 173.3 337.056L173.701 335.34C175.226 328.913 175.386 322.247 174.263 315.781L170.491 295.743C170.371 295.383 170.612 295.064 170.973 294.984Z" fill="black"/>
<path d="M207.326 328.035L207.486 327.876C207.085 327.476 207.085 326.798 207.486 326.399L207.326 326.239C206.925 326.638 206.242 326.638 205.841 326.239L205.681 326.399C206.082 326.798 206.082 327.476 205.681 327.876L205.841 328.035C206.242 327.596 206.884 327.596 207.326 328.035Z" fill="#4D61FC"/>
<path opacity="0.3" d="M204.036 303.766C202.992 305.522 201.106 306.6 199.06 306.56L203.835 307.558L203.715 305.363C203.715 305.363 203.675 304.444 204.036 303.766Z" fill="black"/>
<path opacity="0.3" d="M250.26 265.765L231.481 277.86L201.347 284.885C200.826 285.045 200.625 285.684 200.946 286.123L202.35 288.238L231.762 280.734C232.123 280.654 232.484 280.494 232.805 280.335L250.621 270.675L250.26 265.765Z" fill="black"/>
<path d="M219.885 326.638L215.592 322.846C215.03 322.367 214.709 322.247 213.987 322.167L207.045 322.766L195.569 321.968L191.557 327.317L201.548 327.955L202.511 328.315C204.116 328.953 205.921 328.913 207.486 328.155H207.526L208.851 327.516C209.172 327.357 209.573 327.357 209.894 327.476L213.304 328.873C213.465 328.953 213.666 328.913 213.826 328.794C214.107 328.594 214.107 328.115 213.826 327.915L211.298 326.039L215.07 328.754C215.231 328.873 215.471 328.913 215.672 328.833C216.073 328.674 216.194 328.155 215.873 327.836L213.184 325.201L216.715 328.634C216.916 328.794 217.157 328.873 217.397 328.754C217.839 328.594 217.959 328.035 217.678 327.716L215.03 324.602L219.083 327.556C219.363 327.796 219.805 327.716 220.005 327.436C220.166 327.317 220.166 326.878 219.885 326.638Z" fill="#F69797"/>
<path opacity="0.15" d="M213.786 328.115C213.746 328.115 213.746 328.115 213.706 328.075L211.379 326.359C211.338 326.319 211.298 326.239 211.338 326.199C211.379 326.159 211.459 326.119 211.499 326.159L213.826 327.876C213.866 327.915 213.906 327.995 213.866 328.035C213.826 328.075 213.786 328.115 213.786 328.115Z" fill="black"/>
<path opacity="0.15" d="M215.752 328.035C215.712 328.035 215.672 328.035 215.672 327.995L213.144 325.52C213.104 325.481 213.104 325.401 213.144 325.361C213.184 325.321 213.264 325.321 213.304 325.361L215.832 327.836C215.872 327.876 215.872 327.955 215.832 327.995C215.832 328.035 215.792 328.035 215.752 328.035Z" fill="black"/>
<path opacity="0.15" d="M210.576 327.117C211.338 327.516 212.663 328.155 213.104 328.434C213.746 328.794 213.947 328.315 213.947 328.315C213.987 328.514 213.906 328.754 213.746 328.873C213.585 328.993 213.385 328.993 213.224 328.953L209.814 327.556C209.493 327.436 209.091 327.436 208.77 327.596L209.453 327.197C209.814 326.957 210.215 326.957 210.576 327.117Z" fill="black"/>
<path d="M158.414 296.461L165.957 323.764C166.479 325.56 167.923 326.997 169.769 327.476L189.831 332.825L198.779 321.968L175.788 318.615L170.25 295.383L158.414 296.461Z" fill="#4D61FC"/>
<path opacity="0.3" d="M182.047 319.533L182.127 319.174L205.641 322.566L205.6 322.726L182.047 319.533Z" fill="black"/>
<path opacity="0.15" d="M195.208 326.279L201.909 327.037C202.431 327.077 202.952 327.277 203.394 327.556C204.036 327.955 205.239 328.514 206.804 328.474C206.804 328.474 204.517 329.472 201.548 327.995L193.884 327.556L195.208 326.279Z" fill="black"/>
<path d="M275.338 403.238L272.73 403.637C269.48 404.156 266.109 403.677 263.1 402.36L263.661 408.268C263.782 409.226 264.584 409.944 265.587 409.944H287.054C288.097 409.944 288.338 408.507 287.335 408.188L275.338 403.238Z" fill="#4D61FC"/>
<path opacity="0.2" d="M287.857 409.545L269.841 408.467C268.436 408.387 267.273 406.511 266.831 405.154L266.31 403.438C265.226 403.198 264.143 402.839 263.14 402.4L263.701 408.308C263.822 409.266 264.624 409.984 265.627 409.984H287.094C287.455 409.944 287.696 409.784 287.857 409.545Z" fill="black"/>
<path d="M247.17 258.5C247.48 258.5 247.732 258.25 247.732 257.941C247.732 257.633 247.48 257.383 247.17 257.383C246.86 257.383 246.608 257.633 246.608 257.941C246.608 258.25 246.86 258.5 247.17 258.5Z" fill="#F4F4F4"/>
<path d="M241.593 272.152C241.903 272.152 242.154 271.902 242.154 271.593C242.154 271.284 241.903 271.034 241.593 271.034C241.282 271.034 241.031 271.284 241.031 271.593C241.031 271.902 241.282 272.152 241.593 272.152Z" fill="#F4F4F4"/>
<path d="M226.305 275.904C226.615 275.904 226.867 275.654 226.867 275.345C226.867 275.037 226.615 274.786 226.305 274.786C225.995 274.786 225.743 275.037 225.743 275.345C225.743 275.654 225.995 275.904 226.305 275.904Z" fill="#F4F4F4"/>
<path d="M213.224 284.326C213.534 284.326 213.786 284.076 213.786 283.768C213.786 283.459 213.534 283.209 213.224 283.209C212.914 283.209 212.663 283.459 212.663 283.768C212.663 284.076 212.914 284.326 213.224 284.326Z" fill="#F4F4F4"/>
<path d="M196.934 288.677C197.244 288.677 197.495 288.427 197.495 288.118C197.495 287.81 197.244 287.56 196.934 287.56C196.623 287.56 196.372 287.81 196.372 288.118C196.372 288.427 196.623 288.677 196.934 288.677Z" fill="#F4F4F4"/>
<path d="M202.11 302.568C202.42 302.568 202.671 302.318 202.671 302.009C202.671 301.701 202.42 301.451 202.11 301.451C201.799 301.451 201.548 301.701 201.548 302.009C201.548 302.318 201.799 302.568 202.11 302.568Z" fill="#F4F4F4"/>
<path d="M186.381 298.617C186.691 298.617 186.942 298.366 186.942 298.058C186.942 297.749 186.691 297.499 186.381 297.499C186.07 297.499 185.819 297.749 185.819 298.058C185.819 298.366 186.07 298.617 186.381 298.617Z" fill="#F4F4F4"/>
<path d="M188.828 322.527C189.138 322.527 189.39 322.276 189.39 321.968C189.39 321.659 189.138 321.409 188.828 321.409C188.518 321.409 188.267 321.659 188.267 321.968C188.267 322.276 188.518 322.527 188.828 322.527Z" fill="#F4F4F4"/>
<path d="M198.097 330.31C198.407 330.31 198.659 330.06 198.659 329.752C198.659 329.443 198.407 329.193 198.097 329.193C197.787 329.193 197.535 329.443 197.535 329.752C197.535 330.06 197.787 330.31 198.097 330.31Z" fill="#F4F4F4"/>
<path d="M199.622 314.663C199.932 314.663 200.184 314.413 200.184 314.104C200.184 313.796 199.932 313.545 199.622 313.545C199.312 313.545 199.06 313.796 199.06 314.104C199.06 314.413 199.312 314.663 199.622 314.663Z" fill="#F4F4F4"/>
<path d="M185.217 312.108C185.527 312.108 185.779 311.858 185.779 311.55C185.779 311.241 185.527 310.991 185.217 310.991C184.907 310.991 184.655 311.241 184.655 311.55C184.655 311.858 184.907 312.108 185.217 312.108Z" fill="#F4F4F4"/>
<path d="M161.543 286.003C161.853 286.003 162.105 285.753 162.105 285.444C162.105 285.136 161.853 284.885 161.543 284.885C161.233 284.885 160.982 285.136 160.982 285.444C160.982 285.753 161.233 286.003 161.543 286.003Z" fill="#F4F4F4"/>
<path d="M179.519 285.444C179.829 285.444 180.081 285.194 180.081 284.885C180.081 284.577 179.829 284.326 179.519 284.326C179.209 284.326 178.958 284.577 178.958 284.885C178.958 285.194 179.209 285.444 179.519 285.444Z" fill="#F4F4F4"/>
<path d="M164.151 308.396C164.462 308.396 164.713 308.146 164.713 307.837C164.713 307.529 164.462 307.279 164.151 307.279C163.841 307.279 163.59 307.529 163.59 307.837C163.59 308.146 163.841 308.396 164.151 308.396Z" fill="#F4F4F4"/>
<path d="M170.331 296.302C170.641 296.302 170.892 296.051 170.892 295.743C170.892 295.434 170.641 295.184 170.331 295.184C170.02 295.184 169.769 295.434 169.769 295.743C169.769 296.051 170.02 296.302 170.331 296.302Z" fill="#F4F4F4"/>
<path d="M174.664 318.056C174.974 318.056 175.226 317.806 175.226 317.497C175.226 317.189 174.974 316.938 174.664 316.938C174.354 316.938 174.102 317.189 174.102 317.497C174.102 317.806 174.354 318.056 174.664 318.056Z" fill="#F4F4F4"/>
<path d="M176.43 338.733C176.74 338.733 176.991 338.483 176.991 338.174C176.991 337.866 176.74 337.615 176.43 337.615C176.119 337.615 175.868 337.866 175.868 338.174C175.868 338.483 176.119 338.733 176.43 338.733Z" fill="#F4F4F4"/>
<path d="M182.609 328.075C182.919 328.075 183.171 327.825 183.171 327.516C183.171 327.208 182.919 326.958 182.609 326.958C182.299 326.958 182.047 327.208 182.047 327.516C182.047 327.825 182.299 328.075 182.609 328.075Z" fill="#F4F4F4"/>
<path d="M204.958 276.463C205.269 276.463 205.52 276.213 205.52 275.904C205.52 275.596 205.269 275.345 204.958 275.345C204.648 275.345 204.397 275.596 204.397 275.904C204.397 276.213 204.648 276.463 204.958 276.463Z" fill="#F4F4F4"/>
<path opacity="0.3" d="M160.179 291.472L167.522 318.495C168.405 321.569 170.973 323.405 174.343 323.964L195.248 326.279L189.831 332.825L169.849 327.516C167.963 326.997 166.479 325.56 165.957 323.684L158.092 295.104C156.648 289.555 158.775 284.326 163.991 282.65C160.46 284.127 159.256 287.839 160.179 291.472Z" fill="black"/>
<path d="M155.886 350.109L159.978 334.502H160.54L156.528 350.109H155.886Z" fill="#858990"/>
<path opacity="0.3" d="M203.835 348.792L204.557 353.622H202.15L201.468 348.792H203.835Z" fill="black"/>
<path opacity="0.3" d="M145.854 349.51C146.296 349.071 146.898 348.792 147.58 348.792H147.901L146.697 353.462" fill="black"/>
<path d="M201.829 328.395H226.465C226.666 328.395 226.827 328.554 226.827 328.754V329.392C226.827 329.592 226.666 329.752 226.465 329.752H201.829C201.628 329.752 201.468 329.592 201.468 329.392V328.754C201.468 328.554 201.588 328.395 201.829 328.395Z" fill="#21252B"/>
<path opacity="0.6" d="M201.829 328.395H226.465C226.666 328.395 226.827 328.554 226.827 328.754V329.392C226.827 329.592 226.666 329.752 226.465 329.752H201.829C201.628 329.752 201.468 329.592 201.468 329.392V328.754C201.468 328.554 201.588 328.395 201.829 328.395Z" fill="black"/>
<path d="M218.441 328.395H261.414C261.615 328.395 261.775 328.554 261.775 328.754V329.392C261.775 329.592 261.615 329.752 261.414 329.752H218.441C218.24 329.752 218.079 329.592 218.079 329.392V328.754C218.079 328.554 218.24 328.395 218.441 328.395Z" fill="#21252B"/>
<g opacity="0.6">
<path opacity="0.6" d="M260.853 328.634H217.116C217.036 328.634 216.996 328.594 216.996 328.514C216.996 328.434 217.036 328.395 217.116 328.395H260.853C260.933 328.395 260.973 328.434 260.973 328.514C260.973 328.594 260.893 328.634 260.853 328.634Z" fill="black"/>
</g>
<path d="M218.36 328.394H224.82C225.302 328.394 225.743 328.035 225.864 327.556L231.281 299.175C231.401 298.537 230.919 297.938 230.237 297.938H223.777C223.296 297.938 222.854 298.297 222.734 298.776L217.317 327.157C217.237 327.836 217.678 328.394 218.36 328.394Z" fill="#21252B"/>
<path opacity="0.6" d="M218.36 328.394H224.82C225.302 328.394 225.743 328.035 225.864 327.556L231.281 299.175C231.401 298.537 230.919 297.938 230.237 297.938H223.777C223.296 297.938 222.854 298.297 222.734 298.776L217.317 327.157C217.237 327.836 217.678 328.394 218.36 328.394Z" fill="black"/>
<path d="M219.283 328.394H260.853C261.334 328.394 261.776 328.035 261.896 327.556L267.313 299.175C267.433 298.537 266.952 297.938 266.27 297.938H224.7C224.219 297.938 223.777 298.297 223.657 298.776L218.28 327.157C218.16 327.836 218.601 328.394 219.283 328.394Z" fill="#21252B"/>
<path opacity="0.6" d="M242.997 312.388C242.756 312.947 243.037 313.466 243.599 313.466C243.639 313.466 243.679 313.466 243.679 313.466C242.997 314.224 241.994 314.743 241.071 314.703C239.827 314.663 239.265 313.665 239.827 312.468C240.349 311.23 241.793 310.312 243.037 310.312C243.8 310.352 244.321 310.751 244.482 311.35C243.92 311.39 243.278 311.789 242.997 312.388Z" fill="black"/>
<path d="M204.678 325.321C204.196 322.088 201.468 319.772 198.258 319.732H194.767L193.402 320.052V320.251L163.71 324.004C159.978 324.483 156.929 327.117 155.966 330.789L135.261 409.944H140.237L160.62 331.987C161.062 330.27 162.506 328.993 164.312 328.754L197.896 324.483C198.859 324.363 199.742 325.001 199.903 325.959L212.743 409.864H217.638L204.678 325.321Z" fill="#B1B5BA"/>
<path d="M137.067 409.944H132.091L152.796 330.789C153.759 327.157 156.768 324.483 160.54 324.004L194.125 319.733C197.696 319.293 200.946 321.728 201.508 325.281L214.468 409.944H209.573L196.733 326.039C196.572 325.081 195.73 324.443 194.727 324.562L161.142 328.834C159.376 329.073 157.932 330.31 157.45 332.067L137.067 409.944Z" fill="#858990"/>
<path d="M188.828 272.511L188.267 272.631C184.094 273.509 179.8 270.595 178.917 266.444L176.63 255.946C176.349 254.549 177.232 253.191 178.596 252.912L188.467 250.796C190.273 250.397 192.038 251.555 192.44 253.351L194.566 263.131C195.449 267.242 193.202 271.713 188.828 272.511Z" fill="#F69797"/>
<path d="M187.745 267.003L188.106 267.362C189.069 268.28 190.674 267.881 191.156 266.643L191.356 266.085C191.396 265.965 191.316 265.845 191.196 265.885L187.825 266.763C187.705 266.763 187.665 266.923 187.745 267.003Z" fill="white"/>
<path d="M185.779 262.652C186.244 262.652 186.621 262.276 186.621 261.813C186.621 261.35 186.244 260.975 185.779 260.975C185.313 260.975 184.936 261.35 184.936 261.813C184.936 262.276 185.313 262.652 185.779 262.652Z" fill="#21252B"/>
<path d="M186.18 262.252C186.268 262.252 186.34 262.181 186.34 262.093C186.34 262.005 186.268 261.933 186.18 261.933C186.091 261.933 186.02 262.005 186.02 262.093C186.02 262.181 186.091 262.252 186.18 262.252Z" fill="white"/>
<path d="M192.159 261.654C192.624 261.654 193.001 261.279 193.001 260.816C193.001 260.353 192.624 259.977 192.159 259.977C191.693 259.977 191.316 260.353 191.316 260.816C191.316 261.279 191.693 261.654 192.159 261.654Z" fill="#21252B"/>
<path d="M192.6 261.215C192.688 261.215 192.76 261.143 192.76 261.055C192.76 260.967 192.688 260.895 192.6 260.895C192.511 260.895 192.44 260.967 192.44 261.055C192.44 261.143 192.511 261.215 192.6 261.215Z" fill="white"/>
<g opacity="0.3">
<path opacity="0.3" d="M190.072 264.927L188.989 265.206C188.868 265.246 188.708 265.166 188.708 265.047C188.668 264.927 188.748 264.767 188.868 264.767L189.952 264.488C190.233 264.408 190.393 264.129 190.313 263.889C190.233 263.61 189.952 263.45 189.711 263.53C189.591 263.57 189.43 263.49 189.43 263.37C189.39 263.25 189.47 263.091 189.591 263.091C190.112 262.971 190.674 263.29 190.794 263.809C190.915 264.288 190.594 264.807 190.072 264.927Z" fill="black"/>
</g>
<path d="M195.329 255.626H195.77C192.399 244.49 180.322 244.569 175.467 250.238C172.538 253.67 171.294 259.259 171.294 259.259C172.257 261.334 174.905 262.971 175.748 264.408C176.109 265.047 176.871 262.053 177.393 261.654C177.473 261.614 178.115 262.253 178.556 262.692C178.837 262.971 179.319 262.851 179.359 262.452C179.559 261.055 179.479 259.618 179.198 258.261L178.917 257.023C181.606 256.145 189.711 252.992 191.517 252.393C191.958 252.233 192.359 252.912 192.48 253.351L193.804 259.458L194.927 256.544L195.329 255.626Z" fill="#21252B"/>
<path d="M179.519 266.763C179.519 266.763 176.028 267.961 174.383 264.647C172.698 261.334 176.911 259.578 178.476 262.931L179.961 266.643L179.519 266.763Z" fill="#F69797"/>
<path opacity="0.3" d="M174.985 262.492C175.306 262.133 175.627 261.933 175.988 261.933C176.349 261.933 176.711 262.053 177.032 262.412C177.353 262.731 177.633 263.171 177.794 263.689L177.914 264.049C177.995 264.328 177.553 264.528 177.433 264.208C177.312 263.809 177.312 263.809 177.312 263.809C177.272 263.689 177.032 263.051 176.711 262.771C176.47 262.532 176.229 262.452 176.028 262.452C175.828 262.452 175.587 262.612 175.346 262.851C175.266 262.931 175.106 262.971 175.025 262.891C174.905 262.771 174.905 262.612 174.985 262.492Z" fill="black"/>
<path d="M192.239 257.343C191.236 257.582 190.433 258.301 190.032 259.179C189.069 259.019 188.307 259.339 187.986 259.538C187.183 258.62 185.899 258.181 184.655 258.46C182.85 258.9 181.766 260.736 182.208 262.492C182.649 264.288 184.495 265.366 186.26 264.927C188.066 264.488 189.149 262.652 188.708 260.895C188.628 260.536 188.467 260.177 188.267 259.897C188.547 259.738 189.149 259.498 189.912 259.578C189.751 260.137 189.711 260.776 189.872 261.374C190.313 263.171 192.159 264.248 193.924 263.809C195.73 263.37 196.813 261.534 196.372 259.778C195.85 257.981 194.045 256.904 192.239 257.343ZM186.14 264.528C184.575 264.927 182.97 263.969 182.609 262.412C182.208 260.855 183.171 259.259 184.736 258.9C186.3 258.5 187.905 259.458 188.267 261.015C188.668 262.532 187.705 264.129 186.14 264.528ZM193.764 263.37C192.199 263.769 190.594 262.811 190.233 261.255C189.831 259.698 190.794 258.101 192.359 257.742C193.924 257.343 195.529 258.301 195.89 259.858C196.292 261.414 195.329 262.971 193.764 263.37Z" fill="white"/>
<path d="M178.275 266.484C178.674 266.484 178.998 266.162 178.998 265.765C178.998 265.368 178.674 265.047 178.275 265.047C177.877 265.047 177.553 265.368 177.553 265.765C177.553 266.162 177.877 266.484 178.275 266.484Z" fill="#4D61FC"/>
<path opacity="0.15" d="M178.637 266.284C178.195 266.404 177.794 266.124 177.674 265.725C177.633 265.566 177.633 265.406 177.674 265.286C177.513 265.446 177.473 265.685 177.513 265.925C177.593 266.324 177.995 266.563 178.396 266.444C178.556 266.404 178.677 266.324 178.757 266.204C178.757 266.284 178.717 266.284 178.637 266.284Z" fill="black"/>
<path opacity="0.15" d="M178.797 266.923L180.041 266.643L179.078 269.717L178.797 266.923Z" fill="black"/>
<path d="M192.439 253.311C185.658 251.714 186.782 261.813 179.76 260.456C173.179 259.179 179.118 251.275 179.118 251.275L184.936 250.238L192.76 251.196L192.439 253.311Z" fill="#21252B"/>
<path d="M180.603 260.895C180.603 260.895 179.8 260.935 178.596 260.336" stroke="#F69797" stroke-width="1.2986" stroke-miterlimit="10" stroke-linecap="round"/>
<path opacity="0.15" d="M191.075 272.471L190.915 271.792H190.875C190.875 271.792 188.908 272.591 186.702 272.271C186.581 272.271 186.461 272.351 186.421 272.471C186.421 272.591 186.501 272.711 186.621 272.75C187.023 272.79 187.384 272.83 187.745 272.83C188.066 272.83 188.347 272.83 188.628 272.79C188.989 273.07 189.872 273.629 191.276 273.309L191.075 272.471Z" fill="black"/>
<path d="M178.797 266.923C178.797 266.923 180.001 273.589 183.532 278.1C183.532 278.1 178.797 279.217 175.146 278.379C171.775 277.621 178.797 266.923 178.797 266.923Z" fill="#21252B"/>
<path d="M187.986 141.065V240.937L92.448 239.221L92.3677 175.474L130.045 141.065H187.986Z" fill="#EAEAEA"/>
<path opacity="0.2" d="M159.577 143.221L121.98 238.742H110.143L148.422 143.221H159.577Z" fill="white"/>
<path opacity="0.2" d="M143.046 143.221L105.408 238.742H101.476L139.755 143.221H143.046Z" fill="white"/>
<path d="M86.5095 243.093H190.193V138.91H132.412L127.718 143.261V238.782H86.4292L86.5095 243.093ZM185.819 238.742H132.091V143.221H185.819V238.742Z" fill="white"/>
<path d="M124.628 146.015H185.819V144.418H126.394L124.628 146.015Z" fill="white"/>
<path d="M121.579 148.769H185.819V147.173H123.344L121.579 148.769Z" fill="white"/>
<path d="M118.529 151.564H185.819V149.967H120.295L118.529 151.564Z" fill="white"/>
<path d="M115.48 154.358H185.819V152.761H117.245L115.48 154.358Z" fill="white"/>
<path d="M112.47 157.152H185.819V155.555H114.196L112.47 157.152Z" fill="white"/>
<path d="M109.381 159.906H185.819V158.31H111.146L109.381 159.906Z" fill="white"/>
<path d="M183.732 187.608H183.813V143.221H184.214V187.608H184.294C184.615 187.608 184.856 187.848 184.856 188.167V194.354C184.856 194.674 184.615 194.913 184.294 194.913H183.773C183.452 194.913 183.211 194.674 183.211 194.354V188.167C183.171 187.848 183.411 187.608 183.732 187.608Z" fill="white"/>
<path d="M184.949 145.987H185.792V144.39H184.949V145.987Z" fill="#DDDDDD"/>
<path d="M184.949 148.797H185.792V147.201H184.949V148.797Z" fill="#DDDDDD"/>
<path d="M184.949 151.568H185.792V149.971H184.949V151.568Z" fill="#DDDDDD"/>
<path d="M184.949 154.338H185.792V152.741H184.949V154.338Z" fill="#DDDDDD"/>
<path d="M184.949 157.148H185.792V155.551H184.949V157.148Z" fill="#DDDDDD"/>
<path d="M127.7 155.012H132.073V154.334H127.7V155.012Z" fill="#DDDDDD"/>
<path d="M184.949 159.918H185.792V158.322H184.949V159.918Z" fill="#DDDDDD"/>
<path d="M127.7 146.661H132.073V145.983H127.7V146.661Z" fill="#DDDDDD"/>
<path d="M127.7 149.472H132.073V148.793H127.7V149.472Z" fill="#DDDDDD"/>
<path d="M127.7 152.242H132.073V151.564H127.7V152.242Z" fill="#DDDDDD"/>
<path d="M127.7 157.823H132.073V157.144H127.7V157.823Z" fill="#DDDDDD"/>
<path d="M127.7 160.593H132.073V159.915H127.7V160.593Z" fill="#DDDDDD"/>
<defs>
<linearGradient id="paint0_linear_22_4" x1="679" y1="140.5" x2="-74" y2="559" gradientUnits="userSpaceOnUse">
<stop offset="0.0814246" stop-color="#6C63FF"/>
<stop offset="1" stop-color="#F4F4F4" stop-opacity="0"/>
</linearGradient>
</defs>
</svg>
