<svg width="100" height="100" viewBox="0 0 100 100" fill="none" xmlns="http://www.w3.org/2000/svg">
<path d="M80.9583 54.0833C81.125 52.7499 81.25 51.4166 81.25 49.9999C81.25 48.5833 81.125 47.2499 80.9583 45.9166L89.75 39.0416C90.5417 38.4166 90.75 37.2916 90.25 36.3749L81.9167 21.9583C81.4167 21.0416 80.2917 20.7083 79.375 21.0416L69 25.2083C66.8333 23.5416 64.5 22.1666 61.9583 21.1249L60.375 10.0833C60.25 9.08325 59.375 8.33325 58.3333 8.33325H41.6667C40.625 8.33325 39.75 9.08325 39.625 10.0833L38.0417 21.1249C35.5 22.1666 33.1667 23.5833 31 25.2083L20.625 21.0416C19.6667 20.6666 18.5833 21.0416 18.0833 21.9583L9.75 36.3749C9.20833 37.2916 9.45833 38.4166 10.25 39.0416L19.0417 45.9166C18.875 47.2499 18.75 48.6249 18.75 49.9999C18.75 51.3749 18.875 52.7499 19.0417 54.0833L10.25 60.9583C9.45833 61.5833 9.25 62.7083 9.75 63.6249L18.0833 78.0416C18.5833 78.9583 19.7083 79.2916 20.625 78.9583L31 74.7916C33.1667 76.4583 35.5 77.8333 38.0417 78.8749L39.625 89.9166C39.75 90.9166 40.625 91.6666 41.6667 91.6666H58.3333C59.375 91.6666 60.25 90.9166 60.375 89.9166L61.9583 78.8749C64.5 77.8333 66.8333 76.4166 69 74.7916L79.375 78.9583C80.3333 79.3333 81.4167 78.9583 81.9167 78.0416L90.25 63.6249C90.75 62.7083 90.5417 61.5833 89.75 60.9583L80.9583 54.0833ZM50 64.5833C41.9583 64.5833 35.4167 58.0416 35.4167 49.9999C35.4167 41.9583 41.9583 35.4166 50 35.4166C58.0417 35.4166 64.5833 41.9583 64.5833 49.9999C64.5833 58.0416 58.0417 64.5833 50 64.5833Z" fill="black"/>
</svg>
